<ttFont>
    <TTGlyph name=".notdef" xMin="50" yMin="0" xMax="700" yMax="700">
      <contour>
        <pt x="50" y="700" on="1"/>
        <pt x="700" y="700" on="1"/>
        <pt x="700" y="0" on="1"/>
        <pt x="50" y="0" on="1"/>
      </contour>
      <contour>
        <pt x="570" y="620" on="1"/>
        <pt x="375" y="403" on="1"/>
        <pt x="180" y="620" on="1"/>
        <pt x="130" y="570" on="1"/>
        <pt x="327" y="350" on="1"/>
        <pt x="130" y="130" on="1"/>
        <pt x="180" y="80" on="1"/>
        <pt x="375" y="297" on="1"/>
        <pt x="570" y="80" on="1"/>
        <pt x="620" y="130" on="1"/>
        <pt x="422" y="350" on="1"/>
        <pt x="620" y="570" on="1"/>
      </contour>
      <contour>
        <pt x="129" y="27" on="1"/>
        <pt x="137" y="27" on="1"/>
        <pt x="137" y="39" on="1"/>
        <pt x="141" y="39" on="1"/>
        <pt x="147" y="39" on="0"/>
        <pt x="157" y="44" on="0"/>
        <pt x="157" y="51" on="1"/>
        <pt x="157" y="59" on="0"/>
        <pt x="146" y="63" on="0"/>
        <pt x="140" y="63" on="1"/>
        <pt x="129" y="63" on="1"/>
      </contour>
      <contour>
        <pt x="141" y="57" on="1"/>
        <pt x="149" y="57" on="0"/>
        <pt x="149" y="52" on="1"/>
        <pt x="149" y="47" on="0"/>
        <pt x="144" y="46" on="0"/>
        <pt x="140" y="46" on="1"/>
        <pt x="137" y="46" on="1"/>
        <pt x="137" y="57" on="1"/>
      </contour>
      <contour>
        <pt x="189" y="63" on="1"/>
        <pt x="158" y="63" on="1"/>
        <pt x="158" y="57" on="1"/>
        <pt x="170" y="57" on="1"/>
        <pt x="170" y="27" on="1"/>
        <pt x="177" y="27" on="1"/>
        <pt x="177" y="57" on="1"/>
        <pt x="189" y="57" on="1"/>
      </contour>
      <contour>
        <pt x="222" y="37" on="1"/>
        <pt x="222" y="33" on="0"/>
        <pt x="215" y="33" on="1"/>
        <pt x="208" y="33" on="0"/>
        <pt x="206" y="35" on="1"/>
        <pt x="203" y="28" on="1"/>
        <pt x="205" y="28" on="0"/>
        <pt x="211" y="26" on="0"/>
        <pt x="216" y="26" on="1"/>
        <pt x="230" y="26" on="0"/>
        <pt x="230" y="38" on="1"/>
        <pt x="230" y="47" on="0"/>
        <pt x="212" y="49" on="0"/>
        <pt x="212" y="54" on="1"/>
        <pt x="212" y="57" on="0"/>
        <pt x="218" y="57" on="1"/>
        <pt x="223" y="57" on="0"/>
        <pt x="227" y="55" on="1"/>
        <pt x="229" y="62" on="1"/>
        <pt x="223" y="64" on="0"/>
        <pt x="218" y="64" on="1"/>
        <pt x="204" y="64" on="0"/>
        <pt x="204" y="53" on="1"/>
        <pt x="204" y="48" on="0"/>
        <pt x="210" y="44" on="0"/>
        <pt x="216" y="41" on="0"/>
        <pt x="222" y="39" on="0"/>
      </contour>
      <contour>
        <pt x="237" y="47" on="1"/>
        <pt x="241" y="49" on="0"/>
        <pt x="246" y="49" on="1"/>
        <pt x="251" y="49" on="0"/>
        <pt x="251" y="45" on="1"/>
        <pt x="251" y="43" on="1"/>
        <pt x="250" y="43" on="0"/>
        <pt x="248" y="44" on="0"/>
        <pt x="246" y="44" on="1"/>
        <pt x="234" y="44" on="0"/>
        <pt x="234" y="34" on="1"/>
        <pt x="234" y="26" on="0"/>
        <pt x="242" y="26" on="1"/>
        <pt x="248" y="26" on="0"/>
        <pt x="251" y="31" on="1"/>
        <pt x="253" y="27" on="1"/>
        <pt x="259" y="27" on="1"/>
        <pt x="258" y="29" on="0"/>
        <pt x="258" y="34" on="1"/>
        <pt x="258" y="45" on="1"/>
        <pt x="258" y="55" on="0"/>
        <pt x="248" y="55" on="1"/>
        <pt x="244" y="55" on="0"/>
        <pt x="237" y="53" on="0"/>
        <pt x="235" y="52" on="1"/>
      </contour>
      <contour>
        <pt x="245" y="32" on="1"/>
        <pt x="241" y="32" on="0"/>
        <pt x="241" y="36" on="1"/>
        <pt x="241" y="40" on="0"/>
        <pt x="246" y="40" on="1"/>
        <pt x="248" y="40" on="0"/>
        <pt x="250" y="39" on="0"/>
        <pt x="251" y="39" on="1"/>
        <pt x="251" y="36" on="1"/>
        <pt x="249" y="32" on="0"/>
      </contour>
      <contour>
        <pt x="292" y="27" on="1"/>
        <pt x="292" y="43" on="1"/>
        <pt x="292" y="55" on="0"/>
        <pt x="283" y="55" on="1"/>
        <pt x="276" y="55" on="0"/>
        <pt x="273" y="50" on="1"/>
        <pt x="271" y="54" on="1"/>
        <pt x="266" y="54" on="1"/>
        <pt x="266" y="27" on="1"/>
        <pt x="273" y="27" on="1"/>
        <pt x="273" y="44" on="1"/>
        <pt x="275" y="48" on="0"/>
        <pt x="279" y="48" on="1"/>
        <pt x="284" y="48" on="0"/>
        <pt x="284" y="42" on="1"/>
        <pt x="284" y="27" on="1"/>
      </contour>
      <contour>
        <pt x="297" y="28" on="1"/>
        <pt x="301" y="26" on="0"/>
        <pt x="307" y="26" on="1"/>
        <pt x="318" y="26" on="0"/>
        <pt x="318" y="35" on="1"/>
        <pt x="318" y="40" on="0"/>
        <pt x="313" y="42" on="0"/>
        <pt x="310" y="44" on="1"/>
        <pt x="305" y="46" on="0"/>
        <pt x="305" y="47" on="1"/>
        <pt x="305" y="49" on="0"/>
        <pt x="308" y="49" on="1"/>
        <pt x="312" y="49" on="0"/>
        <pt x="316" y="47" on="1"/>
        <pt x="318" y="53" on="1"/>
        <pt x="314" y="55" on="0"/>
        <pt x="308" y="55" on="1"/>
        <pt x="298" y="55" on="0"/>
        <pt x="298" y="46" on="1"/>
        <pt x="298" y="41" on="0"/>
        <pt x="304" y="38" on="0"/>
        <pt x="306" y="37" on="1"/>
        <pt x="311" y="37" on="0"/>
        <pt x="311" y="34" on="1"/>
        <pt x="311" y="32" on="0"/>
        <pt x="308" y="32" on="1"/>
        <pt x="303" y="32" on="0"/>
        <pt x="299" y="34" on="1"/>
      </contour>
      <contour>
        <pt x="338" y="42" on="1"/>
        <pt x="338" y="21" on="0"/>
        <pt x="358" y="21" on="1"/>
        <pt x="378" y="21" on="0"/>
        <pt x="378" y="42" on="1"/>
        <pt x="378" y="62" on="0"/>
        <pt x="358" y="62" on="1"/>
        <pt x="350" y="62" on="0"/>
        <pt x="338" y="51" on="0"/>
      </contour>
      <contour>
        <pt x="344" y="42" on="1"/>
        <pt x="344" y="57" on="0"/>
        <pt x="358" y="57" on="1"/>
        <pt x="372" y="57" on="0"/>
        <pt x="372" y="42" on="1"/>
        <pt x="372" y="27" on="0"/>
        <pt x="358" y="27" on="1"/>
        <pt x="344" y="27" on="0"/>
      </contour>
      <contour>
        <pt x="364" y="38" on="1"/>
        <pt x="362" y="37" on="0"/>
        <pt x="360" y="37" on="1"/>
        <pt x="356" y="37" on="0"/>
        <pt x="356" y="42" on="1"/>
        <pt x="356" y="46" on="0"/>
        <pt x="360" y="46" on="1"/>
        <pt x="363" y="46" on="1"/>
        <pt x="365" y="50" on="1"/>
        <pt x="361" y="52" on="0"/>
        <pt x="358" y="52" on="1"/>
        <pt x="349" y="52" on="0"/>
        <pt x="349" y="42" on="1"/>
        <pt x="349" y="31" on="0"/>
        <pt x="358" y="31" on="1"/>
        <pt x="363" y="31" on="0"/>
        <pt x="365" y="33" on="1"/>
      </contour>
      <contour>
        <pt x="399" y="27" on="1"/>
        <pt x="407" y="27" on="1"/>
        <pt x="407" y="39" on="1"/>
        <pt x="411" y="39" on="1"/>
        <pt x="417" y="39" on="0"/>
        <pt x="427" y="44" on="0"/>
        <pt x="427" y="51" on="1"/>
        <pt x="427" y="59" on="0"/>
        <pt x="416" y="63" on="0"/>
        <pt x="410" y="63" on="1"/>
        <pt x="399" y="63" on="1"/>
      </contour>
      <contour>
        <pt x="411" y="57" on="1"/>
        <pt x="419" y="57" on="0"/>
        <pt x="419" y="52" on="1"/>
        <pt x="419" y="47" on="0"/>
        <pt x="414" y="46" on="0"/>
        <pt x="410" y="46" on="1"/>
        <pt x="407" y="46" on="1"/>
        <pt x="407" y="57" on="1"/>
      </contour>
      <contour>
        <pt x="432" y="47" on="1"/>
        <pt x="436" y="49" on="0"/>
        <pt x="441" y="49" on="1"/>
        <pt x="446" y="49" on="0"/>
        <pt x="446" y="45" on="1"/>
        <pt x="446" y="43" on="1"/>
        <pt x="445" y="43" on="0"/>
        <pt x="443" y="44" on="0"/>
        <pt x="441" y="44" on="1"/>
        <pt x="428" y="44" on="0"/>
        <pt x="428" y="34" on="1"/>
        <pt x="428" y="26" on="0"/>
        <pt x="437" y="26" on="1"/>
        <pt x="443" y="26" on="0"/>
        <pt x="446" y="31" on="1"/>
        <pt x="448" y="27" on="1"/>
        <pt x="454" y="27" on="1"/>
        <pt x="453" y="29" on="0"/>
        <pt x="453" y="34" on="1"/>
        <pt x="453" y="45" on="1"/>
        <pt x="453" y="55" on="0"/>
        <pt x="443" y="55" on="1"/>
        <pt x="439" y="55" on="0"/>
        <pt x="432" y="53" on="0"/>
        <pt x="430" y="52" on="1"/>
      </contour>
      <contour>
        <pt x="440" y="32" on="1"/>
        <pt x="436" y="32" on="0"/>
        <pt x="436" y="36" on="1"/>
        <pt x="436" y="40" on="0"/>
        <pt x="441" y="40" on="1"/>
        <pt x="443" y="40" on="0"/>
        <pt x="445" y="39" on="0"/>
        <pt x="446" y="39" on="1"/>
        <pt x="446" y="36" on="1"/>
        <pt x="444" y="32" on="0"/>
      </contour>
      <contour>
        <pt x="478" y="54" on="1"/>
        <pt x="477" y="55" on="0"/>
        <pt x="474" y="55" on="1"/>
        <pt x="470" y="55" on="0"/>
        <pt x="468" y="50" on="1"/>
        <pt x="467" y="50" on="1"/>
        <pt x="466" y="54" on="1"/>
        <pt x="460" y="54" on="1"/>
        <pt x="460" y="27" on="1"/>
        <pt x="468" y="27" on="1"/>
        <pt x="468" y="44" on="1"/>
        <pt x="468" y="48" on="0"/>
        <pt x="474" y="48" on="1"/>
        <pt x="475" y="48" on="1"/>
        <pt x="476" y="48" on="0"/>
        <pt x="476" y="47" on="0"/>
        <pt x="477" y="47" on="1"/>
      </contour>
      <contour>
        <pt x="483" y="47" on="1"/>
        <pt x="489" y="49" on="0"/>
        <pt x="492" y="49" on="1"/>
        <pt x="497" y="49" on="0"/>
        <pt x="497" y="45" on="1"/>
        <pt x="497" y="43" on="1"/>
        <pt x="496" y="43" on="0"/>
        <pt x="494" y="44" on="0"/>
        <pt x="492" y="44" on="1"/>
        <pt x="479" y="44" on="0"/>
        <pt x="479" y="34" on="1"/>
        <pt x="479" y="26" on="0"/>
        <pt x="488" y="26" on="1"/>
        <pt x="495" y="26" on="0"/>
        <pt x="497" y="31" on="1"/>
        <pt x="498" y="31" on="1"/>
        <pt x="499" y="27" on="1"/>
        <pt x="505" y="27" on="1"/>
        <pt x="504" y="29" on="0"/>
        <pt x="504" y="34" on="1"/>
        <pt x="504" y="45" on="1"/>
        <pt x="504" y="55" on="0"/>
        <pt x="494" y="55" on="1"/>
        <pt x="490" y="55" on="0"/>
        <pt x="484" y="53" on="0"/>
        <pt x="482" y="52" on="1"/>
      </contour>
      <contour>
        <pt x="491" y="32" on="1"/>
        <pt x="487" y="32" on="0"/>
        <pt x="487" y="36" on="1"/>
        <pt x="487" y="40" on="0"/>
        <pt x="492" y="40" on="1"/>
        <pt x="494" y="40" on="0"/>
        <pt x="496" y="39" on="0"/>
        <pt x="497" y="39" on="1"/>
        <pt x="497" y="36" on="1"/>
        <pt x="495" y="32" on="0"/>
      </contour>
      <contour>
        <pt x="533" y="63" on="1"/>
        <pt x="502" y="63" on="1"/>
        <pt x="502" y="57" on="1"/>
        <pt x="513" y="57" on="1"/>
        <pt x="513" y="27" on="1"/>
        <pt x="521" y="27" on="1"/>
        <pt x="521" y="57" on="1"/>
        <pt x="533" y="57" on="1"/>
      </contour>
      <contour>
        <pt x="541" y="54" on="1"/>
        <pt x="533" y="54" on="1"/>
        <pt x="545" y="27" on="1"/>
        <pt x="544" y="22" on="0"/>
        <pt x="540" y="22" on="1"/>
        <pt x="539" y="23" on="1"/>
        <pt x="537" y="17" on="1"/>
        <pt x="539" y="16" on="0"/>
        <pt x="542" y="16" on="1"/>
        <pt x="547" y="16" on="0"/>
        <pt x="552" y="29" on="1"/>
        <pt x="562" y="54" on="1"/>
        <pt x="554" y="54" on="1"/>
        <pt x="549" y="39" on="1"/>
        <pt x="549" y="34" on="1"/>
        <pt x="548" y="34" on="1"/>
        <pt x="547" y="39" on="1"/>
      </contour>
      <contour>
        <pt x="565" y="16" on="1"/>
        <pt x="573" y="16" on="1"/>
        <pt x="573" y="28" on="1"/>
        <pt x="574" y="26" on="0"/>
        <pt x="578" y="26" on="1"/>
        <pt x="592" y="26" on="0"/>
        <pt x="592" y="41" on="1"/>
        <pt x="592" y="55" on="0"/>
        <pt x="581" y="55" on="1"/>
        <pt x="576" y="55" on="0"/>
        <pt x="572" y="51" on="1"/>
        <pt x="571" y="51" on="1"/>
        <pt x="570" y="54" on="1"/>
        <pt x="565" y="54" on="1"/>
      </contour>
      <contour>
        <pt x="579" y="49" on="1"/>
        <pt x="584" y="49" on="0"/>
        <pt x="584" y="41" on="1"/>
        <pt x="584" y="32" on="0"/>
        <pt x="577" y="32" on="1"/>
        <pt x="575" y="32" on="0"/>
        <pt x="573" y="34" on="1"/>
        <pt x="573" y="44" on="1"/>
        <pt x="573" y="49" on="0"/>
      </contour>
      <contour>
        <pt x="618" y="34" on="1"/>
        <pt x="616" y="32" on="0"/>
        <pt x="611" y="32" on="1"/>
        <pt x="604" y="32" on="0"/>
        <pt x="603" y="38" on="1"/>
        <pt x="622" y="38" on="1"/>
        <pt x="622" y="44" on="1"/>
        <pt x="622" y="50" on="0"/>
        <pt x="615" y="55" on="0"/>
        <pt x="610" y="55" on="1"/>
        <pt x="596" y="55" on="0"/>
        <pt x="596" y="40" on="1"/>
        <pt x="596" y="26" on="0"/>
        <pt x="610" y="26" on="1"/>
        <pt x="613" y="26" on="0"/>
        <pt x="619" y="28" on="0"/>
        <pt x="621" y="29" on="1"/>
      </contour>
      <contour>
        <pt x="610" y="49" on="1"/>
        <pt x="616" y="49" on="0"/>
        <pt x="615" y="43" on="1"/>
        <pt x="604" y="43" on="1"/>
        <pt x="604" y="49" on="0"/>
      </contour>
    </TTGlyph>
    <TTGlyph name="A" xMin="8" yMin="0" xMax="637" yMax="710">
      <contour>
        <pt x="457" y="183" on="1"/>
        <pt x="180" y="183" on="1"/>
        <pt x="106" y="0" on="1"/>
        <pt x="8" y="0" on="1"/>
        <pt x="296" y="710" on="1"/>
        <pt x="348" y="710" on="1"/>
        <pt x="637" y="0" on="1"/>
        <pt x="533" y="0" on="1"/>
      </contour>
      <contour>
        <pt x="210" y="267" on="1"/>
        <pt x="428" y="267" on="1"/>
        <pt x="347" y="466" on="1"/>
        <pt x="320" y="573" on="1"/>
        <pt x="318" y="573" on="1"/>
        <pt x="291" y="464" on="1"/>
      </contour>
    </TTGlyph>
    <TTGlyph name="AE" xMin="-25" yMin="0" xMax="861" yMax="700">
      <contour>
        <pt x="429" y="591" on="1"/>
        <pt x="391" y="485" on="1"/>
        <pt x="255" y="273" on="1"/>
        <pt x="433" y="273" on="1"/>
        <pt x="433" y="591" on="1"/>
      </contour>
      <contour>
        <pt x="433" y="189" on="1"/>
        <pt x="203" y="189" on="1"/>
        <pt x="83" y="0" on="1"/>
        <pt x="-25" y="0" on="1"/>
        <pt x="431" y="700" on="1"/>
        <pt x="856" y="700" on="1"/>
        <pt x="856" y="614" on="1"/>
        <pt x="533" y="614" on="1"/>
        <pt x="533" y="401" on="1"/>
        <pt x="828" y="401" on="1"/>
        <pt x="828" y="315" on="1"/>
        <pt x="533" y="315" on="1"/>
        <pt x="533" y="86" on="1"/>
        <pt x="861" y="86" on="1"/>
        <pt x="861" y="0" on="1"/>
        <pt x="433" y="0" on="1"/>
      </contour>
    </TTGlyph>
    <TTGlyph name="Aacute" xMin="8" yMin="0" xMax="637" yMax="870">
      <component glyphName="A" x="0" y="0" flags="0x204"/>
      <component glyphName="uniF6C9" x="205" y="0" flags="0x4"/>
    </TTGlyph>
    <TTGlyph name="Abreve" xMin="8" yMin="0" xMax="637" yMax="872">
      <component glyphName="A" x="0" y="0" flags="0x204"/>
      <component glyphName="uniF406" x="72" y="0" flags="0x4"/>
    </TTGlyph>
    <TTGlyph name="Acircumflex" xMin="8" yMin="0" xMax="637" yMax="870">
      <component glyphName="A" x="0" y="0" flags="0x204"/>
      <component glyphName="uniF408" x="83" y="0" flags="0x4"/>
    </TTGlyph>
    <TTGlyph name="Adieresis" xMin="8" yMin="0" xMax="637" yMax="844">
      <component glyphName="A" x="0" y="0" flags="0x204"/>
      <component glyphName="uniF6CB" x="93" y="0" flags="0x4"/>
    </TTGlyph>
    <TTGlyph name="Agrave" xMin="8" yMin="0" xMax="637" yMax="870">
      <component glyphName="A" x="0" y="0" flags="0x204"/>
      <component glyphName="uniF6CE" x="60" y="0" flags="0x4"/>
    </TTGlyph>
    <TTGlyph name="Amacron" xMin="8" yMin="0" xMax="637" yMax="836">
      <component glyphName="A" x="0" y="0" flags="0x204"/>
      <component glyphName="uniF6D0" x="85" y="0" flags="0x4"/>
    </TTGlyph>
    <TTGlyph name="Aogonek" xMin="8" yMin="-208" xMax="676" yMax="710">
      <contour>
        <pt x="457" y="183" on="1"/>
        <pt x="180" y="183" on="1"/>
        <pt x="106" y="0" on="1"/>
        <pt x="8" y="0" on="1"/>
        <pt x="296" y="710" on="1"/>
        <pt x="348" y="710" on="1"/>
        <pt x="637" y="0" on="1"/>
        <pt x="630" y="0" on="1"/>
        <pt x="596" y="-17" on="0"/>
        <pt x="556" y="-62" on="0"/>
        <pt x="557" y="-92" on="1"/>
        <pt x="558" y="-115" on="0"/>
        <pt x="588" y="-147" on="0"/>
        <pt x="617" y="-147" on="1"/>
        <pt x="627" y="-147" on="0"/>
        <pt x="651" y="-142" on="0"/>
        <pt x="664" y="-137" on="1"/>
        <pt x="676" y="-183" on="1"/>
        <pt x="659" y="-195" on="0"/>
        <pt x="599" y="-208" on="0"/>
        <pt x="572" y="-208" on="1"/>
        <pt x="521" y="-208" on="0"/>
        <pt x="462" y="-159" on="0"/>
        <pt x="462" y="-116" on="1"/>
        <pt x="462" y="-76" on="0"/>
        <pt x="525" y="-17" on="0"/>
        <pt x="578" y="0" on="1"/>
        <pt x="533" y="0" on="1"/>
      </contour>
      <contour>
        <pt x="210" y="267" on="1"/>
        <pt x="428" y="267" on="1"/>
        <pt x="347" y="466" on="1"/>
        <pt x="320" y="573" on="1"/>
        <pt x="318" y="573" on="1"/>
        <pt x="291" y="464" on="1"/>
      </contour>
    </TTGlyph>
    <TTGlyph name="Aring" xMin="8" yMin="0" xMax="637" yMax="855">
      <contour>
        <pt x="205" y="769" on="1"/>
        <pt x="205" y="806" on="0"/>
        <pt x="259" y="855" on="0"/>
        <pt x="323" y="855" on="1"/>
        <pt x="381" y="855" on="0"/>
        <pt x="442" y="811" on="0"/>
        <pt x="442" y="769" on="1"/>
        <pt x="442" y="738" on="0"/>
        <pt x="412" y="706" on="0"/>
        <pt x="398" y="700" on="1"/>
        <pt x="381" y="691" on="0"/>
        <pt x="357" y="687" on="1"/>
        <pt x="637" y="0" on="1"/>
        <pt x="533" y="0" on="1"/>
        <pt x="457" y="183" on="1"/>
        <pt x="180" y="183" on="1"/>
        <pt x="106" y="0" on="1"/>
        <pt x="8" y="0" on="1"/>
        <pt x="287" y="687" on="1"/>
        <pt x="265" y="691" on="0"/>
        <pt x="244" y="700" on="1"/>
        <pt x="234" y="705" on="0"/>
        <pt x="205" y="737" on="0"/>
      </contour>
      <contour>
        <pt x="210" y="267" on="1"/>
        <pt x="428" y="267" on="1"/>
        <pt x="347" y="466" on="1"/>
        <pt x="320" y="573" on="1"/>
        <pt x="318" y="573" on="1"/>
        <pt x="291" y="464" on="1"/>
      </contour>
      <contour>
        <pt x="275" y="769" on="1"/>
        <pt x="275" y="754" on="0"/>
        <pt x="297" y="732" on="0"/>
        <pt x="323" y="732" on="1"/>
        <pt x="372" y="732" on="0"/>
        <pt x="372" y="769" on="1"/>
        <pt x="372" y="787" on="0"/>
        <pt x="348" y="808" on="0"/>
        <pt x="323" y="808" on="1"/>
        <pt x="298" y="808" on="0"/>
        <pt x="275" y="787" on="0"/>
      </contour>
    </TTGlyph>
    <TTGlyph name="Atilde" xMin="8" yMin="0" xMax="637" yMax="846">
      <component glyphName="A" x="0" y="0" flags="0x204"/>
      <component glyphName="uniF40D" x="87" y="0" flags="0x4"/>
    </TTGlyph>
    <TTGlyph name="B" xMin="89" yMin="-9" xMax="582" yMax="709">
      <contour>
        <pt x="559" y="538" on="1"/>
        <pt x="559" y="512" on="0"/>
        <pt x="542" y="461" on="0"/>
        <pt x="507" y="416" on="0"/>
        <pt x="453" y="382" on="0"/>
        <pt x="416" y="374" on="1"/>
        <pt x="416" y="370" on="1"/>
        <pt x="448" y="366" on="0"/>
        <pt x="508" y="342" on="0"/>
        <pt x="554" y="300" on="0"/>
        <pt x="582" y="240" on="0"/>
        <pt x="582" y="199" on="1"/>
        <pt x="582" y="145" on="0"/>
        <pt x="532" y="66" on="0"/>
        <pt x="450" y="15" on="0"/>
        <pt x="347" y="-9" on="0"/>
        <pt x="295" y="-9" on="1"/>
        <pt x="277" y="-9" on="0"/>
        <pt x="225" y="-8" on="0"/>
        <pt x="168" y="-5" on="0"/>
        <pt x="111" y="0" on="0"/>
        <pt x="89" y="5" on="1"/>
        <pt x="89" y="694" on="1"/>
        <pt x="130" y="701" on="0"/>
        <pt x="240" y="709" on="0"/>
        <pt x="303" y="709" on="1"/>
        <pt x="346" y="709" on="0"/>
        <pt x="437" y="694" on="0"/>
        <pt x="511" y="656" on="0"/>
        <pt x="559" y="590" on="0"/>
      </contour>
      <contour>
        <pt x="187" y="82" on="1"/>
        <pt x="194" y="80" on="0"/>
        <pt x="222" y="78" on="0"/>
        <pt x="255" y="76" on="0"/>
        <pt x="288" y="75" on="0"/>
        <pt x="302" y="75" on="1"/>
        <pt x="336" y="75" on="0"/>
        <pt x="399" y="89" on="0"/>
        <pt x="447" y="119" on="0"/>
        <pt x="476" y="165" on="0"/>
        <pt x="476" y="197" on="1"/>
        <pt x="476" y="237" on="0"/>
        <pt x="441" y="284" on="0"/>
        <pt x="385" y="309" on="0"/>
        <pt x="315" y="316" on="0"/>
        <pt x="281" y="316" on="1"/>
        <pt x="187" y="316" on="1"/>
      </contour>
      <contour>
        <pt x="242" y="394" on="1"/>
        <pt x="261" y="394" on="0"/>
        <pt x="311" y="397" on="0"/>
        <pt x="328" y="399" on="1"/>
        <pt x="353" y="406" on="0"/>
        <pt x="398" y="427" on="0"/>
        <pt x="432" y="456" on="0"/>
        <pt x="452" y="495" on="0"/>
        <pt x="452" y="520" on="1"/>
        <pt x="452" y="554" on="0"/>
        <pt x="425" y="595" on="0"/>
        <pt x="381" y="617" on="0"/>
        <pt x="325" y="625" on="0"/>
        <pt x="296" y="625" on="1"/>
        <pt x="261" y="625" on="0"/>
        <pt x="202" y="622" on="0"/>
        <pt x="187" y="620" on="1"/>
        <pt x="187" y="394" on="1"/>
      </contour>
    </TTGlyph>
    <TTGlyph name="C" xMin="58" yMin="-13" xMax="584" yMax="713">
      <contour>
        <pt x="584" y="30" on="1"/>
        <pt x="551" y="6" on="0"/>
        <pt x="449" y="-13" on="0"/>
        <pt x="392" y="-13" on="1"/>
        <pt x="325" y="-13" on="0"/>
        <pt x="204" y="30" on="0"/>
        <pt x="112" y="119" on="0"/>
        <pt x="58" y="256" on="0"/>
        <pt x="58" y="350" on="1"/>
        <pt x="58" y="448" on="0"/>
        <pt x="118" y="586" on="0"/>
        <pt x="214" y="673" on="0"/>
        <pt x="334" y="713" on="0"/>
        <pt x="393" y="713" on="1"/>
        <pt x="459" y="713" on="0"/>
        <pt x="543" y="699" on="0"/>
        <pt x="572" y="688" on="1"/>
        <pt x="550" y="602" on="1"/>
        <pt x="501" y="625" on="0"/>
        <pt x="401" y="625" on="1"/>
        <pt x="356" y="625" on="0"/>
        <pt x="271" y="596" on="0"/>
        <pt x="204" y="531" on="0"/>
        <pt x="164" y="426" on="0"/>
        <pt x="164" y="350" on="1"/>
        <pt x="164" y="282" on="0"/>
        <pt x="202" y="179" on="0"/>
        <pt x="269" y="110" on="0"/>
        <pt x="360" y="75" on="0"/>
        <pt x="414" y="75" on="1"/>
        <pt x="463" y="75" on="0"/>
        <pt x="535" y="93" on="0"/>
        <pt x="560" y="107" on="1"/>
      </contour>
    </TTGlyph>
    <TTGlyph name="Cacute" xMin="58" yMin="-13" xMax="584" yMax="870">
      <component glyphName="C" x="0" y="0" flags="0x204"/>
      <component glyphName="uniF6C9" x="262" y="0" flags="0x4"/>
    </TTGlyph>
    <TTGlyph name="Ccaron" xMin="58" yMin="-13" xMax="584" yMax="870">
      <component glyphName="C" x="0" y="0" flags="0x204"/>
      <component glyphName="uniF6CA" x="151" y="0" flags="0x4"/>
    </TTGlyph>
    <TTGlyph name="Ccedilla" xMin="58" yMin="-223" xMax="584" yMax="713">
      <contour>
        <pt x="584" y="30" on="1"/>
        <pt x="556" y="10" on="0"/>
        <pt x="477" y="-9" on="0"/>
        <pt x="431" y="-12" on="1"/>
        <pt x="407" y="-53" on="1"/>
        <pt x="456" y="-61" on="0"/>
        <pt x="503" y="-97" on="0"/>
        <pt x="503" y="-130" on="1"/>
        <pt x="503" y="-172" on="0"/>
        <pt x="429" y="-223" on="0"/>
        <pt x="363" y="-223" on="1"/>
        <pt x="350" y="-223" on="0"/>
        <pt x="323" y="-221" on="0"/>
        <pt x="309" y="-218" on="1"/>
        <pt x="318" y="-182" on="1"/>
        <pt x="353" y="-184" on="0"/>
        <pt x="393" y="-178" on="0"/>
        <pt x="413" y="-164" on="0"/>
        <pt x="418" y="-147" on="0"/>
        <pt x="418" y="-139" on="1"/>
        <pt x="418" y="-122" on="0"/>
        <pt x="367" y="-103" on="0"/>
        <pt x="319" y="-98" on="1"/>
        <pt x="370" y="-12" on="1"/>
        <pt x="306" y="-9" on="0"/>
        <pt x="193" y="37" on="0"/>
        <pt x="108" y="127" on="0"/>
        <pt x="58" y="260" on="0"/>
        <pt x="58" y="350" on="1"/>
        <pt x="58" y="448" on="0"/>
        <pt x="118" y="586" on="0"/>
        <pt x="214" y="673" on="0"/>
        <pt x="334" y="713" on="0"/>
        <pt x="393" y="713" on="1"/>
        <pt x="459" y="713" on="0"/>
        <pt x="543" y="699" on="0"/>
        <pt x="572" y="688" on="1"/>
        <pt x="550" y="602" on="1"/>
        <pt x="501" y="625" on="0"/>
        <pt x="401" y="625" on="1"/>
        <pt x="356" y="625" on="0"/>
        <pt x="271" y="596" on="0"/>
        <pt x="204" y="531" on="0"/>
        <pt x="164" y="426" on="0"/>
        <pt x="164" y="350" on="1"/>
        <pt x="164" y="282" on="0"/>
        <pt x="202" y="180" on="0"/>
        <pt x="269" y="111" on="0"/>
        <pt x="360" y="76" on="0"/>
        <pt x="414" y="76" on="1"/>
        <pt x="463" y="76" on="0"/>
        <pt x="535" y="93" on="0"/>
        <pt x="560" y="107" on="1"/>
      </contour>
    </TTGlyph>
    <TTGlyph name="Ccircumflex" xMin="58" yMin="-13" xMax="584" yMax="870">
      <component glyphName="C" x="0" y="0" flags="0x204"/>
      <component glyphName="uniF408" x="139" y="0" flags="0x4"/>
    </TTGlyph>
    <TTGlyph name="D" xMin="89" yMin="-10" xMax="657" yMax="709">
      <contour>
        <pt x="89" y="700" on="1"/>
        <pt x="109" y="703" on="0"/>
        <pt x="162" y="706" on="0"/>
        <pt x="219" y="708" on="0"/>
        <pt x="274" y="709" on="0"/>
        <pt x="297" y="709" on="1"/>
        <pt x="389" y="709" on="0"/>
        <pt x="524" y="656" on="0"/>
        <pt x="613" y="562" on="0"/>
        <pt x="657" y="432" on="0"/>
        <pt x="657" y="355" on="1"/>
        <pt x="657" y="285" on="0"/>
        <pt x="616" y="154" on="0"/>
        <pt x="526" y="52" on="0"/>
        <pt x="385" y="-10" on="0"/>
        <pt x="285" y="-10" on="1"/>
        <pt x="268" y="-10" on="0"/>
        <pt x="211" y="-8" on="0"/>
        <pt x="151" y="-6" on="0"/>
        <pt x="100" y="-3" on="0"/>
        <pt x="89" y="-1" on="1"/>
      </contour>
      <contour>
        <pt x="300" y="621" on="1"/>
        <pt x="286" y="621" on="0"/>
        <pt x="254" y="621" on="0"/>
        <pt x="222" y="619" on="0"/>
        <pt x="196" y="617" on="0"/>
        <pt x="189" y="616" on="1"/>
        <pt x="189" y="82" on="1"/>
        <pt x="194" y="81" on="0"/>
        <pt x="223" y="80" on="0"/>
        <pt x="255" y="79" on="0"/>
        <pt x="283" y="78" on="0"/>
        <pt x="289" y="78" on="1"/>
        <pt x="364" y="78" on="0"/>
        <pt x="465" y="125" on="0"/>
        <pt x="526" y="203" on="0"/>
        <pt x="551" y="302" on="0"/>
        <pt x="551" y="355" on="1"/>
        <pt x="551" y="400" on="0"/>
        <pt x="527" y="494" on="0"/>
        <pt x="469" y="571" on="0"/>
        <pt x="373" y="621" on="0"/>
      </contour>
    </TTGlyph>
    <TTGlyph name="Dcaron" xMin="89" yMin="-10" xMax="657" yMax="870">
      <component glyphName="D" x="0" y="0" flags="0x204"/>
      <component glyphName="uniF6CA" x="73" y="0" flags="0x4"/>
    </TTGlyph>
    <TTGlyph name="Dcroat" xMin="0" yMin="-10" xMax="665" yMax="709">
      <component glyphName="Eth" x="0" y="0" flags="0x204"/>
    </TTGlyph>
    <TTGlyph name="E" xMin="89" yMin="0" xMax="517" yMax="700">
      <contour>
        <pt x="89" y="700" on="1"/>
        <pt x="512" y="700" on="1"/>
        <pt x="512" y="614" on="1"/>
        <pt x="189" y="614" on="1"/>
        <pt x="189" y="401" on="1"/>
        <pt x="484" y="401" on="1"/>
        <pt x="484" y="315" on="1"/>
        <pt x="189" y="315" on="1"/>
        <pt x="189" y="86" on="1"/>
        <pt x="517" y="86" on="1"/>
        <pt x="517" y="0" on="1"/>
        <pt x="89" y="0" on="1"/>
      </contour>
    </TTGlyph>
    <TTGlyph name="Eacute" xMin="89" yMin="0" xMax="517" yMax="870">
      <component glyphName="E" x="0" y="0" flags="0x204"/>
      <component glyphName="uniF6C9" x="169" y="0" flags="0x4"/>
    </TTGlyph>
    <TTGlyph name="Ecaron" xMin="89" yMin="0" xMax="517" yMax="870">
      <component glyphName="E" x="0" y="0" flags="0x204"/>
      <component glyphName="uniF6CA" x="55" y="0" flags="0x4"/>
    </TTGlyph>
    <TTGlyph name="Ecircumflex" xMin="89" yMin="0" xMax="517" yMax="870">
      <component glyphName="E" x="0" y="0" flags="0x204"/>
      <component glyphName="uniF408" x="55" y="0" flags="0x4"/>
    </TTGlyph>
    <TTGlyph name="Edieresis" xMin="89" yMin="0" xMax="517" yMax="844">
      <component glyphName="E" x="0" y="0" flags="0x204"/>
      <component glyphName="uniF6CB" x="65" y="0" flags="0x4"/>
    </TTGlyph>
    <TTGlyph name="Edotaccent" xMin="89" yMin="0" xMax="517" yMax="852">
      <component glyphName="E" x="0" y="0" flags="0x204"/>
      <component glyphName="uniF40B" x="169" y="0" flags="0x4"/>
    </TTGlyph>
    <TTGlyph name="Egrave" xMin="89" yMin="0" xMax="517" yMax="870">
      <component glyphName="E" x="0" y="0" flags="0x204"/>
      <component glyphName="uniF6CE" x="42" y="0" flags="0x4"/>
    </TTGlyph>
    <TTGlyph name="Emacron" xMin="89" yMin="0" xMax="517" yMax="836">
      <component glyphName="E" x="0" y="0" flags="0x204"/>
      <component glyphName="uniF6D0" x="58" y="0" flags="0x4"/>
    </TTGlyph>
    <TTGlyph name="Eogonek" xMin="89" yMin="-208" xMax="542" yMax="700">
      <contour>
        <pt x="89" y="700" on="1"/>
        <pt x="512" y="700" on="1"/>
        <pt x="512" y="614" on="1"/>
        <pt x="189" y="614" on="1"/>
        <pt x="189" y="401" on="1"/>
        <pt x="484" y="401" on="1"/>
        <pt x="484" y="315" on="1"/>
        <pt x="189" y="315" on="1"/>
        <pt x="189" y="86" on="1"/>
        <pt x="517" y="86" on="1"/>
        <pt x="517" y="0" on="1"/>
        <pt x="496" y="0" on="1"/>
        <pt x="462" y="-17" on="0"/>
        <pt x="422" y="-62" on="0"/>
        <pt x="423" y="-92" on="1"/>
        <pt x="424" y="-115" on="0"/>
        <pt x="454" y="-147" on="0"/>
        <pt x="483" y="-147" on="1"/>
        <pt x="493" y="-147" on="0"/>
        <pt x="517" y="-142" on="0"/>
        <pt x="530" y="-137" on="1"/>
        <pt x="542" y="-183" on="1"/>
        <pt x="525" y="-195" on="0"/>
        <pt x="465" y="-208" on="0"/>
        <pt x="438" y="-208" on="1"/>
        <pt x="387" y="-208" on="0"/>
        <pt x="328" y="-159" on="0"/>
        <pt x="328" y="-116" on="1"/>
        <pt x="328" y="-76" on="0"/>
        <pt x="391" y="-17" on="0"/>
        <pt x="444" y="0" on="1"/>
        <pt x="89" y="0" on="1"/>
      </contour>
    </TTGlyph>
    <TTGlyph name="Eth" xMin="0" yMin="-10" xMax="665" yMax="709">
      <contour>
        <pt x="0" y="394" on="1"/>
        <pt x="97" y="394" on="1"/>
        <pt x="97" y="700" on="1"/>
        <pt x="117" y="703" on="0"/>
        <pt x="170" y="706" on="0"/>
        <pt x="227" y="708" on="0"/>
        <pt x="282" y="709" on="0"/>
        <pt x="305" y="709" on="1"/>
        <pt x="397" y="709" on="0"/>
        <pt x="532" y="656" on="0"/>
        <pt x="621" y="562" on="0"/>
        <pt x="665" y="432" on="0"/>
        <pt x="665" y="355" on="1"/>
        <pt x="665" y="285" on="0"/>
        <pt x="624" y="154" on="0"/>
        <pt x="534" y="52" on="0"/>
        <pt x="393" y="-10" on="0"/>
        <pt x="293" y="-10" on="1"/>
        <pt x="276" y="-10" on="0"/>
        <pt x="219" y="-8" on="0"/>
        <pt x="159" y="-6" on="0"/>
        <pt x="108" y="-3" on="0"/>
        <pt x="97" y="-1" on="1"/>
        <pt x="97" y="328" on="1"/>
        <pt x="0" y="328" on="1"/>
      </contour>
      <contour>
        <pt x="197" y="394" on="1"/>
        <pt x="357" y="394" on="1"/>
        <pt x="357" y="328" on="1"/>
        <pt x="197" y="328" on="1"/>
        <pt x="197" y="82" on="1"/>
        <pt x="202" y="81" on="0"/>
        <pt x="231" y="80" on="0"/>
        <pt x="263" y="79" on="0"/>
        <pt x="291" y="78" on="0"/>
        <pt x="297" y="78" on="1"/>
        <pt x="372" y="78" on="0"/>
        <pt x="473" y="125" on="0"/>
        <pt x="534" y="203" on="0"/>
        <pt x="559" y="302" on="0"/>
        <pt x="559" y="355" on="1"/>
        <pt x="559" y="400" on="0"/>
        <pt x="535" y="494" on="0"/>
        <pt x="477" y="571" on="0"/>
        <pt x="381" y="621" on="0"/>
        <pt x="308" y="621" on="1"/>
        <pt x="294" y="621" on="0"/>
        <pt x="262" y="621" on="0"/>
        <pt x="230" y="619" on="0"/>
        <pt x="204" y="617" on="0"/>
        <pt x="197" y="616" on="1"/>
      </contour>
    </TTGlyph>
    <TTGlyph name="Euro" xMin="7" yMin="-13" xMax="581" yMax="713">
      <contour>
        <pt x="28" y="462" on="1"/>
        <pt x="97" y="462" on="1"/>
        <pt x="110" y="528" on="0"/>
        <pt x="168" y="623" on="0"/>
        <pt x="248" y="684" on="0"/>
        <pt x="347" y="713" on="0"/>
        <pt x="402" y="713" on="1"/>
        <pt x="459" y="713" on="0"/>
        <pt x="541" y="697" on="0"/>
        <pt x="571" y="686" on="1"/>
        <pt x="544" y="606" on="1"/>
        <pt x="519" y="617" on="0"/>
        <pt x="452" y="629" on="0"/>
        <pt x="404" y="629" on="1"/>
        <pt x="368" y="629" on="0"/>
        <pt x="302" y="611" on="0"/>
        <pt x="248" y="570" on="0"/>
        <pt x="207" y="507" on="0"/>
        <pt x="196" y="462" on="1"/>
        <pt x="501" y="462" on="1"/>
        <pt x="481" y="388" on="1"/>
        <pt x="186" y="388" on="1"/>
        <pt x="185" y="378" on="0"/>
        <pt x="185" y="359" on="0"/>
        <pt x="185" y="349" on="1"/>
        <pt x="185" y="340" on="0"/>
        <pt x="185" y="323" on="0"/>
        <pt x="186" y="315" on="1"/>
        <pt x="459" y="315" on="1"/>
        <pt x="439" y="240" on="1"/>
        <pt x="195" y="240" on="1"/>
        <pt x="237" y="71" on="0"/>
        <pt x="419" y="71" on="1"/>
        <pt x="463" y="71" on="0"/>
        <pt x="532" y="91" on="0"/>
        <pt x="558" y="105" on="1"/>
        <pt x="581" y="31" on="1"/>
        <pt x="548" y="6" on="0"/>
        <pt x="448" y="-13" on="0"/>
        <pt x="400" y="-13" on="1"/>
        <pt x="278" y="-13" on="0"/>
        <pt x="119" y="110" on="0"/>
        <pt x="96" y="240" on="1"/>
        <pt x="7" y="240" on="1"/>
        <pt x="28" y="315" on="1"/>
        <pt x="88" y="315" on="1"/>
        <pt x="87" y="323" on="0"/>
        <pt x="87" y="341" on="0"/>
        <pt x="87" y="350" on="1"/>
        <pt x="87" y="360" on="0"/>
        <pt x="87" y="379" on="0"/>
        <pt x="88" y="389" on="1"/>
        <pt x="7" y="389" on="1"/>
      </contour>
    </TTGlyph>
    <TTGlyph name="F" xMin="89" yMin="0" xMax="512" yMax="700">
      <contour>
        <pt x="89" y="700" on="1"/>
        <pt x="512" y="700" on="1"/>
        <pt x="512" y="614" on="1"/>
        <pt x="189" y="614" on="1"/>
        <pt x="189" y="391" on="1"/>
        <pt x="489" y="391" on="1"/>
        <pt x="489" y="305" on="1"/>
        <pt x="189" y="305" on="1"/>
        <pt x="189" y="0" on="1"/>
        <pt x="89" y="0" on="1"/>
      </contour>
    </TTGlyph>
    <TTGlyph name="G" xMin="58" yMin="-13" xMax="610" yMax="713">
      <contour>
        <pt x="348" y="353" on="1"/>
        <pt x="610" y="353" on="1"/>
        <pt x="610" y="44" on="1"/>
        <pt x="592" y="30" on="0"/>
        <pt x="542" y="9" on="0"/>
        <pt x="485" y="-5" on="0"/>
        <pt x="425" y="-13" on="0"/>
        <pt x="396" y="-13" on="1"/>
        <pt x="324" y="-13" on="0"/>
        <pt x="201" y="30" on="0"/>
        <pt x="110" y="120" on="0"/>
        <pt x="58" y="257" on="0"/>
        <pt x="58" y="350" on="1"/>
        <pt x="58" y="447" on="0"/>
        <pt x="121" y="585" on="0"/>
        <pt x="221" y="673" on="0"/>
        <pt x="344" y="713" on="0"/>
        <pt x="405" y="713" on="1"/>
        <pt x="471" y="713" on="0"/>
        <pt x="558" y="698" on="0"/>
        <pt x="587" y="687" on="1"/>
        <pt x="563" y="602" on="1"/>
        <pt x="511" y="625" on="0"/>
        <pt x="413" y="625" on="1"/>
        <pt x="368" y="625" on="0"/>
        <pt x="279" y="597" on="0"/>
        <pt x="208" y="532" on="0"/>
        <pt x="164" y="427" on="0"/>
        <pt x="164" y="350" on="1"/>
        <pt x="164" y="279" on="0"/>
        <pt x="201" y="175" on="0"/>
        <pt x="267" y="107" on="0"/>
        <pt x="357" y="75" on="0"/>
        <pt x="410" y="75" on="1"/>
        <pt x="443" y="75" on="0"/>
        <pt x="504" y="88" on="0"/>
        <pt x="527" y="100" on="1"/>
        <pt x="527" y="277" on="1"/>
        <pt x="348" y="295" on="1"/>
      </contour>
    </TTGlyph>
    <TTGlyph name="Gbreve" xMin="58" yMin="-13" xMax="610" yMax="872">
      <component glyphName="G" x="0" y="0" flags="0x204"/>
      <component glyphName="uniF406" x="131" y="0" flags="0x4"/>
    </TTGlyph>
    <TTGlyph name="Gcircumflex" xMin="58" yMin="-13" xMax="610" yMax="870">
      <component glyphName="G" x="0" y="0" flags="0x204"/>
      <component glyphName="uniF408" x="150" y="0" flags="0x4"/>
    </TTGlyph>
    <TTGlyph name="Gcommaaccent" xMin="58" yMin="-251" xMax="610" yMax="713">
      <component glyphName="G" x="0" y="0" flags="0x204"/>
      <component glyphName="uniF6C3" x="258" y="0" flags="0x4"/>
    </TTGlyph>
    <TTGlyph name="H" xMin="89" yMin="0" xMax="644" yMax="700">
      <contour>
        <pt x="544" y="313" on="1"/>
        <pt x="189" y="313" on="1"/>
        <pt x="189" y="0" on="1"/>
        <pt x="89" y="0" on="1"/>
        <pt x="89" y="700" on="1"/>
        <pt x="189" y="700" on="1"/>
        <pt x="189" y="401" on="1"/>
        <pt x="544" y="401" on="1"/>
        <pt x="544" y="700" on="1"/>
        <pt x="644" y="700" on="1"/>
        <pt x="644" y="0" on="1"/>
        <pt x="544" y="0" on="1"/>
      </contour>
    </TTGlyph>
    <TTGlyph name="Hbar" xMin="7" yMin="0" xMax="734" yMax="700">
      <contour>
        <pt x="7" y="590" on="1"/>
        <pt x="94" y="590" on="1"/>
        <pt x="94" y="700" on="1"/>
        <pt x="194" y="700" on="1"/>
        <pt x="194" y="590" on="1"/>
        <pt x="549" y="590" on="1"/>
        <pt x="549" y="700" on="1"/>
        <pt x="649" y="700" on="1"/>
        <pt x="649" y="590" on="1"/>
        <pt x="734" y="590" on="1"/>
        <pt x="734" y="520" on="1"/>
        <pt x="649" y="520" on="1"/>
        <pt x="649" y="0" on="1"/>
        <pt x="549" y="0" on="1"/>
        <pt x="549" y="313" on="1"/>
        <pt x="194" y="313" on="1"/>
        <pt x="194" y="0" on="1"/>
        <pt x="94" y="0" on="1"/>
        <pt x="94" y="520" on="1"/>
        <pt x="7" y="520" on="1"/>
      </contour>
      <contour>
        <pt x="549" y="401" on="1"/>
        <pt x="549" y="520" on="1"/>
        <pt x="194" y="520" on="1"/>
        <pt x="194" y="401" on="1"/>
      </contour>
    </TTGlyph>
    <TTGlyph name="Hcircumflex" xMin="89" yMin="0" xMax="644" yMax="870">
      <component glyphName="H" x="0" y="0" flags="0x204"/>
      <component glyphName="uniF408" x="125" y="0" flags="0x4"/>
    </TTGlyph>
    <TTGlyph name="I" xMin="69" yMin="0" xMax="329" yMax="700">
      <contour>
        <pt x="149" y="634" on="1"/>
        <pt x="69" y="634" on="1"/>
        <pt x="69" y="700" on="1"/>
        <pt x="329" y="700" on="1"/>
        <pt x="329" y="634" on="1"/>
        <pt x="249" y="634" on="1"/>
        <pt x="249" y="66" on="1"/>
        <pt x="329" y="66" on="1"/>
        <pt x="329" y="0" on="1"/>
        <pt x="69" y="0" on="1"/>
        <pt x="69" y="66" on="1"/>
        <pt x="149" y="66" on="1"/>
      </contour>
    </TTGlyph>
    <TTGlyph name="Iacute" xMin="69" yMin="0" xMax="385" yMax="870">
      <component glyphName="I" x="0" y="0" flags="0x204"/>
      <component glyphName="uniF6C9" x="66" y="0" flags="0x4"/>
    </TTGlyph>
    <TTGlyph name="Icircumflex" xMin="21" yMin="0" xMax="379" yMax="870">
      <component glyphName="I" x="0" y="0" flags="0x204"/>
      <component glyphName="uniF408" x="-39" y="0" flags="0x4"/>
    </TTGlyph>
    <TTGlyph name="Idieresis" xMin="31" yMin="0" xMax="369" yMax="844">
      <component glyphName="I" x="0" y="0" flags="0x204"/>
      <component glyphName="uniF6CB" x="-29" y="0" flags="0x4"/>
    </TTGlyph>
    <TTGlyph name="Idotaccent" xMin="69" yMin="0" xMax="329" yMax="852">
      <component glyphName="I" x="0" y="0" flags="0x204"/>
      <component glyphName="uniF40B" x="67" y="0" flags="0x4"/>
    </TTGlyph>
    <TTGlyph name="Igrave" xMin="27" yMin="0" xMax="329" yMax="870">
      <component glyphName="I" x="0" y="0" flags="0x204"/>
      <component glyphName="uniF6CE" x="-33" y="0" flags="0x4"/>
    </TTGlyph>
    <TTGlyph name="Imacron" xMin="25" yMin="0" xMax="375" yMax="836">
      <component glyphName="I" x="0" y="0" flags="0x204"/>
      <component glyphName="uniF6D0" x="-35" y="0" flags="0x4"/>
    </TTGlyph>
    <TTGlyph name="Iogonek" xMin="69" yMin="-208" xMax="329" yMax="700">
      <contour>
        <pt x="149" y="634" on="1"/>
        <pt x="69" y="634" on="1"/>
        <pt x="69" y="700" on="1"/>
        <pt x="329" y="700" on="1"/>
        <pt x="329" y="634" on="1"/>
        <pt x="249" y="634" on="1"/>
        <pt x="249" y="66" on="1"/>
        <pt x="329" y="66" on="1"/>
        <pt x="329" y="0" on="1"/>
        <pt x="253" y="0" on="1"/>
        <pt x="221" y="-17" on="0"/>
        <pt x="184" y="-63" on="0"/>
        <pt x="185" y="-92" on="1"/>
        <pt x="186" y="-115" on="0"/>
        <pt x="216" y="-147" on="0"/>
        <pt x="245" y="-147" on="1"/>
        <pt x="255" y="-147" on="0"/>
        <pt x="279" y="-142" on="0"/>
        <pt x="292" y="-137" on="1"/>
        <pt x="304" y="-183" on="1"/>
        <pt x="287" y="-195" on="0"/>
        <pt x="227" y="-208" on="0"/>
        <pt x="200" y="-208" on="1"/>
        <pt x="149" y="-208" on="0"/>
        <pt x="90" y="-159" on="0"/>
        <pt x="90" y="-116" on="1"/>
        <pt x="90" y="-77" on="0"/>
        <pt x="149" y="-17" on="0"/>
        <pt x="199" y="0" on="1"/>
        <pt x="69" y="0" on="1"/>
        <pt x="69" y="66" on="1"/>
        <pt x="149" y="66" on="1"/>
      </contour>
    </TTGlyph>
    <TTGlyph name="J" xMin="-35" yMin="-10" xMax="225" yMax="700">
      <contour>
        <pt x="125" y="700" on="1"/>
        <pt x="225" y="700" on="1"/>
        <pt x="225" y="160" on="1"/>
        <pt x="225" y="82" on="0"/>
        <pt x="144" y="-10" on="0"/>
        <pt x="65" y="-10" on="1"/>
        <pt x="55" y="-10" on="0"/>
        <pt x="28" y="-8" on="0"/>
        <pt x="0" y="-3" on="0"/>
        <pt x="-26" y="3" on="0"/>
        <pt x="-35" y="7" on="1"/>
        <pt x="-16" y="90" on="1"/>
        <pt x="12" y="78" on="0"/>
        <pt x="51" y="78" on="1"/>
        <pt x="96" y="78" on="0"/>
        <pt x="125" y="136" on="0"/>
        <pt x="125" y="187" on="1"/>
      </contour>
    </TTGlyph>
    <TTGlyph name="Jcircumflex" xMin="-35" yMin="-10" xMax="352" yMax="870">
      <component glyphName="J" x="0" y="0" flags="0x204"/>
      <component glyphName="uniF408" x="-66" y="0" flags="0x4"/>
    </TTGlyph>
    <TTGlyph name="K" xMin="89" yMin="0" xMax="635" yMax="700">
      <contour>
        <pt x="238" y="318" on="1"/>
        <pt x="189" y="318" on="1"/>
        <pt x="189" y="0" on="1"/>
        <pt x="89" y="0" on="1"/>
        <pt x="89" y="700" on="1"/>
        <pt x="189" y="700" on="1"/>
        <pt x="189" y="378" on="1"/>
        <pt x="235" y="392" on="1"/>
        <pt x="487" y="700" on="1"/>
        <pt x="601" y="700" on="1"/>
        <pt x="349" y="400" on="1"/>
        <pt x="302" y="366" on="1"/>
        <pt x="357" y="326" on="1"/>
        <pt x="635" y="0" on="1"/>
        <pt x="509" y="0" on="1"/>
      </contour>
    </TTGlyph>
    <TTGlyph name="Kcommaaccent" xMin="89" yMin="-251" xMax="635" yMax="700">
      <component glyphName="K" x="0" y="0" flags="0x204"/>
      <component glyphName="uniF6C3" x="191" y="0" flags="0x4"/>
    </TTGlyph>
    <TTGlyph name="L" xMin="89" yMin="0" xMax="547" yMax="700">
      <contour>
        <pt x="547" y="0" on="1"/>
        <pt x="89" y="0" on="1"/>
        <pt x="89" y="700" on="1"/>
        <pt x="189" y="700" on="1"/>
        <pt x="189" y="88" on="1"/>
        <pt x="547" y="88" on="1"/>
      </contour>
    </TTGlyph>
    <TTGlyph name="Lacute" xMin="89" yMin="0" xMax="547" yMax="870">
      <component glyphName="L" x="0" y="0" flags="0x204"/>
      <component glyphName="uniF6C9" x="67" y="0" flags="0x4"/>
    </TTGlyph>
    <TTGlyph name="Lcaron" xMin="89" yMin="0" xMax="547" yMax="700">
      <component glyphName="L" x="0" y="0" flags="0x204"/>
      <component glyphName="caron.l" x="119" y="0" flags="0x4"/>
    </TTGlyph>
    <TTGlyph name="Lcommaaccent" xMin="89" yMin="-251" xMax="547" yMax="700">
      <component glyphName="L" x="0" y="0" flags="0x204"/>
      <component glyphName="uniF6C3" x="148" y="0" flags="0x4"/>
    </TTGlyph>
    <TTGlyph name="Lslash" xMin="15" yMin="0" xMax="551" yMax="700">
      <contour>
        <pt x="15" y="293" on="1"/>
        <pt x="93" y="348" on="1"/>
        <pt x="93" y="700" on="1"/>
        <pt x="193" y="700" on="1"/>
        <pt x="193" y="418" on="1"/>
        <pt x="307" y="498" on="1"/>
        <pt x="307" y="409" on="1"/>
        <pt x="193" y="330" on="1"/>
        <pt x="193" y="88" on="1"/>
        <pt x="551" y="88" on="1"/>
        <pt x="551" y="0" on="1"/>
        <pt x="93" y="0" on="1"/>
        <pt x="93" y="261" on="1"/>
        <pt x="15" y="208" on="1"/>
      </contour>
    </TTGlyph>
    <TTGlyph name="M" xMin="89" yMin="0" xMax="779" yMax="700">
      <contour>
        <pt x="679" y="451" on="1"/>
        <pt x="690" y="563" on="1"/>
        <pt x="686" y="563" on="1"/>
        <pt x="643" y="466" on="1"/>
        <pt x="448" y="156" on="1"/>
        <pt x="418" y="156" on="1"/>
        <pt x="213" y="467" on="1"/>
        <pt x="172" y="562" on="1"/>
        <pt x="167" y="562" on="1"/>
        <pt x="183" y="452" on="1"/>
        <pt x="183" y="0" on="1"/>
        <pt x="89" y="0" on="1"/>
        <pt x="89" y="700" on="1"/>
        <pt x="164" y="700" on="1"/>
        <pt x="401" y="343" on="1"/>
        <pt x="438" y="267" on="1"/>
        <pt x="440" y="267" on="1"/>
        <pt x="475" y="345" on="1"/>
        <pt x="700" y="700" on="1"/>
        <pt x="779" y="700" on="1"/>
        <pt x="779" y="0" on="1"/>
        <pt x="679" y="0" on="1"/>
      </contour>
    </TTGlyph>
    <TTGlyph name="N" xMin="89" yMin="-10" xMax="646" yMax="710">
      <contour>
        <pt x="235" y="445" on="1"/>
        <pt x="175" y="543" on="1"/>
        <pt x="171" y="543" on="1"/>
        <pt x="183" y="445" on="1"/>
        <pt x="183" y="0" on="1"/>
        <pt x="89" y="0" on="1"/>
        <pt x="89" y="710" on="1"/>
        <pt x="145" y="710" on="1"/>
        <pt x="502" y="256" on="1"/>
        <pt x="559" y="163" on="1"/>
        <pt x="564" y="163" on="1"/>
        <pt x="552" y="256" on="1"/>
        <pt x="552" y="700" on="1"/>
        <pt x="646" y="700" on="1"/>
        <pt x="646" y="-10" on="1"/>
        <pt x="590" y="-10" on="1"/>
      </contour>
    </TTGlyph>
    <TTGlyph name="Nacute" xMin="89" yMin="-10" xMax="646" yMax="870">
      <component glyphName="N" x="0" y="0" flags="0x204"/>
      <component glyphName="uniF6C9" x="248" y="0" flags="0x4"/>
    </TTGlyph>
    <TTGlyph name="Ncaron" xMin="89" yMin="-10" xMax="646" yMax="870">
      <component glyphName="N" x="0" y="0" flags="0x204"/>
      <component glyphName="uniF6CA" x="132" y="0" flags="0x4"/>
    </TTGlyph>
    <TTGlyph name="Ncommaaccent" xMin="89" yMin="-251" xMax="646" yMax="710">
      <component glyphName="N" x="0" y="0" flags="0x204"/>
      <component glyphName="uniF6C3" x="240" y="0" flags="0x4"/>
    </TTGlyph>
    <TTGlyph name="Ntilde" xMin="89" yMin="-10" xMax="646" yMax="846">
      <component glyphName="N" x="0" y="0" flags="0x204"/>
      <component glyphName="uniF40D" x="130" y="0" flags="0x4"/>
    </TTGlyph>
    <TTGlyph name="O" xMin="58" yMin="-13" xMax="689" yMax="713">
      <contour>
        <pt x="58" y="350" on="1"/>
        <pt x="58" y="436" on="0"/>
        <pt x="101" y="571" on="0"/>
        <pt x="182" y="664" on="0"/>
        <pt x="299" y="713" on="0"/>
        <pt x="373" y="713" on="1"/>
        <pt x="452" y="713" on="0"/>
        <pt x="571" y="660" on="0"/>
        <pt x="650" y="565" on="0"/>
        <pt x="689" y="431" on="0"/>
        <pt x="689" y="350" on="1"/>
        <pt x="689" y="264" on="0"/>
        <pt x="646" y="129" on="0"/>
        <pt x="564" y="36" on="0"/>
        <pt x="447" y="-13" on="0"/>
        <pt x="373" y="-13" on="1"/>
        <pt x="293" y="-13" on="0"/>
        <pt x="175" y="40" on="0"/>
        <pt x="97" y="135" on="0"/>
        <pt x="58" y="269" on="0"/>
      </contour>
      <contour>
        <pt x="164" y="350" on="1"/>
        <pt x="164" y="293" on="0"/>
        <pt x="189" y="193" on="0"/>
        <pt x="240" y="117" on="0"/>
        <pt x="319" y="73" on="0"/>
        <pt x="373" y="73" on="1"/>
        <pt x="470" y="73" on="0"/>
        <pt x="583" y="207" on="0"/>
        <pt x="583" y="350" on="1"/>
        <pt x="583" y="406" on="0"/>
        <pt x="558" y="506" on="0"/>
        <pt x="507" y="582" on="0"/>
        <pt x="428" y="627" on="0"/>
        <pt x="373" y="627" on="1"/>
        <pt x="277" y="627" on="0"/>
        <pt x="164" y="491" on="0"/>
      </contour>
    </TTGlyph>
    <TTGlyph name="OE" xMin="58" yMin="-13" xMax="951" yMax="713">
      <contour>
        <pt x="522" y="605" on="1"/>
        <pt x="493" y="616" on="0"/>
        <pt x="415" y="627" on="0"/>
        <pt x="373" y="627" on="1"/>
        <pt x="276" y="627" on="0"/>
        <pt x="164" y="491" on="0"/>
        <pt x="164" y="350" on="1"/>
        <pt x="164" y="293" on="0"/>
        <pt x="189" y="193" on="0"/>
        <pt x="241" y="117" on="0"/>
        <pt x="324" y="73" on="0"/>
        <pt x="381" y="73" on="1"/>
        <pt x="413" y="73" on="0"/>
        <pt x="479" y="78" on="0"/>
        <pt x="522" y="91" on="1"/>
      </contour>
      <contour>
        <pt x="522" y="0" on="1"/>
        <pt x="496" y="-6" on="0"/>
        <pt x="420" y="-13" on="0"/>
        <pt x="374" y="-13" on="1"/>
        <pt x="293" y="-13" on="0"/>
        <pt x="174" y="39" on="0"/>
        <pt x="96" y="135" on="0"/>
        <pt x="58" y="269" on="0"/>
        <pt x="58" y="350" on="1"/>
        <pt x="58" y="524" on="0"/>
        <pt x="224" y="713" on="0"/>
        <pt x="374" y="713" on="1"/>
        <pt x="423" y="713" on="0"/>
        <pt x="490" y="705" on="0"/>
        <pt x="522" y="700" on="1"/>
        <pt x="945" y="700" on="1"/>
        <pt x="945" y="614" on="1"/>
        <pt x="622" y="614" on="1"/>
        <pt x="622" y="401" on="1"/>
        <pt x="918" y="401" on="1"/>
        <pt x="918" y="315" on="1"/>
        <pt x="622" y="315" on="1"/>
        <pt x="622" y="86" on="1"/>
        <pt x="951" y="86" on="1"/>
        <pt x="951" y="0" on="1"/>
      </contour>
    </TTGlyph>
    <TTGlyph name="Oacute" xMin="58" yMin="-13" xMax="689" yMax="870">
      <component glyphName="O" x="0" y="0" flags="0x204"/>
      <component glyphName="uniF6C9" x="257" y="0" flags="0x4"/>
    </TTGlyph>
    <TTGlyph name="Ocircumflex" xMin="58" yMin="-13" xMax="689" yMax="870">
      <component glyphName="O" x="0" y="0" flags="0x204"/>
      <component glyphName="uniF408" x="132" y="0" flags="0x4"/>
    </TTGlyph>
    <TTGlyph name="Odieresis" xMin="58" yMin="-13" xMax="689" yMax="844">
      <component glyphName="O" x="0" y="0" flags="0x204"/>
      <component glyphName="uniF6CB" x="144" y="0" flags="0x4"/>
    </TTGlyph>
    <TTGlyph name="Ograve" xMin="58" yMin="-13" xMax="689" yMax="870">
      <component glyphName="O" x="0" y="0" flags="0x204"/>
      <component glyphName="uniF6CE" x="130" y="0" flags="0x4"/>
    </TTGlyph>
    <TTGlyph name="Ohungarumlaut" xMin="58" yMin="-13" xMax="689" yMax="850">
      <component glyphName="O" x="0" y="0" flags="0x204"/>
      <component glyphName="uniF6CF" x="197" y="0" flags="0x4"/>
    </TTGlyph>
    <TTGlyph name="Omacron" xMin="58" yMin="-13" xMax="689" yMax="836">
      <component glyphName="O" x="0" y="0" flags="0x204"/>
      <component glyphName="uniF6D0" x="145" y="0" flags="0x4"/>
    </TTGlyph>
    <TTGlyph name="Oslash" xMin="58" yMin="-13" xMax="689" yMax="714">
      <contour>
        <pt x="132" y="92" on="1"/>
        <pt x="94" y="140" on="0"/>
        <pt x="58" y="271" on="0"/>
        <pt x="58" y="350" on="1"/>
        <pt x="58" y="436" on="0"/>
        <pt x="101" y="571" on="0"/>
        <pt x="182" y="664" on="0"/>
        <pt x="299" y="713" on="0"/>
        <pt x="373" y="713" on="1"/>
        <pt x="432" y="713" on="0"/>
        <pt x="526" y="684" on="0"/>
        <pt x="563" y="657" on="1"/>
        <pt x="607" y="714" on="1"/>
        <pt x="668" y="671" on="1"/>
        <pt x="617" y="604" on="1"/>
        <pt x="653" y="556" on="0"/>
        <pt x="689" y="428" on="0"/>
        <pt x="689" y="350" on="1"/>
        <pt x="689" y="264" on="0"/>
        <pt x="646" y="129" on="0"/>
        <pt x="564" y="36" on="0"/>
        <pt x="447" y="-13" on="0"/>
        <pt x="373" y="-13" on="1"/>
        <pt x="260" y="-13" on="0"/>
        <pt x="187" y="39" on="1"/>
        <pt x="147" y="-13" on="1"/>
        <pt x="86" y="32" on="1"/>
      </contour>
      <contour>
        <pt x="503" y="578" on="1"/>
        <pt x="479" y="601" on="0"/>
        <pt x="414" y="627" on="0"/>
        <pt x="373" y="627" on="1"/>
        <pt x="277" y="627" on="0"/>
        <pt x="164" y="491" on="0"/>
        <pt x="164" y="350" on="1"/>
        <pt x="164" y="302" on="0"/>
        <pt x="181" y="216" on="0"/>
        <pt x="199" y="181" on="1"/>
      </contour>
      <contour>
        <pt x="247" y="118" on="1"/>
        <pt x="271" y="97" on="0"/>
        <pt x="334" y="73" on="0"/>
        <pt x="373" y="73" on="1"/>
        <pt x="470" y="73" on="0"/>
        <pt x="583" y="207" on="0"/>
        <pt x="583" y="350" on="1"/>
        <pt x="583" y="396" on="0"/>
        <pt x="566" y="480" on="0"/>
        <pt x="549" y="515" on="1"/>
      </contour>
    </TTGlyph>
    <TTGlyph name="Otilde" xMin="58" yMin="-13" xMax="689" yMax="846">
      <component glyphName="O" x="0" y="0" flags="0x204"/>
      <component glyphName="uniF40D" x="135" y="0" flags="0x4"/>
    </TTGlyph>
    <TTGlyph name="P" xMin="89" yMin="0" xMax="575" yMax="709">
      <contour>
        <pt x="89" y="693" on="1"/>
        <pt x="131" y="702" on="0"/>
        <pt x="230" y="709" on="0"/>
        <pt x="278" y="709" on="1"/>
        <pt x="329" y="709" on="0"/>
        <pt x="434" y="691" on="0"/>
        <pt x="520" y="643" on="0"/>
        <pt x="575" y="558" on="0"/>
        <pt x="575" y="491" on="1"/>
        <pt x="575" y="428" on="0"/>
        <pt x="525" y="339" on="0"/>
        <pt x="442" y="283" on="0"/>
        <pt x="335" y="257" on="0"/>
        <pt x="278" y="257" on="1"/>
        <pt x="272" y="257" on="0"/>
        <pt x="247" y="258" on="0"/>
        <pt x="220" y="259" on="0"/>
        <pt x="195" y="261" on="0"/>
        <pt x="189" y="262" on="1"/>
        <pt x="189" y="0" on="1"/>
        <pt x="89" y="0" on="1"/>
      </contour>
      <contour>
        <pt x="281" y="623" on="1"/>
        <pt x="254" y="623" on="0"/>
        <pt x="203" y="621" on="0"/>
        <pt x="189" y="617" on="1"/>
        <pt x="189" y="348" on="1"/>
        <pt x="194" y="346" on="0"/>
        <pt x="217" y="345" on="0"/>
        <pt x="242" y="343" on="0"/>
        <pt x="265" y="343" on="0"/>
        <pt x="271" y="343" on="1"/>
        <pt x="307" y="343" on="0"/>
        <pt x="377" y="354" on="0"/>
        <pt x="434" y="386" on="0"/>
        <pt x="469" y="444" on="0"/>
        <pt x="469" y="490" on="1"/>
        <pt x="469" y="530" on="0"/>
        <pt x="435" y="582" on="0"/>
        <pt x="381" y="612" on="0"/>
        <pt x="314" y="623" on="0"/>
      </contour>
    </TTGlyph>
    <TTGlyph name="Q" xMin="58" yMin="-193" xMax="771" yMax="713">
      <contour>
        <pt x="771" y="-181" on="1"/>
        <pt x="745" y="-188" on="0"/>
        <pt x="693" y="-193" on="0"/>
        <pt x="667" y="-193" on="1"/>
        <pt x="612" y="-193" on="0"/>
        <pt x="507" y="-172" on="0"/>
        <pt x="410" y="-147" on="0"/>
        <pt x="320" y="-126" on="0"/>
        <pt x="280" y="-126" on="1"/>
        <pt x="255" y="-126" on="0"/>
        <pt x="231" y="-132" on="1"/>
        <pt x="231" y="-46" on="1"/>
        <pt x="261" y="-40" on="0"/>
        <pt x="291" y="-40" on="1"/>
        <pt x="336" y="-40" on="0"/>
        <pt x="427" y="-61" on="0"/>
        <pt x="520" y="-85" on="0"/>
        <pt x="619" y="-106" on="0"/>
        <pt x="673" y="-106" on="1"/>
        <pt x="696" y="-106" on="0"/>
        <pt x="745" y="-101" on="0"/>
        <pt x="771" y="-95" on="1"/>
      </contour>
      <contour>
        <pt x="58" y="350" on="1"/>
        <pt x="58" y="436" on="0"/>
        <pt x="101" y="571" on="0"/>
        <pt x="182" y="664" on="0"/>
        <pt x="299" y="713" on="0"/>
        <pt x="373" y="713" on="1"/>
        <pt x="452" y="713" on="0"/>
        <pt x="571" y="660" on="0"/>
        <pt x="650" y="565" on="0"/>
        <pt x="689" y="431" on="0"/>
        <pt x="689" y="350" on="1"/>
        <pt x="689" y="264" on="0"/>
        <pt x="646" y="129" on="0"/>
        <pt x="564" y="36" on="0"/>
        <pt x="447" y="-13" on="0"/>
        <pt x="373" y="-13" on="1"/>
        <pt x="293" y="-13" on="0"/>
        <pt x="175" y="40" on="0"/>
        <pt x="97" y="135" on="0"/>
        <pt x="58" y="269" on="0"/>
      </contour>
      <contour>
        <pt x="164" y="350" on="1"/>
        <pt x="164" y="293" on="0"/>
        <pt x="189" y="193" on="0"/>
        <pt x="240" y="117" on="0"/>
        <pt x="319" y="73" on="0"/>
        <pt x="373" y="73" on="1"/>
        <pt x="470" y="73" on="0"/>
        <pt x="583" y="207" on="0"/>
        <pt x="583" y="350" on="1"/>
        <pt x="583" y="406" on="0"/>
        <pt x="558" y="506" on="0"/>
        <pt x="507" y="582" on="0"/>
        <pt x="428" y="627" on="0"/>
        <pt x="373" y="627" on="1"/>
        <pt x="277" y="627" on="0"/>
        <pt x="164" y="491" on="0"/>
      </contour>
    </TTGlyph>
    <TTGlyph name="R" xMin="89" yMin="0" xMax="613" yMax="709">
      <contour>
        <pt x="89" y="693" on="1"/>
        <pt x="110" y="697" on="0"/>
        <pt x="161" y="703" on="0"/>
        <pt x="213" y="707" on="0"/>
        <pt x="265" y="709" on="0"/>
        <pt x="288" y="709" on="1"/>
        <pt x="338" y="709" on="0"/>
        <pt x="431" y="689" on="0"/>
        <pt x="502" y="643" on="0"/>
        <pt x="545" y="569" on="0"/>
        <pt x="545" y="515" on="1"/>
        <pt x="545" y="473" on="0"/>
        <pt x="519" y="405" on="0"/>
        <pt x="473" y="353" on="0"/>
        <pt x="410" y="318" on="0"/>
        <pt x="373" y="309" on="1"/>
        <pt x="425" y="274" on="1"/>
        <pt x="613" y="0" on="1"/>
        <pt x="498" y="0" on="1"/>
        <pt x="290" y="295" on="1"/>
        <pt x="189" y="309" on="1"/>
        <pt x="189" y="0" on="1"/>
        <pt x="89" y="0" on="1"/>
      </contour>
      <contour>
        <pt x="291" y="623" on="1"/>
        <pt x="277" y="623" on="0"/>
        <pt x="248" y="623" on="0"/>
        <pt x="220" y="621" on="0"/>
        <pt x="196" y="619" on="0"/>
        <pt x="189" y="617" on="1"/>
        <pt x="189" y="375" on="1"/>
        <pt x="271" y="375" on="1"/>
        <pt x="307" y="375" on="0"/>
        <pt x="368" y="390" on="0"/>
        <pt x="413" y="421" on="0"/>
        <pt x="439" y="471" on="0"/>
        <pt x="439" y="507" on="1"/>
        <pt x="439" y="561" on="0"/>
        <pt x="363" y="623" on="0"/>
      </contour>
    </TTGlyph>
    <TTGlyph name="Racute" xMin="89" yMin="0" xMax="613" yMax="870">
      <component glyphName="R" x="0" y="0" flags="0x204"/>
      <component glyphName="uniF6C9" x="158" y="0" flags="0x4"/>
    </TTGlyph>
    <TTGlyph name="Rcaron" xMin="89" yMin="0" xMax="613" yMax="870">
      <component glyphName="R" x="0" y="0" flags="0x204"/>
      <component glyphName="uniF6CA" x="39" y="0" flags="0x4"/>
    </TTGlyph>
    <TTGlyph name="Rcommaaccent" xMin="89" yMin="-251" xMax="613" yMax="709">
      <component glyphName="R" x="0" y="0" flags="0x204"/>
      <component glyphName="uniF6C3" x="199" y="0" flags="0x4"/>
    </TTGlyph>
    <TTGlyph name="S" xMin="48" yMin="-13" xMax="533" yMax="713">
      <contour>
        <pt x="433" y="184" on="1"/>
        <pt x="433" y="225" on="0"/>
        <pt x="379" y="273" on="0"/>
        <pt x="297" y="308" on="0"/>
        <pt x="203" y="339" on="0"/>
        <pt x="121" y="387" on="0"/>
        <pt x="67" y="463" on="0"/>
        <pt x="67" y="524" on="1"/>
        <pt x="67" y="609" on="0"/>
        <pt x="192" y="713" on="0"/>
        <pt x="308" y="713" on="1"/>
        <pt x="375" y="713" on="0"/>
        <pt x="487" y="693" on="0"/>
        <pt x="519" y="677" on="1"/>
        <pt x="488" y="593" on="1"/>
        <pt x="463" y="606" on="0"/>
        <pt x="363" y="627" on="0"/>
        <pt x="303" y="627" on="1"/>
        <pt x="235" y="627" on="0"/>
        <pt x="167" y="569" on="0"/>
        <pt x="167" y="531" on="1"/>
        <pt x="167" y="492" on="0"/>
        <pt x="221" y="444" on="0"/>
        <pt x="303" y="407" on="0"/>
        <pt x="397" y="373" on="0"/>
        <pt x="479" y="323" on="0"/>
        <pt x="533" y="250" on="0"/>
        <pt x="533" y="193" on="1"/>
        <pt x="533" y="146" on="0"/>
        <pt x="497" y="70" on="0"/>
        <pt x="429" y="16" on="0"/>
        <pt x="333" y="-13" on="0"/>
        <pt x="272" y="-13" on="1"/>
        <pt x="190" y="-13" on="0"/>
        <pt x="77" y="12" on="0"/>
        <pt x="48" y="26" on="1"/>
        <pt x="81" y="113" on="1"/>
        <pt x="106" y="100" on="0"/>
        <pt x="207" y="73" on="0"/>
        <pt x="268" y="73" on="1"/>
        <pt x="303" y="73" on="0"/>
        <pt x="363" y="86" on="0"/>
        <pt x="408" y="113" on="0"/>
        <pt x="433" y="155" on="0"/>
      </contour>
    </TTGlyph>
    <TTGlyph name="Sacute" xMin="48" yMin="-13" xMax="533" yMax="870">
      <component glyphName="S" x="0" y="0" flags="0x204"/>
      <component glyphName="uniF6C9" x="182" y="0" flags="0x4"/>
    </TTGlyph>
    <TTGlyph name="Scaron" xMin="48" yMin="-13" xMax="533" yMax="870">
      <component glyphName="S" x="0" y="0" flags="0x204"/>
      <component glyphName="uniF6CA" x="86" y="0" flags="0x4"/>
    </TTGlyph>
    <TTGlyph name="Scedilla" xMin="48" yMin="-223" xMax="533" yMax="713">
      <contour>
        <pt x="81" y="113" on="1"/>
        <pt x="106" y="100" on="0"/>
        <pt x="207" y="73" on="0"/>
        <pt x="268" y="73" on="1"/>
        <pt x="303" y="73" on="0"/>
        <pt x="363" y="86" on="0"/>
        <pt x="408" y="113" on="0"/>
        <pt x="433" y="155" on="0"/>
        <pt x="433" y="184" on="1"/>
        <pt x="433" y="225" on="0"/>
        <pt x="379" y="273" on="0"/>
        <pt x="297" y="308" on="0"/>
        <pt x="203" y="339" on="0"/>
        <pt x="121" y="387" on="0"/>
        <pt x="67" y="463" on="0"/>
        <pt x="67" y="524" on="1"/>
        <pt x="67" y="609" on="0"/>
        <pt x="192" y="713" on="0"/>
        <pt x="308" y="713" on="1"/>
        <pt x="375" y="713" on="0"/>
        <pt x="487" y="693" on="0"/>
        <pt x="519" y="677" on="1"/>
        <pt x="488" y="593" on="1"/>
        <pt x="463" y="606" on="0"/>
        <pt x="363" y="627" on="0"/>
        <pt x="303" y="627" on="1"/>
        <pt x="235" y="627" on="0"/>
        <pt x="167" y="569" on="0"/>
        <pt x="167" y="531" on="1"/>
        <pt x="167" y="492" on="0"/>
        <pt x="221" y="444" on="0"/>
        <pt x="303" y="407" on="0"/>
        <pt x="397" y="373" on="0"/>
        <pt x="479" y="323" on="0"/>
        <pt x="533" y="250" on="0"/>
        <pt x="533" y="193" on="1"/>
        <pt x="533" y="107" on="0"/>
        <pt x="419" y="0" on="0"/>
        <pt x="317" y="-10" on="1"/>
        <pt x="292" y="-53" on="1"/>
        <pt x="341" y="-61" on="0"/>
        <pt x="388" y="-97" on="0"/>
        <pt x="388" y="-130" on="1"/>
        <pt x="388" y="-172" on="0"/>
        <pt x="314" y="-223" on="0"/>
        <pt x="248" y="-223" on="1"/>
        <pt x="235" y="-223" on="0"/>
        <pt x="208" y="-221" on="0"/>
        <pt x="194" y="-218" on="1"/>
        <pt x="203" y="-182" on="1"/>
        <pt x="238" y="-184" on="0"/>
        <pt x="278" y="-178" on="0"/>
        <pt x="298" y="-164" on="0"/>
        <pt x="303" y="-147" on="0"/>
        <pt x="303" y="-139" on="1"/>
        <pt x="303" y="-122" on="0"/>
        <pt x="252" y="-103" on="0"/>
        <pt x="204" y="-98" on="1"/>
        <pt x="255" y="-13" on="1"/>
        <pt x="180" y="-11" on="0"/>
        <pt x="76" y="13" on="0"/>
        <pt x="48" y="26" on="1"/>
      </contour>
    </TTGlyph>
    <TTGlyph name="Scircumflex" xMin="48" yMin="-13" xMax="533" yMax="870">
      <component glyphName="S" x="0" y="0" flags="0x204"/>
      <component glyphName="uniF408" x="65" y="0" flags="0x4"/>
    </TTGlyph>
    <TTGlyph name="Scommaaccent" xMin="48" yMin="-251" xMax="533" yMax="713">
      <component glyphName="S" x="0" y="0" flags="0x204"/>
      <component glyphName="uniF6C3" x="162" y="0" flags="0x4"/>
    </TTGlyph>
    <TTGlyph name="T" xMin="19" yMin="0" xMax="591" yMax="700">
      <contour>
        <pt x="591" y="612" on="1"/>
        <pt x="355" y="612" on="1"/>
        <pt x="355" y="0" on="1"/>
        <pt x="255" y="0" on="1"/>
        <pt x="255" y="612" on="1"/>
        <pt x="19" y="612" on="1"/>
        <pt x="19" y="700" on="1"/>
        <pt x="591" y="700" on="1"/>
      </contour>
    </TTGlyph>
    <TTGlyph name="Tcaron" xMin="19" yMin="0" xMax="591" yMax="870">
      <component glyphName="T" x="0" y="0" flags="0x204"/>
      <component glyphName="uniF6CA" x="68" y="0" flags="0x4"/>
    </TTGlyph>
    <TTGlyph name="Tcedilla" xMin="19" yMin="-223" xMax="591" yMax="700">
      <contour>
        <pt x="255" y="0" on="1"/>
        <pt x="255" y="612" on="1"/>
        <pt x="19" y="612" on="1"/>
        <pt x="19" y="700" on="1"/>
        <pt x="591" y="700" on="1"/>
        <pt x="591" y="612" on="1"/>
        <pt x="355" y="612" on="1"/>
        <pt x="355" y="0" on="1"/>
        <pt x="337" y="0" on="1"/>
        <pt x="305" y="-53" on="1"/>
        <pt x="354" y="-61" on="0"/>
        <pt x="401" y="-97" on="0"/>
        <pt x="401" y="-130" on="1"/>
        <pt x="401" y="-172" on="0"/>
        <pt x="327" y="-223" on="0"/>
        <pt x="261" y="-223" on="1"/>
        <pt x="248" y="-223" on="0"/>
        <pt x="221" y="-221" on="0"/>
        <pt x="207" y="-218" on="1"/>
        <pt x="216" y="-182" on="1"/>
        <pt x="251" y="-184" on="0"/>
        <pt x="291" y="-178" on="0"/>
        <pt x="311" y="-164" on="0"/>
        <pt x="316" y="-147" on="0"/>
        <pt x="316" y="-139" on="1"/>
        <pt x="316" y="-122" on="0"/>
        <pt x="265" y="-103" on="0"/>
        <pt x="217" y="-98" on="1"/>
        <pt x="276" y="0" on="1"/>
      </contour>
    </TTGlyph>
    <TTGlyph name="Tcommaaccent" xMin="19" yMin="-251" xMax="591" yMax="700">
      <component glyphName="T" x="0" y="0" flags="0x204"/>
      <component glyphName="uniF6C3" x="177" y="0" flags="0x4"/>
    </TTGlyph>
    <TTGlyph name="Thorn" xMin="89" yMin="0" xMax="575" yMax="700">
      <contour>
        <pt x="89" y="700" on="1"/>
        <pt x="189" y="700" on="1"/>
        <pt x="189" y="626" on="1"/>
        <pt x="232" y="629" on="0"/>
        <pt x="278" y="629" on="1"/>
        <pt x="329" y="629" on="0"/>
        <pt x="434" y="611" on="0"/>
        <pt x="520" y="563" on="0"/>
        <pt x="575" y="478" on="0"/>
        <pt x="575" y="411" on="1"/>
        <pt x="575" y="348" on="0"/>
        <pt x="525" y="259" on="0"/>
        <pt x="442" y="203" on="0"/>
        <pt x="335" y="177" on="0"/>
        <pt x="278" y="177" on="1"/>
        <pt x="272" y="177" on="0"/>
        <pt x="247" y="178" on="0"/>
        <pt x="220" y="179" on="0"/>
        <pt x="195" y="181" on="0"/>
        <pt x="189" y="182" on="1"/>
        <pt x="189" y="0" on="1"/>
        <pt x="89" y="0" on="1"/>
      </contour>
      <contour>
        <pt x="189" y="268" on="1"/>
        <pt x="194" y="266" on="0"/>
        <pt x="217" y="265" on="0"/>
        <pt x="242" y="263" on="0"/>
        <pt x="265" y="263" on="0"/>
        <pt x="271" y="263" on="1"/>
        <pt x="307" y="263" on="0"/>
        <pt x="377" y="274" on="0"/>
        <pt x="434" y="306" on="0"/>
        <pt x="469" y="364" on="0"/>
        <pt x="469" y="410" on="1"/>
        <pt x="469" y="450" on="0"/>
        <pt x="435" y="502" on="0"/>
        <pt x="381" y="532" on="0"/>
        <pt x="314" y="543" on="0"/>
        <pt x="281" y="543" on="1"/>
        <pt x="254" y="543" on="0"/>
        <pt x="203" y="541" on="0"/>
        <pt x="189" y="537" on="1"/>
      </contour>
    </TTGlyph>
    <TTGlyph name="U" xMin="89" yMin="-9" xMax="621" yMax="700">
      <contour>
        <pt x="527" y="700" on="1"/>
        <pt x="621" y="700" on="1"/>
        <pt x="621" y="243" on="1"/>
        <pt x="621" y="178" on="0"/>
        <pt x="584" y="84" on="0"/>
        <pt x="516" y="21" on="0"/>
        <pt x="423" y="-9" on="0"/>
        <pt x="366" y="-9" on="1"/>
        <pt x="231" y="-9" on="0"/>
        <pt x="89" y="108" on="0"/>
        <pt x="89" y="223" on="1"/>
        <pt x="89" y="700" on="1"/>
        <pt x="189" y="700" on="1"/>
        <pt x="189" y="261" on="1"/>
        <pt x="189" y="159" on="0"/>
        <pt x="278" y="79" on="0"/>
        <pt x="365" y="79" on="1"/>
        <pt x="449" y="79" on="0"/>
        <pt x="527" y="167" on="0"/>
        <pt x="527" y="264" on="1"/>
      </contour>
    </TTGlyph>
    <TTGlyph name="Uacute" xMin="89" yMin="-9" xMax="621" yMax="870">
      <component glyphName="U" x="0" y="0" flags="0x204"/>
      <component glyphName="uniF6C9" x="237" y="0" flags="0x4"/>
    </TTGlyph>
    <TTGlyph name="Ubreve" xMin="89" yMin="-9" xMax="621" yMax="872">
      <component glyphName="U" x="0" y="0" flags="0x204"/>
      <component glyphName="uniF406" x="105" y="0" flags="0x4"/>
    </TTGlyph>
    <TTGlyph name="Ucircumflex" xMin="89" yMin="-9" xMax="621" yMax="870">
      <component glyphName="U" x="0" y="0" flags="0x204"/>
      <component glyphName="uniF408" x="120" y="0" flags="0x4"/>
    </TTGlyph>
    <TTGlyph name="Udieresis" xMin="89" yMin="-9" xMax="621" yMax="844">
      <component glyphName="U" x="0" y="0" flags="0x204"/>
      <component glyphName="uniF6CB" x="129" y="0" flags="0x4"/>
    </TTGlyph>
    <TTGlyph name="Ugrave" xMin="89" yMin="-9" xMax="621" yMax="870">
      <component glyphName="U" x="0" y="0" flags="0x204"/>
      <component glyphName="uniF6CE" x="127" y="0" flags="0x4"/>
    </TTGlyph>
    <TTGlyph name="Uhungarumlaut" xMin="89" yMin="-9" xMax="621" yMax="850">
      <component glyphName="U" x="0" y="0" flags="0x204"/>
      <component glyphName="uniF6CF" x="167" y="0" flags="0x4"/>
    </TTGlyph>
    <TTGlyph name="Umacron" xMin="89" yMin="-9" xMax="621" yMax="836">
      <component glyphName="U" x="0" y="0" flags="0x204"/>
      <component glyphName="uniF6D0" x="124" y="0" flags="0x4"/>
    </TTGlyph>
    <TTGlyph name="Uogonek" xMin="88" yMin="-208" xMax="620" yMax="700">
      <contour>
        <pt x="526" y="700" on="1"/>
        <pt x="620" y="700" on="1"/>
        <pt x="620" y="243" on="1"/>
        <pt x="620" y="150" on="0"/>
        <pt x="546" y="37" on="0"/>
        <pt x="482" y="11" on="1"/>
        <pt x="450" y="-5" on="0"/>
        <pt x="404" y="-51" on="0"/>
        <pt x="405" y="-92" on="1"/>
        <pt x="406" y="-115" on="0"/>
        <pt x="436" y="-147" on="0"/>
        <pt x="465" y="-147" on="1"/>
        <pt x="475" y="-147" on="0"/>
        <pt x="499" y="-142" on="0"/>
        <pt x="512" y="-137" on="1"/>
        <pt x="524" y="-183" on="1"/>
        <pt x="507" y="-195" on="0"/>
        <pt x="447" y="-208" on="0"/>
        <pt x="420" y="-208" on="1"/>
        <pt x="369" y="-208" on="0"/>
        <pt x="310" y="-157" on="0"/>
        <pt x="310" y="-114" on="1"/>
        <pt x="310" y="-78" on="0"/>
        <pt x="343" y="-26" on="0"/>
        <pt x="372" y="-9" on="1"/>
        <pt x="365" y="-9" on="1"/>
        <pt x="230" y="-9" on="0"/>
        <pt x="88" y="108" on="0"/>
        <pt x="88" y="223" on="1"/>
        <pt x="88" y="700" on="1"/>
        <pt x="188" y="700" on="1"/>
        <pt x="188" y="261" on="1"/>
        <pt x="188" y="159" on="0"/>
        <pt x="277" y="79" on="0"/>
        <pt x="364" y="79" on="1"/>
        <pt x="448" y="79" on="0"/>
        <pt x="526" y="167" on="0"/>
        <pt x="526" y="264" on="1"/>
      </contour>
    </TTGlyph>
    <TTGlyph name="Uring" xMin="89" yMin="-9" xMax="621" yMax="855">
      <component glyphName="U" x="0" y="0" flags="0x204"/>
      <component glyphName="uniF40C" x="183" y="0" flags="0x4"/>
    </TTGlyph>
    <TTGlyph name="V" xMin="-3" yMin="-10" xMax="631" yMax="700">
      <contour>
        <pt x="296" y="234" on="1"/>
        <pt x="322" y="125" on="1"/>
        <pt x="324" y="125" on="1"/>
        <pt x="351" y="236" on="1"/>
        <pt x="531" y="700" on="1"/>
        <pt x="631" y="700" on="1"/>
        <pt x="341" y="-10" on="1"/>
        <pt x="291" y="-10" on="1"/>
        <pt x="-3" y="700" on="1"/>
        <pt x="107" y="700" on="1"/>
      </contour>
    </TTGlyph>
    <TTGlyph name="W" xMin="8" yMin="-10" xMax="905" yMax="700">
      <contour>
        <pt x="247" y="246" on="1"/>
        <pt x="263" y="129" on="1"/>
        <pt x="265" y="129" on="1"/>
        <pt x="283" y="248" on="1"/>
        <pt x="438" y="700" on="1"/>
        <pt x="488" y="700" on="1"/>
        <pt x="644" y="246" on="1"/>
        <pt x="662" y="129" on="1"/>
        <pt x="664" y="129" on="1"/>
        <pt x="683" y="248" on="1"/>
        <pt x="807" y="700" on="1"/>
        <pt x="905" y="700" on="1"/>
        <pt x="692" y="-10" on="1"/>
        <pt x="635" y="-10" on="1"/>
        <pt x="482" y="445" on="1"/>
        <pt x="461" y="551" on="1"/>
        <pt x="456" y="551" on="1"/>
        <pt x="436" y="444" on="1"/>
        <pt x="283" y="-10" on="1"/>
        <pt x="225" y="-10" on="1"/>
        <pt x="8" y="700" on="1"/>
        <pt x="113" y="700" on="1"/>
      </contour>
    </TTGlyph>
    <TTGlyph name="X" xMin="27" yMin="0" xMax="651" yMax="700">
      <contour>
        <pt x="280" y="356" on="1"/>
        <pt x="49" y="700" on="1"/>
        <pt x="168" y="700" on="1"/>
        <pt x="319" y="470" on="1"/>
        <pt x="346" y="412" on="1"/>
        <pt x="372" y="470" on="1"/>
        <pt x="530" y="700" on="1"/>
        <pt x="640" y="700" on="1"/>
        <pt x="402" y="363" on="1"/>
        <pt x="651" y="0" on="1"/>
        <pt x="534" y="0" on="1"/>
        <pt x="367" y="244" on="1"/>
        <pt x="336" y="305" on="1"/>
        <pt x="308" y="244" on="1"/>
        <pt x="137" y="0" on="1"/>
        <pt x="27" y="0" on="1"/>
      </contour>
    </TTGlyph>
    <TTGlyph name="Y" xMin="7" yMin="0" xMax="610" yMax="700">
      <contour>
        <pt x="261" y="274" on="1"/>
        <pt x="7" y="700" on="1"/>
        <pt x="124" y="700" on="1"/>
        <pt x="299" y="403" on="1"/>
        <pt x="316" y="339" on="1"/>
        <pt x="318" y="339" on="1"/>
        <pt x="337" y="405" on="1"/>
        <pt x="504" y="700" on="1"/>
        <pt x="610" y="700" on="1"/>
        <pt x="361" y="275" on="1"/>
        <pt x="361" y="0" on="1"/>
        <pt x="261" y="0" on="1"/>
      </contour>
    </TTGlyph>
    <TTGlyph name="Yacute" xMin="7" yMin="0" xMax="610" yMax="870">
      <component glyphName="Y" x="0" y="0" flags="0x204"/>
      <component glyphName="uniF6C9" x="197" y="0" flags="0x4"/>
    </TTGlyph>
    <TTGlyph name="Ydieresis" xMin="7" yMin="0" xMax="610" yMax="844">
      <component glyphName="Y" x="0" y="0" flags="0x204"/>
      <component glyphName="uniF6CB" x="82" y="0" flags="0x4"/>
    </TTGlyph>
    <TTGlyph name="Z" xMin="39" yMin="0" xMax="557" yMax="700">
      <contour>
        <pt x="39" y="88" on="1"/>
        <pt x="416" y="572" on="1"/>
        <pt x="465" y="612" on="1"/>
        <pt x="39" y="612" on="1"/>
        <pt x="39" y="700" on="1"/>
        <pt x="557" y="700" on="1"/>
        <pt x="557" y="612" on="1"/>
        <pt x="177" y="125" on="1"/>
        <pt x="130" y="88" on="1"/>
        <pt x="557" y="88" on="1"/>
        <pt x="557" y="0" on="1"/>
        <pt x="39" y="0" on="1"/>
      </contour>
    </TTGlyph>
    <TTGlyph name="Zacute" xMin="39" yMin="0" xMax="557" yMax="870">
      <component glyphName="Z" x="0" y="0" flags="0x204"/>
      <component glyphName="uniF6C9" x="166" y="0" flags="0x4"/>
    </TTGlyph>
    <TTGlyph name="Zcaron" xMin="39" yMin="0" xMax="557" yMax="870">
      <component glyphName="Z" x="0" y="0" flags="0x204"/>
      <component glyphName="uniF6CA" x="48" y="0" flags="0x4"/>
    </TTGlyph>
    <TTGlyph name="Zdotaccent" xMin="39" yMin="0" xMax="557" yMax="852">
      <component glyphName="Z" x="0" y="0" flags="0x204"/>
      <component glyphName="uniF40B" x="167" y="0" flags="0x4"/>
    </TTGlyph>
    <TTGlyph name="a" xMin="45" yMin="-8" xMax="498" yMax="535">
      <contour>
        <pt x="82" y="492" on="1"/>
        <pt x="172" y="535" on="0"/>
        <pt x="305" y="535" on="1"/>
        <pt x="365" y="535" on="0"/>
        <pt x="438" y="504" on="0"/>
        <pt x="478" y="456" on="0"/>
        <pt x="491" y="397" on="0"/>
        <pt x="491" y="368" on="1"/>
        <pt x="491" y="313" on="0"/>
        <pt x="483" y="202" on="0"/>
        <pt x="483" y="137" on="1"/>
        <pt x="483" y="99" on="0"/>
        <pt x="490" y="28" on="0"/>
        <pt x="498" y="-2" on="1"/>
        <pt x="431" y="-2" on="1"/>
        <pt x="406" y="78" on="1"/>
        <pt x="396" y="78" on="1"/>
        <pt x="385" y="63" on="0"/>
        <pt x="353" y="32" on="0"/>
        <pt x="309" y="8" on="0"/>
        <pt x="252" y="-8" on="0"/>
        <pt x="215" y="-8" on="1"/>
        <pt x="178" y="-8" on="0"/>
        <pt x="116" y="13" on="0"/>
        <pt x="71" y="51" on="0"/>
        <pt x="45" y="106" on="0"/>
        <pt x="45" y="140" on="1"/>
        <pt x="45" y="185" on="0"/>
        <pt x="84" y="251" on="0"/>
        <pt x="146" y="293" on="0"/>
        <pt x="225" y="313" on="0"/>
        <pt x="264" y="313" on="1"/>
        <pt x="295" y="313" on="0"/>
        <pt x="338" y="311" on="0"/>
        <pt x="367" y="308" on="0"/>
        <pt x="387" y="305" on="0"/>
        <pt x="395" y="304" on="1"/>
        <pt x="397" y="319" on="0"/>
        <pt x="399" y="341" on="0"/>
        <pt x="399" y="358" on="1"/>
        <pt x="399" y="386" on="0"/>
        <pt x="387" y="424" on="0"/>
        <pt x="360" y="447" on="0"/>
        <pt x="314" y="457" on="0"/>
        <pt x="281" y="457" on="1"/>
        <pt x="262" y="457" on="0"/>
        <pt x="216" y="451" on="0"/>
        <pt x="170" y="440" on="0"/>
        <pt x="125" y="424" on="0"/>
        <pt x="107" y="415" on="1"/>
      </contour>
      <contour>
        <pt x="395" y="238" on="1"/>
        <pt x="387" y="239" on="0"/>
        <pt x="369" y="243" on="0"/>
        <pt x="342" y="245" on="0"/>
        <pt x="305" y="247" on="0"/>
        <pt x="278" y="247" on="1"/>
        <pt x="216" y="247" on="0"/>
        <pt x="143" y="203" on="0"/>
        <pt x="143" y="150" on="1"/>
        <pt x="143" y="110" on="0"/>
        <pt x="200" y="70" on="0"/>
        <pt x="245" y="70" on="1"/>
        <pt x="278" y="70" on="0"/>
        <pt x="329" y="87" on="0"/>
        <pt x="366" y="112" on="0"/>
        <pt x="389" y="143" on="0"/>
        <pt x="395" y="158" on="1"/>
      </contour>
    </TTGlyph>
    <TTGlyph name="aacute" xMin="45" yMin="-8" xMax="498" yMax="720">
      <component glyphName="a" x="0" y="0" flags="0x204"/>
      <component glyphName="acute" x="143" y="0" flags="0x4"/>
    </TTGlyph>
    <TTGlyph name="abreve" xMin="45" yMin="-8" xMax="498" yMax="759">
      <component glyphName="a" x="0" y="0" flags="0x204"/>
      <component glyphName="breve" x="45" y="0" flags="0x4"/>
    </TTGlyph>
    <TTGlyph name="acircumflex" xMin="45" yMin="-8" xMax="498" yMax="773">
      <component glyphName="a" x="0" y="0" flags="0x204"/>
      <component glyphName="circumflex" x="66" y="0" flags="0x4"/>
    </TTGlyph>
    <TTGlyph name="acute" xMin="60" yMin="570" xMax="228" yMax="720">
      <contour>
        <pt x="124" y="720" on="1"/>
        <pt x="228" y="720" on="1"/>
        <pt x="228" y="697" on="1"/>
        <pt x="116" y="570" on="1"/>
        <pt x="60" y="570" on="1"/>
      </contour>
    </TTGlyph>
    <TTGlyph name="acutecomb" xMin="-271" yMin="570" xMax="-103" yMax="720">
      <component glyphName="acute" x="-331" y="0" flags="0x4"/>
    </TTGlyph>
    <TTGlyph name="adieresis" xMin="45" yMin="-8" xMax="498" yMax="709">
      <component glyphName="a" x="0" y="0" flags="0x204"/>
      <component glyphName="dieresis" x="51" y="0" flags="0x4"/>
    </TTGlyph>
    <TTGlyph name="ae" xMin="45" yMin="-14" xMax="866" yMax="540">
      <contour>
        <pt x="397" y="236" on="1"/>
        <pt x="380" y="238" on="0"/>
        <pt x="343" y="237" on="0"/>
        <pt x="326" y="237" on="1"/>
        <pt x="290" y="237" on="0"/>
        <pt x="224" y="229" on="0"/>
        <pt x="173" y="209" on="0"/>
        <pt x="143" y="175" on="0"/>
        <pt x="143" y="149" on="1"/>
        <pt x="143" y="113" on="0"/>
        <pt x="200" y="68" on="0"/>
        <pt x="245" y="68" on="1"/>
        <pt x="278" y="68" on="0"/>
        <pt x="328" y="84" on="0"/>
        <pt x="365" y="108" on="0"/>
        <pt x="390" y="137" on="0"/>
        <pt x="397" y="151" on="1"/>
      </contour>
      <contour>
        <pt x="421" y="92" on="1"/>
        <pt x="406" y="74" on="0"/>
        <pt x="366" y="38" on="0"/>
        <pt x="316" y="10" on="0"/>
        <pt x="253" y="-8" on="0"/>
        <pt x="215" y="-8" on="1"/>
        <pt x="178" y="-8" on="0"/>
        <pt x="116" y="12" on="0"/>
        <pt x="71" y="50" on="0"/>
        <pt x="45" y="105" on="0"/>
        <pt x="45" y="139" on="1"/>
        <pt x="45" y="184" on="0"/>
        <pt x="86" y="246" on="0"/>
        <pt x="161" y="283" on="0"/>
        <pt x="266" y="300" on="0"/>
        <pt x="329" y="300" on="1"/>
        <pt x="344" y="300" on="0"/>
        <pt x="381" y="299" on="0"/>
        <pt x="398" y="301" on="1"/>
        <pt x="398" y="304" on="1"/>
        <pt x="401" y="328" on="0"/>
        <pt x="401" y="357" on="1"/>
        <pt x="401" y="413" on="0"/>
        <pt x="347" y="457" on="0"/>
        <pt x="281" y="457" on="1"/>
        <pt x="263" y="457" on="0"/>
        <pt x="218" y="452" on="0"/>
        <pt x="171" y="443" on="0"/>
        <pt x="126" y="430" on="0"/>
        <pt x="108" y="423" on="1"/>
        <pt x="83" y="489" on="1"/>
        <pt x="125" y="510" on="0"/>
        <pt x="241" y="535" on="0"/>
        <pt x="306" y="535" on="1"/>
        <pt x="363" y="535" on="0"/>
        <pt x="443" y="497" on="0"/>
        <pt x="465" y="465" on="1"/>
        <pt x="481" y="484" on="0"/>
        <pt x="524" y="512" on="0"/>
        <pt x="572" y="531" on="0"/>
        <pt x="624" y="540" on="0"/>
        <pt x="648" y="540" on="1"/>
        <pt x="688" y="540" on="0"/>
        <pt x="766" y="523" on="0"/>
        <pt x="828" y="477" on="0"/>
        <pt x="866" y="393" on="0"/>
        <pt x="866" y="327" on="1"/>
        <pt x="866" y="313" on="0"/>
        <pt x="865" y="278" on="0"/>
        <pt x="862" y="252" on="1"/>
        <pt x="486" y="252" on="1"/>
        <pt x="487" y="207" on="0"/>
        <pt x="508" y="136" on="0"/>
        <pt x="553" y="87" on="0"/>
        <pt x="624" y="61" on="0"/>
        <pt x="674" y="61" on="1"/>
        <pt x="712" y="61" on="0"/>
        <pt x="788" y="85" on="0"/>
        <pt x="813" y="104" on="1"/>
        <pt x="846" y="43" on="1"/>
        <pt x="812" y="18" on="0"/>
        <pt x="704" y="-14" on="0"/>
        <pt x="648" y="-14" on="1"/>
        <pt x="578" y="-14" on="0"/>
        <pt x="461" y="42" on="0"/>
        <pt x="432" y="92" on="1"/>
      </contour>
      <contour>
        <pt x="777" y="318" on="1"/>
        <pt x="778" y="358" on="0"/>
        <pt x="761" y="413" on="0"/>
        <pt x="727" y="447" on="0"/>
        <pt x="679" y="462" on="0"/>
        <pt x="649" y="462" on="1"/>
        <pt x="580" y="462" on="0"/>
        <pt x="500" y="396" on="0"/>
        <pt x="490" y="318" on="1"/>
      </contour>
    </TTGlyph>
    <TTGlyph name="afii10017" xMin="8" yMin="0" xMax="637" yMax="710">
      <component glyphName="A" x="0" y="0" flags="0x204"/>
    </TTGlyph>
    <TTGlyph name="afii10018" xMin="89" yMin="-9" xMax="566" yMax="700">
      <contour>
        <pt x="89" y="700" on="1"/>
        <pt x="513" y="700" on="1"/>
        <pt x="513" y="612" on="1"/>
        <pt x="189" y="612" on="1"/>
        <pt x="189" y="422" on="1"/>
        <pt x="207" y="425" on="0"/>
        <pt x="260" y="431" on="0"/>
        <pt x="286" y="431" on="1"/>
        <pt x="342" y="431" on="0"/>
        <pt x="443" y="411" on="0"/>
        <pt x="520" y="363" on="0"/>
        <pt x="566" y="283" on="0"/>
        <pt x="566" y="223" on="1"/>
        <pt x="566" y="163" on="0"/>
        <pt x="519" y="76" on="0"/>
        <pt x="441" y="19" on="0"/>
        <pt x="337" y="-9" on="0"/>
        <pt x="280" y="-9" on="1"/>
        <pt x="262" y="-9" on="0"/>
        <pt x="213" y="-8" on="0"/>
        <pt x="161" y="-4" on="0"/>
        <pt x="110" y="2" on="0"/>
        <pt x="89" y="7" on="1"/>
      </contour>
      <contour>
        <pt x="292" y="77" on="1"/>
        <pt x="326" y="77" on="0"/>
        <pt x="387" y="93" on="0"/>
        <pt x="433" y="126" on="0"/>
        <pt x="460" y="176" on="0"/>
        <pt x="460" y="210" on="1"/>
        <pt x="460" y="254" on="0"/>
        <pt x="430" y="307" on="0"/>
        <pt x="379" y="336" on="0"/>
        <pt x="312" y="345" on="0"/>
        <pt x="276" y="345" on="1"/>
        <pt x="266" y="345" on="0"/>
        <pt x="241" y="343" on="0"/>
        <pt x="215" y="341" on="0"/>
        <pt x="194" y="337" on="0"/>
        <pt x="189" y="336" on="1"/>
        <pt x="189" y="83" on="1"/>
        <pt x="196" y="81" on="0"/>
        <pt x="220" y="79" on="0"/>
        <pt x="248" y="77" on="0"/>
        <pt x="278" y="77" on="0"/>
      </contour>
    </TTGlyph>
    <TTGlyph name="afii10019" xMin="89" yMin="-9" xMax="582" yMax="709">
      <component glyphName="B" x="0" y="0" flags="0x204"/>
    </TTGlyph>
    <TTGlyph name="afii10020" xMin="89" yMin="0" xMax="504" yMax="700">
      <contour>
        <pt x="504" y="612" on="1"/>
        <pt x="189" y="612" on="1"/>
        <pt x="189" y="0" on="1"/>
        <pt x="89" y="0" on="1"/>
        <pt x="89" y="700" on="1"/>
        <pt x="504" y="700" on="1"/>
      </contour>
    </TTGlyph>
    <TTGlyph name="afii10021" xMin="5" yMin="-128" xMax="708" yMax="700">
      <contour>
        <pt x="708" y="-128" on="1"/>
        <pt x="639" y="-128" on="1"/>
        <pt x="622" y="0" on="1"/>
        <pt x="90" y="0" on="1"/>
        <pt x="74" y="-128" on="1"/>
        <pt x="5" y="-128" on="1"/>
        <pt x="5" y="88" on="1"/>
        <pt x="83" y="88" on="1"/>
        <pt x="92" y="99" on="0"/>
        <pt x="129" y="178" on="0"/>
        <pt x="166" y="325" on="0"/>
        <pt x="192" y="547" on="0"/>
        <pt x="191" y="700" on="1"/>
        <pt x="608" y="700" on="1"/>
        <pt x="608" y="88" on="1"/>
        <pt x="708" y="88" on="1"/>
      </contour>
      <contour>
        <pt x="508" y="88" on="1"/>
        <pt x="508" y="612" on="1"/>
        <pt x="283" y="612" on="1"/>
        <pt x="279" y="506" on="0"/>
        <pt x="262" y="339" on="0"/>
        <pt x="237" y="211" on="0"/>
        <pt x="206" y="119" on="0"/>
        <pt x="189" y="88" on="1"/>
      </contour>
    </TTGlyph>
    <TTGlyph name="afii10022" xMin="89" yMin="0" xMax="517" yMax="700">
      <component glyphName="E" x="0" y="0" flags="0x204"/>
    </TTGlyph>
    <TTGlyph name="afii10023" xMin="89" yMin="0" xMax="517" yMax="844">
      <component glyphName="E" x="0" y="0" flags="0x204"/>
      <component glyphName="uniF6CB" x="65" y="0" flags="0x4"/>
    </TTGlyph>
    <TTGlyph name="afii10024" xMin="-2" yMin="0" xMax="890" yMax="700">
      <contour>
        <pt x="392" y="700" on="1"/>
        <pt x="486" y="700" on="1"/>
        <pt x="486" y="378" on="1"/>
        <pt x="532" y="392" on="1"/>
        <pt x="745" y="700" on="1"/>
        <pt x="856" y="700" on="1"/>
        <pt x="640" y="396" on="1"/>
        <pt x="595" y="363" on="1"/>
        <pt x="651" y="322" on="1"/>
        <pt x="890" y="0" on="1"/>
        <pt x="769" y="0" on="1"/>
        <pt x="535" y="320" on="1"/>
        <pt x="486" y="320" on="1"/>
        <pt x="486" y="0" on="1"/>
        <pt x="392" y="0" on="1"/>
        <pt x="392" y="332" on="1"/>
        <pt x="346" y="318" on="1"/>
        <pt x="113" y="0" on="1"/>
        <pt x="-2" y="0" on="1"/>
        <pt x="234" y="312" on="1"/>
        <pt x="287" y="350" on="1"/>
        <pt x="236" y="386" on="1"/>
        <pt x="13" y="700" on="1"/>
        <pt x="129" y="700" on="1"/>
        <pt x="343" y="390" on="1"/>
        <pt x="392" y="390" on="1"/>
      </contour>
    </TTGlyph>
    <TTGlyph name="afii10025" xMin="44" yMin="-13" xMax="532" yMax="712">
      <contour>
        <pt x="149" y="327" on="1"/>
        <pt x="149" y="405" on="1"/>
        <pt x="166" y="405" on="1"/>
        <pt x="175" y="405" on="0"/>
        <pt x="204" y="405" on="0"/>
        <pt x="235" y="407" on="0"/>
        <pt x="264" y="408" on="0"/>
        <pt x="273" y="410" on="1"/>
        <pt x="327" y="417" on="0"/>
        <pt x="403" y="472" on="0"/>
        <pt x="403" y="518" on="1"/>
        <pt x="403" y="549" on="0"/>
        <pt x="380" y="590" on="0"/>
        <pt x="339" y="615" on="0"/>
        <pt x="285" y="626" on="0"/>
        <pt x="255" y="626" on="1"/>
        <pt x="197" y="626" on="0"/>
        <pt x="111" y="608" on="0"/>
        <pt x="88" y="597" on="1"/>
        <pt x="61" y="677" on="1"/>
        <pt x="71" y="683" on="0"/>
        <pt x="113" y="695" on="0"/>
        <pt x="168" y="705" on="0"/>
        <pt x="235" y="712" on="0"/>
        <pt x="270" y="712" on="1"/>
        <pt x="314" y="712" on="0"/>
        <pt x="400" y="695" on="0"/>
        <pt x="467" y="655" on="0"/>
        <pt x="509" y="589" on="0"/>
        <pt x="509" y="539" on="1"/>
        <pt x="509" y="489" on="0"/>
        <pt x="438" y="399" on="0"/>
        <pt x="366" y="379" on="1"/>
        <pt x="366" y="375" on="1"/>
        <pt x="443" y="364" on="0"/>
        <pt x="532" y="279" on="0"/>
        <pt x="532" y="207" on="1"/>
        <pt x="532" y="150" on="0"/>
        <pt x="482" y="67" on="0"/>
        <pt x="401" y="13" on="0"/>
        <pt x="298" y="-13" on="0"/>
        <pt x="244" y="-13" on="1"/>
        <pt x="172" y="-13" on="0"/>
        <pt x="74" y="4" on="0"/>
        <pt x="44" y="16" on="1"/>
        <pt x="69" y="102" on="1"/>
        <pt x="95" y="91" on="0"/>
        <pt x="186" y="73" on="0"/>
        <pt x="252" y="73" on="1"/>
        <pt x="283" y="73" on="0"/>
        <pt x="345" y="89" on="0"/>
        <pt x="395" y="121" on="0"/>
        <pt x="426" y="170" on="0"/>
        <pt x="426" y="204" on="1"/>
        <pt x="426" y="264" on="0"/>
        <pt x="333" y="320" on="0"/>
        <pt x="250" y="325" on="1"/>
        <pt x="237" y="326" on="0"/>
        <pt x="217" y="327" on="0"/>
        <pt x="203" y="327" on="1"/>
      </contour>
    </TTGlyph>
    <TTGlyph name="afii10026" xMin="89" yMin="0" xMax="655" yMax="700">
      <contour>
        <pt x="555" y="463" on="1"/>
        <pt x="561" y="540" on="1"/>
        <pt x="557" y="540" on="1"/>
        <pt x="509" y="461" on="1"/>
        <pt x="150" y="0" on="1"/>
        <pt x="89" y="0" on="1"/>
        <pt x="89" y="700" on="1"/>
        <pt x="189" y="700" on="1"/>
        <pt x="189" y="234" on="1"/>
        <pt x="180" y="158" on="1"/>
        <pt x="185" y="158" on="1"/>
        <pt x="235" y="237" on="1"/>
        <pt x="593" y="700" on="1"/>
        <pt x="655" y="700" on="1"/>
        <pt x="655" y="0" on="1"/>
        <pt x="555" y="0" on="1"/>
      </contour>
    </TTGlyph>
    <TTGlyph name="afii10027" xMin="89" yMin="0" xMax="655" yMax="871">
      <component glyphName="afii10026" x="0" y="0" flags="0x204"/>
      <component glyphName="uniF6D1" x="130" y="0" flags="0x4"/>
    </TTGlyph>
    <TTGlyph name="afii10028" xMin="89" yMin="0" xMax="635" yMax="700">
      <component glyphName="K" x="0" y="0" flags="0x204"/>
    </TTGlyph>
    <TTGlyph name="afii10029" xMin="-4" yMin="-5" xMax="594" yMax="700">
      <contour>
        <pt x="494" y="612" on="1"/>
        <pt x="274" y="612" on="1"/>
        <pt x="269" y="513" on="0"/>
        <pt x="256" y="351" on="0"/>
        <pt x="236" y="220" on="0"/>
        <pt x="209" y="120" on="0"/>
        <pt x="189" y="83" on="1"/>
        <pt x="163" y="35" on="0"/>
        <pt x="95" y="-5" on="0"/>
        <pt x="58" y="-5" on="1"/>
        <pt x="37" y="-5" on="0"/>
        <pt x="10" y="0" on="0"/>
        <pt x="-4" y="5" on="1"/>
        <pt x="9" y="89" on="1"/>
        <pt x="21" y="86" on="0"/>
        <pt x="45" y="86" on="0"/>
        <pt x="70" y="95" on="0"/>
        <pt x="94" y="116" on="0"/>
        <pt x="105" y="135" on="1"/>
        <pt x="120" y="161" on="0"/>
        <pt x="146" y="249" on="0"/>
        <pt x="166" y="385" on="0"/>
        <pt x="179" y="574" on="0"/>
        <pt x="182" y="700" on="1"/>
        <pt x="594" y="700" on="1"/>
        <pt x="594" y="0" on="1"/>
        <pt x="494" y="0" on="1"/>
      </contour>
    </TTGlyph>
    <TTGlyph name="afii10030" xMin="89" yMin="0" xMax="779" yMax="700">
      <component glyphName="M" x="0" y="0" flags="0x204"/>
    </TTGlyph>
    <TTGlyph name="afii10031" xMin="89" yMin="0" xMax="644" yMax="700">
      <component glyphName="H" x="0" y="0" flags="0x204"/>
    </TTGlyph>
    <TTGlyph name="afii10032" xMin="58" yMin="-13" xMax="689" yMax="713">
      <component glyphName="O" x="0" y="0" flags="0x204"/>
    </TTGlyph>
    <TTGlyph name="afii10033" xMin="89" yMin="0" xMax="630" yMax="700">
      <contour>
        <pt x="530" y="612" on="1"/>
        <pt x="189" y="612" on="1"/>
        <pt x="189" y="0" on="1"/>
        <pt x="89" y="0" on="1"/>
        <pt x="89" y="700" on="1"/>
        <pt x="630" y="700" on="1"/>
        <pt x="630" y="0" on="1"/>
        <pt x="530" y="0" on="1"/>
      </contour>
    </TTGlyph>
    <TTGlyph name="afii10034" xMin="89" yMin="0" xMax="575" yMax="709">
      <component glyphName="P" x="0" y="0" flags="0x204"/>
    </TTGlyph>
    <TTGlyph name="afii10035" xMin="58" yMin="-13" xMax="584" yMax="713">
      <component glyphName="C" x="0" y="0" flags="0x204"/>
    </TTGlyph>
    <TTGlyph name="afii10036" xMin="19" yMin="0" xMax="591" yMax="700">
      <component glyphName="T" x="0" y="0" flags="0x204"/>
    </TTGlyph>
    <TTGlyph name="afii10037" xMin="5" yMin="-6" xMax="609" yMax="700">
      <contour>
        <pt x="311" y="340" on="1"/>
        <pt x="338" y="251" on="1"/>
        <pt x="344" y="251" on="1"/>
        <pt x="365" y="343" on="1"/>
        <pt x="507" y="700" on="1"/>
        <pt x="609" y="700" on="1"/>
        <pt x="413" y="238" on="1"/>
        <pt x="384" y="171" on="0"/>
        <pt x="340" y="78" on="0"/>
        <pt x="293" y="20" on="0"/>
        <pt x="239" y="-6" on="0"/>
        <pt x="200" y="-6" on="1"/>
        <pt x="164" y="-6" on="0"/>
        <pt x="121" y="5" on="0"/>
        <pt x="101" y="17" on="1"/>
        <pt x="130" y="99" on="1"/>
        <pt x="151" y="87" on="0"/>
        <pt x="188" y="82" on="0"/>
        <pt x="204" y="82" on="1"/>
        <pt x="233" y="82" on="0"/>
        <pt x="274" y="133" on="0"/>
        <pt x="290" y="184" on="1"/>
        <pt x="5" y="700" on="1"/>
        <pt x="120" y="700" on="1"/>
      </contour>
    </TTGlyph>
    <TTGlyph name="afii10038" xMin="43" yMin="-20" xMax="813" yMax="720">
      <contour>
        <pt x="380" y="77" on="1"/>
        <pt x="360" y="74" on="0"/>
        <pt x="313" y="72" on="0"/>
        <pt x="291" y="72" on="1"/>
        <pt x="239" y="72" on="0"/>
        <pt x="149" y="106" on="0"/>
        <pt x="82" y="175" on="0"/>
        <pt x="43" y="279" on="0"/>
        <pt x="43" y="350" on="1"/>
        <pt x="43" y="417" on="0"/>
        <pt x="82" y="524" on="0"/>
        <pt x="153" y="599" on="0"/>
        <pt x="252" y="639" on="0"/>
        <pt x="312" y="639" on="1"/>
        <pt x="326" y="639" on="0"/>
        <pt x="368" y="637" on="0"/>
        <pt x="380" y="634" on="1"/>
        <pt x="380" y="720" on="1"/>
        <pt x="476" y="720" on="1"/>
        <pt x="476" y="631" on="1"/>
        <pt x="496" y="636" on="0"/>
        <pt x="548" y="639" on="0"/>
        <pt x="565" y="639" on="1"/>
        <pt x="617" y="639" on="0"/>
        <pt x="708" y="603" on="0"/>
        <pt x="775" y="532" on="0"/>
        <pt x="813" y="428" on="0"/>
        <pt x="813" y="360" on="1"/>
        <pt x="813" y="290" on="0"/>
        <pt x="770" y="182" on="0"/>
        <pt x="697" y="109" on="0"/>
        <pt x="600" y="72" on="0"/>
        <pt x="546" y="72" on="1"/>
        <pt x="534" y="72" on="0"/>
        <pt x="489" y="75" on="0"/>
        <pt x="476" y="79" on="1"/>
        <pt x="476" y="-20" on="1"/>
        <pt x="380" y="-20" on="1"/>
      </contour>
      <contour>
        <pt x="550" y="559" on="1"/>
        <pt x="535" y="559" on="0"/>
        <pt x="488" y="557" on="0"/>
        <pt x="474" y="553" on="1"/>
        <pt x="474" y="155" on="1"/>
        <pt x="485" y="153" on="0"/>
        <pt x="519" y="152" on="0"/>
        <pt x="535" y="152" on="1"/>
        <pt x="571" y="152" on="0"/>
        <pt x="635" y="178" on="0"/>
        <pt x="683" y="229" on="0"/>
        <pt x="711" y="307" on="0"/>
        <pt x="711" y="360" on="1"/>
        <pt x="711" y="404" on="0"/>
        <pt x="688" y="477" on="0"/>
        <pt x="646" y="530" on="0"/>
        <pt x="586" y="559" on="0"/>
      </contour>
      <contour>
        <pt x="310" y="152" on="1"/>
        <pt x="321" y="152" on="0"/>
        <pt x="367" y="153" on="0"/>
        <pt x="382" y="158" on="1"/>
        <pt x="382" y="555" on="1"/>
        <pt x="369" y="557" on="0"/>
        <pt x="333" y="559" on="0"/>
        <pt x="317" y="559" on="1"/>
        <pt x="281" y="559" on="0"/>
        <pt x="219" y="533" on="0"/>
        <pt x="172" y="480" on="0"/>
        <pt x="145" y="402" on="0"/>
        <pt x="145" y="350" on="1"/>
        <pt x="145" y="305" on="0"/>
        <pt x="169" y="232" on="0"/>
        <pt x="213" y="180" on="0"/>
        <pt x="274" y="152" on="0"/>
      </contour>
    </TTGlyph>
    <TTGlyph name="afii10039" xMin="27" yMin="0" xMax="651" yMax="700">
      <component glyphName="X" x="0" y="0" flags="0x204"/>
    </TTGlyph>
    <TTGlyph name="afii10040" xMin="89" yMin="-128" xMax="723" yMax="700">
      <contour>
        <pt x="723" y="-128" on="1"/>
        <pt x="654" y="-128" on="1"/>
        <pt x="638" y="0" on="1"/>
        <pt x="89" y="0" on="1"/>
        <pt x="89" y="700" on="1"/>
        <pt x="189" y="700" on="1"/>
        <pt x="189" y="88" on="1"/>
        <pt x="522" y="88" on="1"/>
        <pt x="522" y="700" on="1"/>
        <pt x="622" y="700" on="1"/>
        <pt x="622" y="88" on="1"/>
        <pt x="723" y="88" on="1"/>
      </contour>
    </TTGlyph>
    <TTGlyph name="afii10041" xMin="76" yMin="0" xMax="574" yMax="700">
      <contour>
        <pt x="176" y="700" on="1"/>
        <pt x="176" y="479" on="1"/>
        <pt x="176" y="412" on="0"/>
        <pt x="240" y="339" on="0"/>
        <pt x="309" y="339" on="1"/>
        <pt x="360" y="339" on="0"/>
        <pt x="447" y="363" on="0"/>
        <pt x="474" y="383" on="1"/>
        <pt x="474" y="700" on="1"/>
        <pt x="574" y="700" on="1"/>
        <pt x="574" y="0" on="1"/>
        <pt x="474" y="0" on="1"/>
        <pt x="474" y="298" on="1"/>
        <pt x="445" y="282" on="0"/>
        <pt x="348" y="253" on="0"/>
        <pt x="285" y="253" on="1"/>
        <pt x="238" y="253" on="0"/>
        <pt x="161" y="275" on="0"/>
        <pt x="106" y="325" on="0"/>
        <pt x="76" y="402" on="0"/>
        <pt x="76" y="458" on="1"/>
        <pt x="76" y="700" on="1"/>
      </contour>
    </TTGlyph>
    <TTGlyph name="afii10042" xMin="89" yMin="0" xMax="870" yMax="700">
      <contour>
        <pt x="89" y="0" on="1"/>
        <pt x="89" y="700" on="1"/>
        <pt x="189" y="700" on="1"/>
        <pt x="189" y="88" on="1"/>
        <pt x="430" y="88" on="1"/>
        <pt x="430" y="700" on="1"/>
        <pt x="530" y="700" on="1"/>
        <pt x="530" y="88" on="1"/>
        <pt x="770" y="88" on="1"/>
        <pt x="770" y="700" on="1"/>
        <pt x="870" y="700" on="1"/>
        <pt x="870" y="0" on="1"/>
      </contour>
    </TTGlyph>
    <TTGlyph name="afii10043" xMin="89" yMin="-128" xMax="971" yMax="700">
      <contour>
        <pt x="89" y="0" on="1"/>
        <pt x="89" y="700" on="1"/>
        <pt x="189" y="700" on="1"/>
        <pt x="189" y="88" on="1"/>
        <pt x="429" y="88" on="1"/>
        <pt x="429" y="700" on="1"/>
        <pt x="529" y="700" on="1"/>
        <pt x="529" y="88" on="1"/>
        <pt x="769" y="88" on="1"/>
        <pt x="769" y="700" on="1"/>
        <pt x="869" y="700" on="1"/>
        <pt x="869" y="88" on="1"/>
        <pt x="971" y="88" on="1"/>
        <pt x="971" y="-128" on="1"/>
        <pt x="902" y="-128" on="1"/>
        <pt x="886" y="0" on="1"/>
      </contour>
    </TTGlyph>
    <TTGlyph name="afii10044" xMin="-2" yMin="-9" xMax="660" yMax="700">
      <contour>
        <pt x="174" y="612" on="1"/>
        <pt x="-2" y="612" on="1"/>
        <pt x="-2" y="700" on="1"/>
        <pt x="274" y="700" on="1"/>
        <pt x="274" y="433" on="1"/>
        <pt x="279" y="434" on="0"/>
        <pt x="304" y="437" on="0"/>
        <pt x="336" y="439" on="0"/>
        <pt x="368" y="441" on="0"/>
        <pt x="381" y="441" on="1"/>
        <pt x="432" y="441" on="0"/>
        <pt x="532" y="421" on="0"/>
        <pt x="611" y="373" on="0"/>
        <pt x="660" y="290" on="0"/>
        <pt x="660" y="227" on="1"/>
        <pt x="660" y="168" on="0"/>
        <pt x="614" y="79" on="0"/>
        <pt x="533" y="20" on="0"/>
        <pt x="422" y="-9" on="0"/>
        <pt x="358" y="-9" on="1"/>
        <pt x="343" y="-9" on="0"/>
        <pt x="298" y="-8" on="0"/>
        <pt x="247" y="-4" on="0"/>
        <pt x="195" y="2" on="0"/>
        <pt x="174" y="7" on="1"/>
      </contour>
      <contour>
        <pt x="369" y="77" on="1"/>
        <pt x="406" y="77" on="0"/>
        <pt x="473" y="95" on="0"/>
        <pt x="524" y="131" on="0"/>
        <pt x="554" y="185" on="0"/>
        <pt x="554" y="222" on="1"/>
        <pt x="554" y="262" on="0"/>
        <pt x="522" y="314" on="0"/>
        <pt x="469" y="344" on="0"/>
        <pt x="402" y="355" on="0"/>
        <pt x="366" y="355" on="1"/>
        <pt x="357" y="355" on="0"/>
        <pt x="329" y="353" on="0"/>
        <pt x="302" y="351" on="0"/>
        <pt x="279" y="347" on="0"/>
        <pt x="274" y="346" on="1"/>
        <pt x="274" y="83" on="1"/>
        <pt x="289" y="79" on="0"/>
        <pt x="343" y="77" on="0"/>
      </contour>
    </TTGlyph>
    <TTGlyph name="afii10045" xMin="89" yMin="-9" xMax="757" yMax="700">
      <contour>
        <pt x="657" y="700" on="1"/>
        <pt x="757" y="700" on="1"/>
        <pt x="757" y="0" on="1"/>
        <pt x="657" y="0" on="1"/>
      </contour>
      <contour>
        <pt x="89" y="700" on="1"/>
        <pt x="189" y="700" on="1"/>
        <pt x="189" y="433" on="1"/>
        <pt x="195" y="434" on="0"/>
        <pt x="215" y="437" on="0"/>
        <pt x="240" y="439" on="0"/>
        <pt x="267" y="441" on="0"/>
        <pt x="280" y="441" on="1"/>
        <pt x="332" y="441" on="0"/>
        <pt x="430" y="421" on="0"/>
        <pt x="506" y="372" on="0"/>
        <pt x="551" y="290" on="0"/>
        <pt x="551" y="228" on="1"/>
        <pt x="551" y="168" on="0"/>
        <pt x="508" y="78" on="0"/>
        <pt x="432" y="20" on="0"/>
        <pt x="326" y="-9" on="0"/>
        <pt x="262" y="-9" on="1"/>
        <pt x="247" y="-9" on="0"/>
        <pt x="205" y="-8" on="0"/>
        <pt x="158" y="-4" on="0"/>
        <pt x="110" y="2" on="0"/>
        <pt x="89" y="7" on="1"/>
      </contour>
      <contour>
        <pt x="270" y="77" on="1"/>
        <pt x="307" y="77" on="0"/>
        <pt x="371" y="95" on="0"/>
        <pt x="418" y="131" on="0"/>
        <pt x="445" y="185" on="0"/>
        <pt x="445" y="221" on="1"/>
        <pt x="445" y="261" on="0"/>
        <pt x="415" y="313" on="0"/>
        <pt x="366" y="343" on="0"/>
        <pt x="301" y="355" on="0"/>
        <pt x="265" y="355" on="1"/>
        <pt x="246" y="355" on="0"/>
        <pt x="200" y="349" on="0"/>
        <pt x="189" y="346" on="1"/>
        <pt x="189" y="83" on="1"/>
        <pt x="203" y="79" on="0"/>
        <pt x="244" y="77" on="0"/>
      </contour>
    </TTGlyph>
    <TTGlyph name="afii10046" xMin="89" yMin="-9" xMax="575" yMax="700">
      <contour>
        <pt x="89" y="700" on="1"/>
        <pt x="189" y="700" on="1"/>
        <pt x="189" y="433" on="1"/>
        <pt x="194" y="434" on="0"/>
        <pt x="219" y="437" on="0"/>
        <pt x="250" y="439" on="0"/>
        <pt x="282" y="441" on="0"/>
        <pt x="295" y="441" on="1"/>
        <pt x="347" y="441" on="0"/>
        <pt x="447" y="421" on="0"/>
        <pt x="526" y="373" on="0"/>
        <pt x="575" y="290" on="0"/>
        <pt x="575" y="227" on="1"/>
        <pt x="575" y="167" on="0"/>
        <pt x="528" y="78" on="0"/>
        <pt x="447" y="20" on="0"/>
        <pt x="337" y="-9" on="0"/>
        <pt x="273" y="-9" on="1"/>
        <pt x="258" y="-9" on="0"/>
        <pt x="213" y="-8" on="0"/>
        <pt x="162" y="-4" on="0"/>
        <pt x="111" y="2" on="0"/>
        <pt x="89" y="7" on="1"/>
      </contour>
      <contour>
        <pt x="284" y="77" on="1"/>
        <pt x="321" y="77" on="0"/>
        <pt x="388" y="94" on="0"/>
        <pt x="439" y="130" on="0"/>
        <pt x="469" y="184" on="0"/>
        <pt x="469" y="222" on="1"/>
        <pt x="469" y="262" on="0"/>
        <pt x="437" y="314" on="0"/>
        <pt x="384" y="344" on="0"/>
        <pt x="316" y="355" on="0"/>
        <pt x="281" y="355" on="1"/>
        <pt x="272" y="355" on="0"/>
        <pt x="244" y="353" on="0"/>
        <pt x="217" y="351" on="0"/>
        <pt x="194" y="347" on="0"/>
        <pt x="189" y="346" on="1"/>
        <pt x="189" y="83" on="1"/>
        <pt x="203" y="79" on="0"/>
        <pt x="257" y="77" on="0"/>
      </contour>
    </TTGlyph>
    <TTGlyph name="afii10047" xMin="45" yMin="-13" xMax="573" yMax="713">
      <contour>
        <pt x="161" y="399" on="1"/>
        <pt x="466" y="399" on="1"/>
        <pt x="456" y="515" on="0"/>
        <pt x="330" y="626" on="0"/>
        <pt x="230" y="627" on="1"/>
        <pt x="177" y="628" on="0"/>
        <pt x="95" y="606" on="0"/>
        <pt x="71" y="592" on="1"/>
        <pt x="47" y="672" on="1"/>
        <pt x="80" y="691" on="0"/>
        <pt x="183" y="713" on="0"/>
        <pt x="240" y="713" on="1"/>
        <pt x="310" y="713" on="0"/>
        <pt x="431" y="673" on="0"/>
        <pt x="521" y="586" on="0"/>
        <pt x="573" y="448" on="0"/>
        <pt x="573" y="350" on="1"/>
        <pt x="573" y="251" on="0"/>
        <pt x="513" y="113" on="0"/>
        <pt x="414" y="26" on="0"/>
        <pt x="285" y="-13" on="0"/>
        <pt x="216" y="-13" on="1"/>
        <pt x="161" y="-13" on="0"/>
        <pt x="74" y="4" on="0"/>
        <pt x="45" y="15" on="1"/>
        <pt x="71" y="101" on="1"/>
        <pt x="96" y="89" on="0"/>
        <pt x="177" y="73" on="0"/>
        <pt x="223" y="73" on="1"/>
        <pt x="266" y="73" on="0"/>
        <pt x="350" y="98" on="0"/>
        <pt x="417" y="155" on="0"/>
        <pt x="462" y="247" on="0"/>
        <pt x="467" y="313" on="1"/>
        <pt x="161" y="313" on="1"/>
      </contour>
    </TTGlyph>
    <TTGlyph name="afii10048" xMin="89" yMin="-13" xMax="920" yMax="713">
      <contour>
        <pt x="189" y="401" on="1"/>
        <pt x="319" y="401" on="1"/>
        <pt x="330" y="551" on="0"/>
        <pt x="484" y="713" on="0"/>
        <pt x="621" y="713" on="1"/>
        <pt x="700" y="713" on="0"/>
        <pt x="814" y="661" on="0"/>
        <pt x="886" y="565" on="0"/>
        <pt x="920" y="431" on="0"/>
        <pt x="920" y="350" on="1"/>
        <pt x="920" y="177" on="0"/>
        <pt x="769" y="-13" on="0"/>
        <pt x="621" y="-13" on="1"/>
        <pt x="547" y="-13" on="0"/>
        <pt x="437" y="34" on="0"/>
        <pt x="362" y="119" on="0"/>
        <pt x="322" y="239" on="0"/>
        <pt x="318" y="313" on="1"/>
        <pt x="189" y="313" on="1"/>
        <pt x="189" y="0" on="1"/>
        <pt x="89" y="0" on="1"/>
        <pt x="89" y="700" on="1"/>
        <pt x="189" y="700" on="1"/>
      </contour>
      <contour>
        <pt x="425" y="350" on="1"/>
        <pt x="425" y="294" on="0"/>
        <pt x="446" y="193" on="0"/>
        <pt x="492" y="117" on="0"/>
        <pt x="567" y="73" on="0"/>
        <pt x="621" y="73" on="1"/>
        <pt x="718" y="73" on="0"/>
        <pt x="814" y="207" on="0"/>
        <pt x="814" y="350" on="1"/>
        <pt x="814" y="405" on="0"/>
        <pt x="795" y="506" on="0"/>
        <pt x="750" y="582" on="0"/>
        <pt x="676" y="627" on="0"/>
        <pt x="621" y="627" on="1"/>
        <pt x="524" y="627" on="0"/>
        <pt x="425" y="491" on="0"/>
      </contour>
    </TTGlyph>
    <TTGlyph name="afii10049" xMin="25" yMin="0" xMax="535" yMax="709">
      <contour>
        <pt x="535" y="0" on="1"/>
        <pt x="435" y="0" on="1"/>
        <pt x="435" y="298" on="1"/>
        <pt x="328" y="276" on="1"/>
        <pt x="141" y="0" on="1"/>
        <pt x="25" y="0" on="1"/>
        <pt x="194" y="244" on="1"/>
        <pt x="260" y="288" on="1"/>
        <pt x="221" y="295" on="0"/>
        <pt x="155" y="326" on="0"/>
        <pt x="106" y="376" on="0"/>
        <pt x="79" y="444" on="0"/>
        <pt x="79" y="489" on="1"/>
        <pt x="79" y="550" on="0"/>
        <pt x="125" y="634" on="0"/>
        <pt x="203" y="686" on="0"/>
        <pt x="309" y="709" on="0"/>
        <pt x="369" y="709" on="1"/>
        <pt x="406" y="709" on="0"/>
        <pt x="495" y="702" on="0"/>
        <pt x="535" y="693" on="1"/>
      </contour>
      <contour>
        <pt x="363" y="623" on="1"/>
        <pt x="328" y="623" on="0"/>
        <pt x="264" y="611" on="0"/>
        <pt x="215" y="581" on="0"/>
        <pt x="185" y="530" on="0"/>
        <pt x="185" y="490" on="1"/>
        <pt x="185" y="453" on="0"/>
        <pt x="213" y="402" on="0"/>
        <pt x="262" y="371" on="0"/>
        <pt x="327" y="357" on="0"/>
        <pt x="364" y="357" on="1"/>
        <pt x="435" y="357" on="1"/>
        <pt x="435" y="617" on="1"/>
        <pt x="421" y="621" on="0"/>
        <pt x="389" y="623" on="0"/>
      </contour>
    </TTGlyph>
    <TTGlyph name="afii10050" xMin="89" yMin="0" xMax="504" yMax="838">
      <contour>
        <pt x="420" y="700" on="1"/>
        <pt x="438" y="838" on="1"/>
        <pt x="504" y="838" on="1"/>
        <pt x="504" y="612" on="1"/>
        <pt x="189" y="612" on="1"/>
        <pt x="189" y="0" on="1"/>
        <pt x="89" y="0" on="1"/>
        <pt x="89" y="700" on="1"/>
      </contour>
    </TTGlyph>
    <TTGlyph name="afii10051" xMin="19" yMin="-8" xMax="741" yMax="700">
      <contour>
        <pt x="355" y="0" on="1"/>
        <pt x="255" y="0" on="1"/>
        <pt x="255" y="612" on="1"/>
        <pt x="19" y="612" on="1"/>
        <pt x="19" y="700" on="1"/>
        <pt x="591" y="700" on="1"/>
        <pt x="591" y="612" on="1"/>
        <pt x="355" y="612" on="1"/>
        <pt x="355" y="420" on="1"/>
        <pt x="369" y="424" on="0"/>
        <pt x="445" y="441" on="0"/>
        <pt x="506" y="441" on="1"/>
        <pt x="549" y="441" on="0"/>
        <pt x="633" y="421" on="0"/>
        <pt x="700" y="373" on="0"/>
        <pt x="741" y="291" on="0"/>
        <pt x="741" y="228" on="1"/>
        <pt x="741" y="108" on="0"/>
        <pt x="608" y="-8" on="0"/>
        <pt x="484" y="-8" on="1"/>
        <pt x="448" y="-8" on="0"/>
        <pt x="416" y="-6" on="0"/>
        <pt x="408" y="-4" on="1"/>
        <pt x="408" y="83" on="1"/>
        <pt x="421" y="81" on="0"/>
        <pt x="456" y="80" on="0"/>
        <pt x="486" y="80" on="1"/>
        <pt x="558" y="80" on="0"/>
        <pt x="635" y="149" on="0"/>
        <pt x="635" y="221" on="1"/>
        <pt x="635" y="261" on="0"/>
        <pt x="610" y="313" on="0"/>
        <pt x="566" y="343" on="0"/>
        <pt x="507" y="355" on="0"/>
        <pt x="473" y="355" on="1"/>
        <pt x="455" y="355" on="0"/>
        <pt x="418" y="350" on="0"/>
        <pt x="386" y="344" on="0"/>
        <pt x="361" y="337" on="0"/>
        <pt x="355" y="335" on="1"/>
      </contour>
    </TTGlyph>
    <TTGlyph name="afii10052" xMin="89" yMin="0" xMax="504" yMax="870">
      <component glyphName="afii10020" x="0" y="0" flags="0x204"/>
      <component glyphName="uniF6C9" x="154" y="0" flags="0x4"/>
    </TTGlyph>
    <TTGlyph name="afii10053" xMin="58" yMin="-13" xMax="582" yMax="713">
      <contour>
        <pt x="582" y="30" on="1"/>
        <pt x="549" y="6" on="0"/>
        <pt x="449" y="-13" on="0"/>
        <pt x="392" y="-13" on="1"/>
        <pt x="325" y="-13" on="0"/>
        <pt x="204" y="30" on="0"/>
        <pt x="112" y="119" on="0"/>
        <pt x="58" y="256" on="0"/>
        <pt x="58" y="350" on="1"/>
        <pt x="58" y="448" on="0"/>
        <pt x="118" y="586" on="0"/>
        <pt x="214" y="673" on="0"/>
        <pt x="334" y="713" on="0"/>
        <pt x="393" y="713" on="1"/>
        <pt x="459" y="713" on="0"/>
        <pt x="542" y="699" on="0"/>
        <pt x="571" y="688" on="1"/>
        <pt x="548" y="604" on="1"/>
        <pt x="499" y="627" on="0"/>
        <pt x="401" y="627" on="1"/>
        <pt x="360" y="627" on="0"/>
        <pt x="282" y="603" on="0"/>
        <pt x="218" y="549" on="0"/>
        <pt x="173" y="464" on="0"/>
        <pt x="166" y="404" on="1"/>
        <pt x="495" y="404" on="1"/>
        <pt x="495" y="318" on="1"/>
        <pt x="164" y="318" on="1"/>
        <pt x="168" y="258" on="0"/>
        <pt x="209" y="166" on="0"/>
        <pt x="275" y="104" on="0"/>
        <pt x="362" y="73" on="0"/>
        <pt x="413" y="73" on="1"/>
        <pt x="462" y="73" on="0"/>
        <pt x="534" y="91" on="0"/>
        <pt x="559" y="105" on="1"/>
      </contour>
    </TTGlyph>
    <TTGlyph name="afii10054" xMin="48" yMin="-13" xMax="533" yMax="713">
      <component glyphName="S" x="0" y="0" flags="0x204"/>
    </TTGlyph>
    <TTGlyph name="afii10055" xMin="69" yMin="0" xMax="329" yMax="700">
      <component glyphName="I" x="0" y="0" flags="0x204"/>
    </TTGlyph>
    <TTGlyph name="afii10055.alt" xMin="69" yMin="0" xMax="329" yMax="852">
      <component glyphName="I" x="0" y="0" flags="0x204"/>
      <component glyphName="uniF40B" x="67" y="0" flags="0x4"/>
    </TTGlyph>
    <TTGlyph name="afii10056" xMin="69" yMin="0" xMax="329" yMax="844">
      <contour>
        <pt x="74" y="793" on="1"/>
        <pt x="74" y="817" on="0"/>
        <pt x="106" y="844" on="0"/>
        <pt x="130" y="844" on="1"/>
        <pt x="153" y="844" on="0"/>
        <pt x="185" y="817" on="0"/>
        <pt x="185" y="793" on="1"/>
        <pt x="185" y="770" on="0"/>
        <pt x="153" y="742" on="0"/>
        <pt x="130" y="742" on="1"/>
        <pt x="106" y="742" on="0"/>
        <pt x="74" y="770" on="0"/>
      </contour>
      <contour>
        <pt x="214" y="793" on="1"/>
        <pt x="214" y="817" on="0"/>
        <pt x="246" y="844" on="0"/>
        <pt x="270" y="844" on="1"/>
        <pt x="294" y="844" on="0"/>
        <pt x="326" y="817" on="0"/>
        <pt x="326" y="793" on="1"/>
        <pt x="326" y="770" on="0"/>
        <pt x="294" y="742" on="0"/>
        <pt x="270" y="742" on="1"/>
        <pt x="246" y="742" on="0"/>
        <pt x="214" y="770" on="0"/>
      </contour>
      <contour>
        <pt x="149" y="634" on="1"/>
        <pt x="69" y="634" on="1"/>
        <pt x="69" y="700" on="1"/>
        <pt x="329" y="700" on="1"/>
        <pt x="329" y="634" on="1"/>
        <pt x="249" y="634" on="1"/>
        <pt x="249" y="66" on="1"/>
        <pt x="329" y="66" on="1"/>
        <pt x="329" y="0" on="1"/>
        <pt x="69" y="0" on="1"/>
        <pt x="69" y="66" on="1"/>
        <pt x="149" y="66" on="1"/>
      </contour>
    </TTGlyph>
    <TTGlyph name="afii10057" xMin="-35" yMin="-10" xMax="225" yMax="700">
      <component glyphName="J" x="0" y="0" flags="0x204"/>
    </TTGlyph>
    <TTGlyph name="afii10058" xMin="-4" yMin="-9" xMax="980" yMax="700">
      <contour>
        <pt x="594" y="700" on="1"/>
        <pt x="594" y="433" on="1"/>
        <pt x="599" y="434" on="0"/>
        <pt x="624" y="437" on="0"/>
        <pt x="655" y="439" on="0"/>
        <pt x="687" y="441" on="0"/>
        <pt x="700" y="441" on="1"/>
        <pt x="752" y="441" on="0"/>
        <pt x="852" y="421" on="0"/>
        <pt x="931" y="373" on="0"/>
        <pt x="980" y="290" on="0"/>
        <pt x="980" y="227" on="1"/>
        <pt x="980" y="167" on="0"/>
        <pt x="933" y="78" on="0"/>
        <pt x="852" y="20" on="0"/>
        <pt x="742" y="-9" on="0"/>
        <pt x="678" y="-9" on="1"/>
        <pt x="663" y="-9" on="0"/>
        <pt x="618" y="-8" on="0"/>
        <pt x="567" y="-4" on="0"/>
        <pt x="516" y="2" on="0"/>
        <pt x="494" y="7" on="1"/>
        <pt x="494" y="612" on="1"/>
        <pt x="274" y="612" on="1"/>
        <pt x="269" y="513" on="0"/>
        <pt x="256" y="351" on="0"/>
        <pt x="236" y="220" on="0"/>
        <pt x="209" y="120" on="0"/>
        <pt x="189" y="83" on="1"/>
        <pt x="163" y="35" on="0"/>
        <pt x="95" y="-5" on="0"/>
        <pt x="58" y="-5" on="1"/>
        <pt x="37" y="-5" on="0"/>
        <pt x="10" y="0" on="0"/>
        <pt x="-4" y="5" on="1"/>
        <pt x="9" y="89" on="1"/>
        <pt x="21" y="86" on="0"/>
        <pt x="45" y="86" on="0"/>
        <pt x="70" y="95" on="0"/>
        <pt x="94" y="116" on="0"/>
        <pt x="105" y="135" on="1"/>
        <pt x="120" y="161" on="0"/>
        <pt x="146" y="249" on="0"/>
        <pt x="166" y="385" on="0"/>
        <pt x="179" y="574" on="0"/>
        <pt x="182" y="700" on="1"/>
      </contour>
      <contour>
        <pt x="594" y="83" on="1"/>
        <pt x="608" y="79" on="0"/>
        <pt x="662" y="77" on="0"/>
        <pt x="689" y="77" on="1"/>
        <pt x="726" y="77" on="0"/>
        <pt x="793" y="94" on="0"/>
        <pt x="844" y="130" on="0"/>
        <pt x="874" y="184" on="0"/>
        <pt x="874" y="222" on="1"/>
        <pt x="874" y="262" on="0"/>
        <pt x="842" y="314" on="0"/>
        <pt x="789" y="344" on="0"/>
        <pt x="721" y="355" on="0"/>
        <pt x="686" y="355" on="1"/>
        <pt x="677" y="355" on="0"/>
        <pt x="649" y="353" on="0"/>
        <pt x="622" y="351" on="0"/>
        <pt x="599" y="347" on="0"/>
        <pt x="594" y="346" on="1"/>
      </contour>
    </TTGlyph>
    <TTGlyph name="afii10059" xMin="89" yMin="-9" xMax="1030" yMax="700">
      <contour>
        <pt x="189" y="700" on="1"/>
        <pt x="189" y="415" on="1"/>
        <pt x="544" y="415" on="1"/>
        <pt x="544" y="700" on="1"/>
        <pt x="644" y="700" on="1"/>
        <pt x="644" y="416" on="1"/>
        <pt x="650" y="417" on="0"/>
        <pt x="675" y="420" on="0"/>
        <pt x="706" y="422" on="0"/>
        <pt x="738" y="424" on="0"/>
        <pt x="751" y="424" on="1"/>
        <pt x="803" y="424" on="0"/>
        <pt x="903" y="407" on="0"/>
        <pt x="982" y="362" on="0"/>
        <pt x="1030" y="282" on="0"/>
        <pt x="1030" y="219" on="1"/>
        <pt x="1030" y="159" on="0"/>
        <pt x="984" y="73" on="0"/>
        <pt x="903" y="17" on="0"/>
        <pt x="792" y="-9" on="0"/>
        <pt x="728" y="-9" on="1"/>
        <pt x="713" y="-9" on="0"/>
        <pt x="668" y="-7" on="0"/>
        <pt x="617" y="-4" on="0"/>
        <pt x="566" y="2" on="0"/>
        <pt x="544" y="6" on="1"/>
        <pt x="544" y="327" on="1"/>
        <pt x="189" y="327" on="1"/>
        <pt x="189" y="0" on="1"/>
        <pt x="89" y="0" on="1"/>
        <pt x="89" y="700" on="1"/>
      </contour>
      <contour>
        <pt x="644" y="83" on="1"/>
        <pt x="658" y="80" on="0"/>
        <pt x="713" y="77" on="0"/>
        <pt x="739" y="77" on="1"/>
        <pt x="778" y="77" on="0"/>
        <pt x="845" y="91" on="0"/>
        <pt x="895" y="123" on="0"/>
        <pt x="924" y="175" on="0"/>
        <pt x="924" y="212" on="1"/>
        <pt x="924" y="252" on="0"/>
        <pt x="893" y="302" on="0"/>
        <pt x="841" y="329" on="0"/>
        <pt x="773" y="338" on="0"/>
        <pt x="736" y="338" on="1"/>
        <pt x="727" y="338" on="0"/>
        <pt x="699" y="336" on="0"/>
        <pt x="672" y="334" on="0"/>
        <pt x="649" y="330" on="0"/>
        <pt x="644" y="329" on="1"/>
      </contour>
    </TTGlyph>
    <TTGlyph name="afii10060" xMin="19" yMin="0" xMax="753" yMax="700">
      <contour>
        <pt x="355" y="0" on="1"/>
        <pt x="255" y="0" on="1"/>
        <pt x="255" y="612" on="1"/>
        <pt x="19" y="612" on="1"/>
        <pt x="19" y="700" on="1"/>
        <pt x="591" y="700" on="1"/>
        <pt x="591" y="612" on="1"/>
        <pt x="355" y="612" on="1"/>
        <pt x="355" y="396" on="1"/>
        <pt x="384" y="411" on="0"/>
        <pt x="481" y="441" on="0"/>
        <pt x="543" y="441" on="1"/>
        <pt x="589" y="441" on="0"/>
        <pt x="666" y="421" on="0"/>
        <pt x="722" y="375" on="0"/>
        <pt x="753" y="299" on="0"/>
        <pt x="753" y="244" on="1"/>
        <pt x="753" y="0" on="1"/>
        <pt x="653" y="0" on="1"/>
        <pt x="653" y="222" on="1"/>
        <pt x="653" y="355" on="0"/>
        <pt x="520" y="355" on="1"/>
        <pt x="469" y="355" on="0"/>
        <pt x="382" y="331" on="0"/>
        <pt x="355" y="310" on="1"/>
      </contour>
    </TTGlyph>
    <TTGlyph name="afii10061" xMin="89" yMin="0" xMax="635" yMax="870">
      <component glyphName="K" x="0" y="0" flags="0x204"/>
      <component glyphName="uniF6C9" x="180" y="0" flags="0x4"/>
    </TTGlyph>
    <TTGlyph name="afii10062" xMin="5" yMin="-6" xMax="609" yMax="871">
      <component glyphName="afii10037" x="0" y="0" flags="0x204"/>
      <component glyphName="uniF6D1" x="69" y="0" flags="0x4"/>
    </TTGlyph>
    <TTGlyph name="afii10065" xMin="45" yMin="-8" xMax="498" yMax="535">
      <component glyphName="a" x="0" y="0" flags="0x204"/>
    </TTGlyph>
    <TTGlyph name="afii10066" xMin="64" yMin="-14" xMax="575" yMax="730">
      <contour>
        <pt x="155" y="419" on="1"/>
        <pt x="192" y="469" on="0"/>
        <pt x="285" y="511" on="0"/>
        <pt x="353" y="511" on="1"/>
        <pt x="458" y="511" on="0"/>
        <pt x="575" y="385" on="0"/>
        <pt x="575" y="264" on="1"/>
        <pt x="575" y="195" on="0"/>
        <pt x="540" y="90" on="0"/>
        <pt x="474" y="21" on="0"/>
        <pt x="380" y="-14" on="0"/>
        <pt x="321" y="-14" on="1"/>
        <pt x="193" y="-14" on="0"/>
        <pt x="64" y="142" on="0"/>
        <pt x="64" y="309" on="1"/>
        <pt x="64" y="399" on="0"/>
        <pt x="84" y="525" on="0"/>
        <pt x="123" y="609" on="0"/>
        <pt x="178" y="658" on="0"/>
        <pt x="246" y="684" on="0"/>
        <pt x="327" y="694" on="0"/>
        <pt x="373" y="698" on="1"/>
        <pt x="431" y="703" on="0"/>
        <pt x="501" y="715" on="0"/>
        <pt x="523" y="730" on="1"/>
        <pt x="533" y="649" on="1"/>
        <pt x="510" y="634" on="0"/>
        <pt x="433" y="621" on="0"/>
        <pt x="364" y="616" on="1"/>
        <pt x="316" y="613" on="0"/>
        <pt x="241" y="597" on="0"/>
        <pt x="185" y="557" on="0"/>
        <pt x="151" y="482" on="0"/>
        <pt x="145" y="421" on="1"/>
      </contour>
      <contour>
        <pt x="162" y="250" on="1"/>
        <pt x="162" y="212" on="0"/>
        <pt x="180" y="145" on="0"/>
        <pt x="219" y="94" on="0"/>
        <pt x="279" y="64" on="0"/>
        <pt x="320" y="64" on="1"/>
        <pt x="477" y="64" on="0"/>
        <pt x="477" y="255" on="1"/>
        <pt x="477" y="293" on="0"/>
        <pt x="460" y="358" on="0"/>
        <pt x="425" y="406" on="0"/>
        <pt x="370" y="433" on="0"/>
        <pt x="333" y="433" on="1"/>
        <pt x="243" y="433" on="0"/>
        <pt x="162" y="338" on="0"/>
      </contour>
    </TTGlyph>
    <TTGlyph name="afii10067" xMin="88" yMin="-8" xMax="522" yMax="534">
      <contour>
        <pt x="88" y="525" on="1"/>
        <pt x="126" y="527" on="1"/>
        <pt x="158" y="529" on="0"/>
        <pt x="234" y="534" on="0"/>
        <pt x="284" y="534" on="1"/>
        <pt x="400" y="534" on="0"/>
        <pt x="501" y="469" on="0"/>
        <pt x="501" y="405" on="1"/>
        <pt x="501" y="370" on="0"/>
        <pt x="452" y="299" on="0"/>
        <pt x="399" y="283" on="1"/>
        <pt x="399" y="272" on="1"/>
        <pt x="465" y="259" on="0"/>
        <pt x="522" y="197" on="0"/>
        <pt x="522" y="146" on="1"/>
        <pt x="522" y="67" on="0"/>
        <pt x="392" y="-8" on="0"/>
        <pt x="261" y="-8" on="1"/>
        <pt x="217" y="-8" on="0"/>
        <pt x="139" y="-3" on="0"/>
        <pt x="102" y="0" on="1"/>
        <pt x="98" y="0" on="0"/>
        <pt x="92" y="1" on="0"/>
        <pt x="88" y="1" on="1"/>
      </contour>
      <contour>
        <pt x="180" y="72" on="1"/>
        <pt x="202" y="69" on="0"/>
        <pt x="244" y="66" on="0"/>
        <pt x="275" y="66" on="1"/>
        <pt x="354" y="66" on="0"/>
        <pt x="424" y="107" on="0"/>
        <pt x="424" y="154" on="1"/>
        <pt x="424" y="173" on="0"/>
        <pt x="410" y="205" on="0"/>
        <pt x="378" y="227" on="0"/>
        <pt x="323" y="240" on="0"/>
        <pt x="283" y="240" on="1"/>
        <pt x="180" y="240" on="1"/>
      </contour>
      <contour>
        <pt x="294" y="303" on="1"/>
        <pt x="316" y="303" on="0"/>
        <pt x="356" y="315" on="0"/>
        <pt x="388" y="337" on="0"/>
        <pt x="407" y="366" on="0"/>
        <pt x="407" y="383" on="1"/>
        <pt x="407" y="425" on="0"/>
        <pt x="350" y="458" on="0"/>
        <pt x="281" y="458" on="1"/>
        <pt x="258" y="458" on="0"/>
        <pt x="211" y="455" on="0"/>
        <pt x="180" y="454" on="1"/>
        <pt x="180" y="303" on="1"/>
      </contour>
    </TTGlyph>
    <TTGlyph name="afii10068" xMin="88" yMin="0" xMax="426" yMax="525">
      <contour>
        <pt x="426" y="447" on="1"/>
        <pt x="180" y="447" on="1"/>
        <pt x="180" y="0" on="1"/>
        <pt x="88" y="0" on="1"/>
        <pt x="88" y="525" on="1"/>
        <pt x="426" y="525" on="1"/>
      </contour>
    </TTGlyph>
    <TTGlyph name="afii10069" xMin="0" yMin="-132" xMax="600" yMax="525">
      <contour>
        <pt x="600" y="-132" on="1"/>
        <pt x="537" y="-132" on="1"/>
        <pt x="521" y="0" on="1"/>
        <pt x="79" y="0" on="1"/>
        <pt x="61" y="-132" on="1"/>
        <pt x="0" y="-132" on="1"/>
        <pt x="0" y="78" on="1"/>
        <pt x="67" y="78" on="1"/>
        <pt x="77" y="90" on="0"/>
        <pt x="108" y="150" on="0"/>
        <pt x="138" y="257" on="0"/>
        <pt x="161" y="415" on="0"/>
        <pt x="162" y="525" on="1"/>
        <pt x="515" y="525" on="1"/>
        <pt x="515" y="78" on="1"/>
        <pt x="600" y="78" on="1"/>
      </contour>
      <contour>
        <pt x="423" y="78" on="1"/>
        <pt x="423" y="447" on="1"/>
        <pt x="245" y="447" on="1"/>
        <pt x="242" y="402" on="0"/>
        <pt x="230" y="300" on="0"/>
        <pt x="209" y="201" on="0"/>
        <pt x="181" y="111" on="0"/>
        <pt x="162" y="78" on="1"/>
      </contour>
    </TTGlyph>
    <TTGlyph name="afii10070" xMin="60" yMin="-14" xMax="534" yMax="540">
      <component glyphName="e" x="0" y="0" flags="0x204"/>
    </TTGlyph>
    <TTGlyph name="afii10071" xMin="60" yMin="-14" xMax="534" yMax="690">
      <component glyphName="e" x="0" y="0" flags="0x204"/>
      <component glyphName="dieresis" x="81" y="-19" flags="0x4"/>
    </TTGlyph>
    <TTGlyph name="afii10072" xMin="6" yMin="0" xMax="768" yMax="525">
      <contour>
        <pt x="278" y="232" on="1"/>
        <pt x="114" y="0" on="1"/>
        <pt x="6" y="0" on="1"/>
        <pt x="181" y="237" on="1"/>
        <pt x="226" y="272" on="1"/>
        <pt x="163" y="315" on="1"/>
        <pt x="19" y="525" on="1"/>
        <pt x="119" y="525" on="1"/>
        <pt x="272" y="298" on="1"/>
        <pt x="338" y="298" on="1"/>
        <pt x="338" y="525" on="1"/>
        <pt x="428" y="525" on="1"/>
        <pt x="428" y="287" on="1"/>
        <pt x="488" y="303" on="1"/>
        <pt x="642" y="525" on="1"/>
        <pt x="741" y="525" on="1"/>
        <pt x="590" y="316" on="1"/>
        <pt x="542" y="278" on="1"/>
        <pt x="604" y="234" on="1"/>
        <pt x="768" y="0" on="1"/>
        <pt x="657" y="0" on="1"/>
        <pt x="493" y="236" on="1"/>
        <pt x="428" y="236" on="1"/>
        <pt x="428" y="0" on="1"/>
        <pt x="338" y="0" on="1"/>
        <pt x="338" y="248" on="1"/>
      </contour>
    </TTGlyph>
    <TTGlyph name="afii10073" xMin="48" yMin="-11" xMax="456" yMax="534">
      <contour>
        <pt x="148" y="233" on="1"/>
        <pt x="148" y="303" on="1"/>
        <pt x="225" y="303" on="1"/>
        <pt x="247" y="303" on="0"/>
        <pt x="288" y="315" on="0"/>
        <pt x="320" y="336" on="0"/>
        <pt x="339" y="365" on="0"/>
        <pt x="339" y="382" on="1"/>
        <pt x="339" y="424" on="0"/>
        <pt x="277" y="456" on="0"/>
        <pt x="214" y="456" on="1"/>
        <pt x="170" y="456" on="0"/>
        <pt x="97" y="437" on="0"/>
        <pt x="74" y="427" on="1"/>
        <pt x="49" y="497" on="1"/>
        <pt x="114" y="534" on="0"/>
        <pt x="244" y="534" on="1"/>
        <pt x="338" y="534" on="0"/>
        <pt x="434" y="468" on="0"/>
        <pt x="434" y="405" on="1"/>
        <pt x="434" y="388" on="0"/>
        <pt x="421" y="352" on="0"/>
        <pt x="395" y="319" on="0"/>
        <pt x="358" y="292" on="0"/>
        <pt x="334" y="285" on="1"/>
        <pt x="334" y="274" on="1"/>
        <pt x="402" y="262" on="0"/>
        <pt x="456" y="197" on="0"/>
        <pt x="456" y="145" on="1"/>
        <pt x="456" y="112" on="0"/>
        <pt x="426" y="55" on="0"/>
        <pt x="366" y="13" on="0"/>
        <pt x="275" y="-11" on="0"/>
        <pt x="215" y="-11" on="1"/>
        <pt x="156" y="-11" on="0"/>
        <pt x="79" y="5" on="0"/>
        <pt x="48" y="20" on="1"/>
        <pt x="72" y="93" on="1"/>
        <pt x="99" y="79" on="0"/>
        <pt x="175" y="67" on="0"/>
        <pt x="220" y="67" on="1"/>
        <pt x="358" y="67" on="0"/>
        <pt x="358" y="154" on="1"/>
        <pt x="358" y="193" on="0"/>
        <pt x="292" y="233" on="0"/>
        <pt x="210" y="233" on="1"/>
      </contour>
    </TTGlyph>
    <TTGlyph name="afii10074" xMin="88" yMin="0" xMax="543" yMax="525">
      <contour>
        <pt x="451" y="300" on="1"/>
        <pt x="465" y="404" on="1"/>
        <pt x="454" y="404" on="1"/>
        <pt x="405" y="306" on="1"/>
        <pt x="159" y="0" on="1"/>
        <pt x="88" y="0" on="1"/>
        <pt x="88" y="525" on="1"/>
        <pt x="180" y="525" on="1"/>
        <pt x="180" y="215" on="1"/>
        <pt x="173" y="123" on="1"/>
        <pt x="184" y="123" on="1"/>
        <pt x="230" y="212" on="1"/>
        <pt x="471" y="525" on="1"/>
        <pt x="543" y="525" on="1"/>
        <pt x="543" y="0" on="1"/>
        <pt x="451" y="0" on="1"/>
      </contour>
    </TTGlyph>
    <TTGlyph name="afii10075" xMin="88" yMin="0" xMax="543" yMax="712">
      <component glyphName="afii10074" x="0" y="0" flags="0x204"/>
      <component glyphName="uniF6D4" x="88" y="0" flags="0x4"/>
    </TTGlyph>
    <TTGlyph name="afii10076" xMin="88" yMin="0" xMax="541" yMax="525">
      <contour>
        <pt x="237" y="236" on="1"/>
        <pt x="180" y="236" on="1"/>
        <pt x="180" y="0" on="1"/>
        <pt x="88" y="0" on="1"/>
        <pt x="88" y="525" on="1"/>
        <pt x="180" y="525" on="1"/>
        <pt x="180" y="286" on="1"/>
        <pt x="235" y="304" on="1"/>
        <pt x="414" y="525" on="1"/>
        <pt x="515" y="525" on="1"/>
        <pt x="344" y="321" on="1"/>
        <pt x="345" y="321" on="1"/>
        <pt x="291" y="282" on="1"/>
        <pt x="356" y="237" on="1"/>
        <pt x="541" y="0" on="1"/>
        <pt x="425" y="0" on="1"/>
      </contour>
    </TTGlyph>
    <TTGlyph name="afii10077" xMin="-6" yMin="-5" xMax="496" yMax="525">
      <contour>
        <pt x="404" y="447" on="1"/>
        <pt x="234" y="447" on="1"/>
        <pt x="232" y="417" on="1"/>
        <pt x="225" y="318" on="0"/>
        <pt x="206" y="161" on="0"/>
        <pt x="170" y="52" on="0"/>
        <pt x="110" y="-5" on="0"/>
        <pt x="62" y="-5" on="1"/>
        <pt x="40" y="-5" on="0"/>
        <pt x="6" y="0" on="0"/>
        <pt x="-6" y="5" on="1"/>
        <pt x="8" y="89" on="1"/>
        <pt x="21" y="85" on="0"/>
        <pt x="37" y="85" on="1"/>
        <pt x="61" y="85" on="0"/>
        <pt x="99" y="120" on="0"/>
        <pt x="127" y="216" on="0"/>
        <pt x="145" y="388" on="0"/>
        <pt x="149" y="525" on="1"/>
        <pt x="496" y="525" on="1"/>
        <pt x="496" y="0" on="1"/>
        <pt x="404" y="0" on="1"/>
      </contour>
    </TTGlyph>
    <TTGlyph name="afii10078" xMin="88" yMin="0" xMax="664" yMax="525">
      <contour>
        <pt x="574" y="297" on="1"/>
        <pt x="580" y="404" on="1"/>
        <pt x="568" y="404" on="1"/>
        <pt x="523" y="322" on="1"/>
        <pt x="388" y="123" on="1"/>
        <pt x="357" y="123" on="1"/>
        <pt x="215" y="322" on="1"/>
        <pt x="175" y="404" on="1"/>
        <pt x="164" y="404" on="1"/>
        <pt x="173" y="298" on="1"/>
        <pt x="173" y="0" on="1"/>
        <pt x="88" y="0" on="1"/>
        <pt x="88" y="525" on="1"/>
        <pt x="184" y="525" on="1"/>
        <pt x="341" y="294" on="1"/>
        <pt x="379" y="221" on="1"/>
        <pt x="421" y="296" on="1"/>
        <pt x="568" y="525" on="1"/>
        <pt x="664" y="525" on="1"/>
        <pt x="664" y="0" on="1"/>
        <pt x="574" y="0" on="1"/>
      </contour>
    </TTGlyph>
    <TTGlyph name="afii10079" xMin="88" yMin="0" xMax="536" yMax="525">
      <contour>
        <pt x="444" y="229" on="1"/>
        <pt x="180" y="229" on="1"/>
        <pt x="180" y="0" on="1"/>
        <pt x="88" y="0" on="1"/>
        <pt x="88" y="525" on="1"/>
        <pt x="180" y="525" on="1"/>
        <pt x="180" y="311" on="1"/>
        <pt x="444" y="311" on="1"/>
        <pt x="444" y="525" on="1"/>
        <pt x="536" y="525" on="1"/>
        <pt x="536" y="0" on="1"/>
        <pt x="444" y="0" on="1"/>
      </contour>
    </TTGlyph>
    <TTGlyph name="afii10080" xMin="60" yMin="-14" xMax="571" yMax="540">
      <component glyphName="o" x="0" y="0" flags="0x204"/>
    </TTGlyph>
    <TTGlyph name="afii10081" xMin="88" yMin="0" xMax="530" yMax="525">
      <contour>
        <pt x="438" y="447" on="1"/>
        <pt x="180" y="447" on="1"/>
        <pt x="180" y="0" on="1"/>
        <pt x="88" y="0" on="1"/>
        <pt x="88" y="525" on="1"/>
        <pt x="530" y="525" on="1"/>
        <pt x="530" y="0" on="1"/>
        <pt x="438" y="0" on="1"/>
      </contour>
    </TTGlyph>
    <TTGlyph name="afii10082" xMin="88" yMin="-200" xMax="570" yMax="540">
      <component glyphName="p" x="0" y="0" flags="0x204"/>
    </TTGlyph>
    <TTGlyph name="afii10083" xMin="60" yMin="-14" xMax="484" yMax="540">
      <component glyphName="c" x="0" y="0" flags="0x204"/>
    </TTGlyph>
    <TTGlyph name="afii10084" xMin="0" yMin="0" xMax="456" yMax="525">
      <contour>
        <pt x="456" y="447" on="1"/>
        <pt x="274" y="447" on="1"/>
        <pt x="274" y="0" on="1"/>
        <pt x="182" y="0" on="1"/>
        <pt x="182" y="447" on="1"/>
        <pt x="0" y="447" on="1"/>
        <pt x="0" y="525" on="1"/>
        <pt x="456" y="525" on="1"/>
      </contour>
    </TTGlyph>
    <TTGlyph name="afii10085" xMin="8" yMin="-205" xMax="523" yMax="525">
      <component glyphName="y" x="0" y="0" flags="0x204"/>
    </TTGlyph>
    <TTGlyph name="afii10086" xMin="54" yMin="-200" xMax="746" yMax="700">
      <contour>
        <pt x="355" y="-3" on="1"/>
        <pt x="331" y="-11" on="0"/>
        <pt x="288" y="-14" on="0"/>
        <pt x="271" y="-14" on="1"/>
        <pt x="167" y="-14" on="0"/>
        <pt x="54" y="123" on="0"/>
        <pt x="54" y="262" on="1"/>
        <pt x="54" y="393" on="0"/>
        <pt x="178" y="535" on="0"/>
        <pt x="296" y="535" on="1"/>
        <pt x="310" y="535" on="0"/>
        <pt x="339" y="533" on="0"/>
        <pt x="355" y="529" on="1"/>
        <pt x="355" y="700" on="1"/>
        <pt x="445" y="700" on="1"/>
        <pt x="445" y="528" on="1"/>
        <pt x="471" y="533" on="0"/>
        <pt x="505" y="535" on="0"/>
        <pt x="518" y="535" on="1"/>
        <pt x="631" y="535" on="0"/>
        <pt x="746" y="411" on="0"/>
        <pt x="746" y="273" on="1"/>
        <pt x="746" y="209" on="0"/>
        <pt x="715" y="103" on="0"/>
        <pt x="656" y="28" on="0"/>
        <pt x="569" y="-14" on="0"/>
        <pt x="514" y="-14" on="1"/>
        <pt x="503" y="-14" on="0"/>
        <pt x="461" y="-9" on="0"/>
        <pt x="445" y="-4" on="1"/>
        <pt x="445" y="-200" on="1"/>
        <pt x="355" y="-200" on="1"/>
      </contour>
      <contour>
        <pt x="498" y="461" on="1"/>
        <pt x="482" y="461" on="0"/>
        <pt x="460" y="459" on="0"/>
        <pt x="443" y="454" on="1"/>
        <pt x="443" y="64" on="1"/>
        <pt x="458" y="61" on="0"/>
        <pt x="487" y="60" on="0"/>
        <pt x="504" y="60" on="1"/>
        <pt x="578" y="60" on="0"/>
        <pt x="652" y="170" on="0"/>
        <pt x="652" y="273" on="1"/>
        <pt x="652" y="316" on="0"/>
        <pt x="636" y="386" on="0"/>
        <pt x="600" y="435" on="0"/>
        <pt x="541" y="461" on="0"/>
      </contour>
      <contour>
        <pt x="297" y="60" on="1"/>
        <pt x="310" y="60" on="0"/>
        <pt x="337" y="62" on="0"/>
        <pt x="357" y="66" on="1"/>
        <pt x="357" y="454" on="1"/>
        <pt x="339" y="458" on="0"/>
        <pt x="315" y="461" on="0"/>
        <pt x="299" y="461" on="1"/>
        <pt x="227" y="461" on="0"/>
        <pt x="148" y="364" on="0"/>
        <pt x="148" y="262" on="1"/>
        <pt x="148" y="219" on="0"/>
        <pt x="165" y="145" on="0"/>
        <pt x="202" y="91" on="0"/>
        <pt x="258" y="60" on="0"/>
      </contour>
    </TTGlyph>
    <TTGlyph name="afii10087" xMin="30" yMin="0" xMax="562" yMax="525">
      <component glyphName="x" x="0" y="0" flags="0x204"/>
    </TTGlyph>
    <TTGlyph name="afii10088" xMin="88" yMin="-132" xMax="610" yMax="525">
      <contour>
        <pt x="610" y="-132" on="1"/>
        <pt x="548" y="-132" on="1"/>
        <pt x="531" y="0" on="1"/>
        <pt x="88" y="0" on="1"/>
        <pt x="88" y="525" on="1"/>
        <pt x="180" y="525" on="1"/>
        <pt x="180" y="78" on="1"/>
        <pt x="433" y="78" on="1"/>
        <pt x="433" y="525" on="1"/>
        <pt x="525" y="525" on="1"/>
        <pt x="525" y="78" on="1"/>
        <pt x="610" y="78" on="1"/>
      </contour>
    </TTGlyph>
    <TTGlyph name="afii10089" xMin="60" yMin="0" xMax="486" yMax="525">
      <contour>
        <pt x="152" y="525" on="1"/>
        <pt x="152" y="396" on="1"/>
        <pt x="152" y="364" on="0"/>
        <pt x="159" y="314" on="0"/>
        <pt x="182" y="278" on="0"/>
        <pt x="223" y="259" on="0"/>
        <pt x="256" y="259" on="1"/>
        <pt x="307" y="259" on="0"/>
        <pt x="376" y="282" on="0"/>
        <pt x="394" y="296" on="1"/>
        <pt x="394" y="525" on="1"/>
        <pt x="486" y="525" on="1"/>
        <pt x="486" y="0" on="1"/>
        <pt x="394" y="0" on="1"/>
        <pt x="394" y="223" on="1"/>
        <pt x="375" y="211" on="0"/>
        <pt x="297" y="181" on="0"/>
        <pt x="232" y="181" on="1"/>
        <pt x="190" y="181" on="0"/>
        <pt x="125" y="199" on="0"/>
        <pt x="82" y="243" on="0"/>
        <pt x="60" y="316" on="0"/>
        <pt x="60" y="371" on="1"/>
        <pt x="60" y="525" on="1"/>
      </contour>
    </TTGlyph>
    <TTGlyph name="afii10090" xMin="88" yMin="0" xMax="768" yMax="525">
      <contour>
        <pt x="88" y="0" on="1"/>
        <pt x="88" y="525" on="1"/>
        <pt x="180" y="525" on="1"/>
        <pt x="180" y="78" on="1"/>
        <pt x="382" y="78" on="1"/>
        <pt x="382" y="525" on="1"/>
        <pt x="474" y="525" on="1"/>
        <pt x="474" y="78" on="1"/>
        <pt x="676" y="78" on="1"/>
        <pt x="676" y="525" on="1"/>
        <pt x="768" y="525" on="1"/>
        <pt x="768" y="0" on="1"/>
      </contour>
    </TTGlyph>
    <TTGlyph name="afii10091" xMin="88" yMin="-132" xMax="852" yMax="525">
      <contour>
        <pt x="852" y="-132" on="1"/>
        <pt x="791" y="-132" on="1"/>
        <pt x="774" y="0" on="1"/>
        <pt x="88" y="0" on="1"/>
        <pt x="88" y="525" on="1"/>
        <pt x="180" y="525" on="1"/>
        <pt x="180" y="78" on="1"/>
        <pt x="382" y="78" on="1"/>
        <pt x="382" y="525" on="1"/>
        <pt x="474" y="525" on="1"/>
        <pt x="474" y="78" on="1"/>
        <pt x="676" y="78" on="1"/>
        <pt x="676" y="525" on="1"/>
        <pt x="768" y="525" on="1"/>
        <pt x="768" y="78" on="1"/>
        <pt x="852" y="78" on="1"/>
      </contour>
    </TTGlyph>
    <TTGlyph name="afii10092" xMin="6" yMin="-6" xMax="553" yMax="525">
      <contour>
        <pt x="227" y="78" on="1"/>
        <pt x="270" y="72" on="0"/>
        <pt x="313" y="72" on="1"/>
        <pt x="386" y="72" on="0"/>
        <pt x="455" y="123" on="0"/>
        <pt x="455" y="168" on="1"/>
        <pt x="455" y="208" on="0"/>
        <pt x="388" y="262" on="0"/>
        <pt x="316" y="262" on="1"/>
        <pt x="296" y="262" on="0"/>
        <pt x="250" y="259" on="0"/>
        <pt x="227" y="254" on="1"/>
      </contour>
      <contour>
        <pt x="227" y="324" on="1"/>
        <pt x="259" y="329" on="0"/>
        <pt x="315" y="332" on="0"/>
        <pt x="336" y="332" on="1"/>
        <pt x="395" y="332" on="0"/>
        <pt x="478" y="308" on="0"/>
        <pt x="530" y="266" on="0"/>
        <pt x="553" y="209" on="0"/>
        <pt x="553" y="176" on="1"/>
        <pt x="553" y="81" on="0"/>
        <pt x="427" y="-6" on="0"/>
        <pt x="294" y="-6" on="1"/>
        <pt x="252" y="-6" on="0"/>
        <pt x="174" y="-4" on="0"/>
        <pt x="135" y="-1" on="1"/>
        <pt x="135" y="447" on="1"/>
        <pt x="6" y="447" on="1"/>
        <pt x="6" y="525" on="1"/>
        <pt x="227" y="525" on="1"/>
      </contour>
    </TTGlyph>
    <TTGlyph name="afii10093" xMin="88" yMin="-6" xMax="683" yMax="525">
      <contour>
        <pt x="180" y="78" on="1"/>
        <pt x="222" y="72" on="0"/>
        <pt x="266" y="72" on="1"/>
        <pt x="338" y="72" on="0"/>
        <pt x="396" y="122" on="0"/>
        <pt x="396" y="168" on="1"/>
        <pt x="396" y="208" on="0"/>
        <pt x="339" y="262" on="0"/>
        <pt x="269" y="262" on="1"/>
        <pt x="250" y="262" on="0"/>
        <pt x="203" y="259" on="0"/>
        <pt x="180" y="254" on="1"/>
      </contour>
      <contour>
        <pt x="180" y="324" on="1"/>
        <pt x="212" y="329" on="0"/>
        <pt x="267" y="332" on="0"/>
        <pt x="289" y="332" on="1"/>
        <pt x="347" y="332" on="0"/>
        <pt x="426" y="308" on="0"/>
        <pt x="474" y="266" on="0"/>
        <pt x="494" y="209" on="0"/>
        <pt x="494" y="176" on="1"/>
        <pt x="494" y="81" on="0"/>
        <pt x="378" y="-6" on="0"/>
        <pt x="247" y="-6" on="1"/>
        <pt x="205" y="-6" on="0"/>
        <pt x="127" y="-4" on="0"/>
        <pt x="88" y="-1" on="1"/>
        <pt x="88" y="525" on="1"/>
        <pt x="180" y="525" on="1"/>
      </contour>
      <contour>
        <pt x="591" y="525" on="1"/>
        <pt x="683" y="525" on="1"/>
        <pt x="683" y="0" on="1"/>
        <pt x="591" y="0" on="1"/>
      </contour>
    </TTGlyph>
    <TTGlyph name="afii10094" xMin="88" yMin="-6" xMax="505" yMax="525">
      <contour>
        <pt x="180" y="78" on="1"/>
        <pt x="222" y="72" on="0"/>
        <pt x="265" y="72" on="1"/>
        <pt x="338" y="72" on="0"/>
        <pt x="407" y="123" on="0"/>
        <pt x="407" y="168" on="1"/>
        <pt x="407" y="208" on="0"/>
        <pt x="340" y="262" on="0"/>
        <pt x="268" y="262" on="1"/>
        <pt x="249" y="262" on="0"/>
        <pt x="203" y="259" on="0"/>
        <pt x="180" y="254" on="1"/>
      </contour>
      <contour>
        <pt x="180" y="324" on="1"/>
        <pt x="212" y="329" on="0"/>
        <pt x="266" y="332" on="0"/>
        <pt x="287" y="332" on="1"/>
        <pt x="347" y="332" on="0"/>
        <pt x="430" y="308" on="0"/>
        <pt x="482" y="266" on="0"/>
        <pt x="505" y="209" on="0"/>
        <pt x="505" y="176" on="1"/>
        <pt x="505" y="81" on="0"/>
        <pt x="379" y="-6" on="0"/>
        <pt x="245" y="-6" on="1"/>
        <pt x="203" y="-6" on="0"/>
        <pt x="127" y="-4" on="0"/>
        <pt x="88" y="-1" on="1"/>
        <pt x="88" y="525" on="1"/>
        <pt x="180" y="525" on="1"/>
      </contour>
    </TTGlyph>
    <TTGlyph name="afii10095" xMin="48" yMin="-14" xMax="483" yMax="540">
      <contour>
        <pt x="143" y="304" on="1"/>
        <pt x="384" y="304" on="1"/>
        <pt x="378" y="376" on="0"/>
        <pt x="295" y="462" on="0"/>
        <pt x="217" y="462" on="1"/>
        <pt x="170" y="462" on="0"/>
        <pt x="101" y="437" on="0"/>
        <pt x="78" y="423" on="1"/>
        <pt x="48" y="491" on="1"/>
        <pt x="83" y="514" on="0"/>
        <pt x="175" y="540" on="0"/>
        <pt x="237" y="540" on="1"/>
        <pt x="300" y="540" on="0"/>
        <pt x="393" y="502" on="0"/>
        <pt x="454" y="430" on="0"/>
        <pt x="483" y="327" on="0"/>
        <pt x="483" y="262" on="1"/>
        <pt x="483" y="128" on="0"/>
        <pt x="347" y="-14" on="0"/>
        <pt x="228" y="-14" on="1"/>
        <pt x="174" y="-14" on="0"/>
        <pt x="78" y="3" on="0"/>
        <pt x="48" y="20" on="1"/>
        <pt x="73" y="96" on="1"/>
        <pt x="100" y="82" on="0"/>
        <pt x="176" y="64" on="0"/>
        <pt x="214" y="64" on="1"/>
        <pt x="295" y="64" on="0"/>
        <pt x="378" y="141" on="0"/>
        <pt x="385" y="226" on="1"/>
        <pt x="143" y="226" on="1"/>
      </contour>
    </TTGlyph>
    <TTGlyph name="afii10096" xMin="88" yMin="-14" xMax="781" yMax="540">
      <contour>
        <pt x="543" y="-14" on="1"/>
        <pt x="481" y="-14" on="0"/>
        <pt x="393" y="22" on="0"/>
        <pt x="335" y="86" on="0"/>
        <pt x="306" y="177" on="0"/>
        <pt x="302" y="232" on="1"/>
        <pt x="180" y="232" on="1"/>
        <pt x="180" y="0" on="1"/>
        <pt x="88" y="0" on="1"/>
        <pt x="88" y="525" on="1"/>
        <pt x="180" y="525" on="1"/>
        <pt x="180" y="310" on="1"/>
        <pt x="303" y="310" on="1"/>
        <pt x="313" y="419" on="0"/>
        <pt x="430" y="540" on="0"/>
        <pt x="545" y="540" on="1"/>
        <pt x="608" y="540" on="0"/>
        <pt x="697" y="499" on="0"/>
        <pt x="754" y="425" on="0"/>
        <pt x="781" y="323" on="0"/>
        <pt x="781" y="262" on="1"/>
        <pt x="781" y="132" on="0"/>
        <pt x="663" y="-14" on="0"/>
      </contour>
      <contour>
        <pt x="394" y="262" on="1"/>
        <pt x="394" y="221" on="0"/>
        <pt x="408" y="149" on="0"/>
        <pt x="442" y="95" on="0"/>
        <pt x="500" y="64" on="0"/>
        <pt x="544" y="64" on="1"/>
        <pt x="619" y="64" on="0"/>
        <pt x="683" y="160" on="0"/>
        <pt x="683" y="262" on="1"/>
        <pt x="683" y="302" on="0"/>
        <pt x="670" y="375" on="0"/>
        <pt x="638" y="430" on="0"/>
        <pt x="584" y="462" on="0"/>
        <pt x="543" y="462" on="1"/>
        <pt x="464" y="462" on="0"/>
        <pt x="394" y="365" on="0"/>
      </contour>
    </TTGlyph>
    <TTGlyph name="afii10097" xMin="40" yMin="0" xMax="490" yMax="539">
      <contour>
        <pt x="398" y="207" on="1"/>
        <pt x="303" y="194" on="1"/>
        <pt x="154" y="0" on="1"/>
        <pt x="40" y="0" on="1"/>
        <pt x="172" y="172" on="1"/>
        <pt x="172" y="171" on="1"/>
        <pt x="228" y="209" on="1"/>
        <pt x="158" y="217" on="0"/>
        <pt x="77" y="300" on="0"/>
        <pt x="77" y="360" on="1"/>
        <pt x="77" y="407" on="0"/>
        <pt x="113" y="475" on="0"/>
        <pt x="180" y="519" on="0"/>
        <pt x="275" y="539" on="0"/>
        <pt x="334" y="539" on="1"/>
        <pt x="372" y="539" on="0"/>
        <pt x="455" y="529" on="0"/>
        <pt x="490" y="521" on="1"/>
        <pt x="490" y="0" on="1"/>
        <pt x="398" y="0" on="1"/>
      </contour>
      <contour>
        <pt x="398" y="264" on="1"/>
        <pt x="398" y="453" on="1"/>
        <pt x="382" y="458" on="0"/>
        <pt x="341" y="461" on="0"/>
        <pt x="326" y="461" on="1"/>
        <pt x="251" y="461" on="0"/>
        <pt x="175" y="413" on="0"/>
        <pt x="175" y="361" on="1"/>
        <pt x="175" y="311" on="0"/>
        <pt x="264" y="261" on="0"/>
        <pt x="336" y="263" on="1"/>
      </contour>
    </TTGlyph>
    <TTGlyph name="afii10098" xMin="88" yMin="0" xMax="426" yMax="663">
      <contour>
        <pt x="342" y="525" on="1"/>
        <pt x="360" y="663" on="1"/>
        <pt x="426" y="663" on="1"/>
        <pt x="426" y="447" on="1"/>
        <pt x="180" y="447" on="1"/>
        <pt x="180" y="0" on="1"/>
        <pt x="88" y="0" on="1"/>
        <pt x="88" y="525" on="1"/>
      </contour>
    </TTGlyph>
    <TTGlyph name="afii10099" xMin="0" yMin="-206" xMax="564" yMax="700">
      <contour>
        <pt x="0" y="600" on="1"/>
        <pt x="97" y="600" on="1"/>
        <pt x="97" y="700" on="1"/>
        <pt x="189" y="700" on="1"/>
        <pt x="189" y="600" on="1"/>
        <pt x="357" y="600" on="1"/>
        <pt x="357" y="534" on="1"/>
        <pt x="189" y="534" on="1"/>
        <pt x="189" y="372" on="1"/>
        <pt x="200" y="372" on="1"/>
        <pt x="231" y="408" on="0"/>
        <pt x="315" y="450" on="0"/>
        <pt x="377" y="450" on="1"/>
        <pt x="425" y="450" on="0"/>
        <pt x="496" y="429" on="0"/>
        <pt x="542" y="376" on="0"/>
        <pt x="564" y="287" on="0"/>
        <pt x="564" y="218" on="1"/>
        <pt x="564" y="-24" on="1"/>
        <pt x="564" y="-117" on="0"/>
        <pt x="497" y="-206" on="0"/>
        <pt x="421" y="-206" on="1"/>
        <pt x="401" y="-206" on="0"/>
        <pt x="379" y="-203" on="1"/>
        <pt x="379" y="-128" on="1"/>
        <pt x="410" y="-129" on="0"/>
        <pt x="446" y="-114" on="0"/>
        <pt x="466" y="-82" on="0"/>
        <pt x="472" y="-32" on="0"/>
        <pt x="472" y="1" on="1"/>
        <pt x="472" y="201" on="1"/>
        <pt x="472" y="243" on="0"/>
        <pt x="461" y="306" on="0"/>
        <pt x="432" y="350" on="0"/>
        <pt x="383" y="372" on="0"/>
        <pt x="345" y="372" on="1"/>
        <pt x="318" y="372" on="0"/>
        <pt x="267" y="353" on="0"/>
        <pt x="225" y="319" on="0"/>
        <pt x="195" y="272" on="0"/>
        <pt x="189" y="244" on="1"/>
        <pt x="189" y="0" on="1"/>
        <pt x="97" y="0" on="1"/>
        <pt x="97" y="534" on="1"/>
        <pt x="0" y="534" on="1"/>
      </contour>
    </TTGlyph>
    <TTGlyph name="afii10100" xMin="88" yMin="0" xMax="426" yMax="720">
      <component glyphName="afii10068" x="0" y="0" flags="0x204"/>
      <component glyphName="acute" x="142" y="0" flags="0x4"/>
    </TTGlyph>
    <TTGlyph name="afii10101" xMin="60" yMin="-14" xMax="506" yMax="539">
      <contour>
        <pt x="506" y="35" on="1"/>
        <pt x="471" y="12" on="0"/>
        <pt x="373" y="-14" on="0"/>
        <pt x="321" y="-14" on="1"/>
        <pt x="255" y="-14" on="0"/>
        <pt x="157" y="26" on="0"/>
        <pt x="92" y="98" on="0"/>
        <pt x="60" y="200" on="0"/>
        <pt x="60" y="262" on="1"/>
        <pt x="60" y="328" on="0"/>
        <pt x="99" y="432" on="0"/>
        <pt x="169" y="502" on="0"/>
        <pt x="268" y="539" on="0"/>
        <pt x="327" y="539" on="1"/>
        <pt x="383" y="539" on="0"/>
        <pt x="465" y="522" on="0"/>
        <pt x="496" y="508" on="1"/>
        <pt x="471" y="430" on="1"/>
        <pt x="443" y="444" on="0"/>
        <pt x="377" y="461" on="0"/>
        <pt x="340" y="461" on="1"/>
        <pt x="262" y="461" on="0"/>
        <pt x="169" y="386" on="0"/>
        <pt x="158" y="305" on="1"/>
        <pt x="423" y="305" on="1"/>
        <pt x="423" y="227" on="1"/>
        <pt x="158" y="227" on="1"/>
        <pt x="162" y="193" on="0"/>
        <pt x="187" y="133" on="0"/>
        <pt x="233" y="89" on="0"/>
        <pt x="301" y="64" on="0"/>
        <pt x="349" y="64" on="1"/>
        <pt x="389" y="64" on="0"/>
        <pt x="457" y="88" on="0"/>
        <pt x="480" y="103" on="1"/>
      </contour>
    </TTGlyph>
    <TTGlyph name="afii10102" xMin="54" yMin="-14" xMax="445" yMax="540">
      <component glyphName="s" x="0" y="0" flags="0x204"/>
    </TTGlyph>
    <TTGlyph name="afii10103" xMin="92" yMin="0" xMax="224" yMax="710">
      <component glyphName="dotlessi" x="0" y="0" flags="0x204"/>
      <component glyphName="dotaccent" x="32" y="0" flags="0x4"/>
    </TTGlyph>
    <TTGlyph name="afii10103.alt" xMin="114" yMin="0" xMax="206" yMax="525">
      <component glyphName="dotlessi" x="0" y="0" flags="0x204"/>
    </TTGlyph>
    <TTGlyph name="afii10104" xMin="40" yMin="0" xMax="297" yMax="704">
      <contour>
        <pt x="40" y="649" on="1"/>
        <pt x="40" y="673" on="0"/>
        <pt x="68" y="704" on="0"/>
        <pt x="93" y="704" on="1"/>
        <pt x="119" y="704" on="0"/>
        <pt x="146" y="673" on="0"/>
        <pt x="146" y="649" on="1"/>
        <pt x="146" y="627" on="0"/>
        <pt x="119" y="597" on="0"/>
        <pt x="93" y="597" on="1"/>
        <pt x="68" y="597" on="0"/>
        <pt x="40" y="627" on="0"/>
      </contour>
      <contour>
        <pt x="191" y="649" on="1"/>
        <pt x="191" y="673" on="0"/>
        <pt x="218" y="704" on="0"/>
        <pt x="243" y="704" on="1"/>
        <pt x="269" y="704" on="0"/>
        <pt x="297" y="673" on="0"/>
        <pt x="297" y="649" on="1"/>
        <pt x="297" y="627" on="0"/>
        <pt x="269" y="597" on="0"/>
        <pt x="243" y="597" on="1"/>
        <pt x="218" y="597" on="0"/>
        <pt x="191" y="627" on="0"/>
      </contour>
      <contour>
        <pt x="125" y="525" on="1"/>
        <pt x="217" y="525" on="1"/>
        <pt x="217" y="0" on="1"/>
        <pt x="125" y="0" on="1"/>
      </contour>
    </TTGlyph>
    <TTGlyph name="afii10105" xMin="12" yMin="-210" xMax="222" yMax="710">
      <component glyphName="uni0237" x="0" y="0" flags="0x204"/>
      <component glyphName="dotaccent" x="30" y="0" flags="0x4"/>
    </TTGlyph>
    <TTGlyph name="afii10106" xMin="-6" yMin="-6" xMax="821" yMax="525">
      <contour>
        <pt x="496" y="324" on="1"/>
        <pt x="528" y="329" on="0"/>
        <pt x="582" y="332" on="0"/>
        <pt x="603" y="332" on="1"/>
        <pt x="663" y="332" on="0"/>
        <pt x="746" y="308" on="0"/>
        <pt x="798" y="266" on="0"/>
        <pt x="821" y="209" on="0"/>
        <pt x="821" y="176" on="1"/>
        <pt x="821" y="81" on="0"/>
        <pt x="695" y="-6" on="0"/>
        <pt x="561" y="-6" on="1"/>
        <pt x="519" y="-6" on="0"/>
        <pt x="443" y="-4" on="0"/>
        <pt x="404" y="-1" on="1"/>
        <pt x="404" y="447" on="1"/>
        <pt x="234" y="447" on="1"/>
        <pt x="232" y="417" on="1"/>
        <pt x="225" y="318" on="0"/>
        <pt x="206" y="161" on="0"/>
        <pt x="170" y="52" on="0"/>
        <pt x="110" y="-5" on="0"/>
        <pt x="62" y="-5" on="1"/>
        <pt x="40" y="-5" on="0"/>
        <pt x="6" y="0" on="0"/>
        <pt x="-6" y="5" on="1"/>
        <pt x="8" y="89" on="1"/>
        <pt x="21" y="85" on="0"/>
        <pt x="37" y="85" on="1"/>
        <pt x="61" y="85" on="0"/>
        <pt x="99" y="120" on="0"/>
        <pt x="127" y="216" on="0"/>
        <pt x="145" y="388" on="0"/>
        <pt x="149" y="525" on="1"/>
        <pt x="496" y="525" on="1"/>
      </contour>
      <contour>
        <pt x="496" y="78" on="1"/>
        <pt x="538" y="72" on="0"/>
        <pt x="581" y="72" on="1"/>
        <pt x="654" y="72" on="0"/>
        <pt x="723" y="123" on="0"/>
        <pt x="723" y="168" on="1"/>
        <pt x="723" y="208" on="0"/>
        <pt x="656" y="262" on="0"/>
        <pt x="584" y="262" on="1"/>
        <pt x="565" y="262" on="0"/>
        <pt x="519" y="259" on="0"/>
        <pt x="496" y="254" on="1"/>
      </contour>
    </TTGlyph>
    <TTGlyph name="afii10107" xMin="88" yMin="-6" xMax="886" yMax="525">
      <contour>
        <pt x="547" y="79" on="1"/>
        <pt x="575" y="75" on="0"/>
        <pt x="623" y="72" on="0"/>
        <pt x="643" y="72" on="1"/>
        <pt x="725" y="72" on="0"/>
        <pt x="788" y="123" on="0"/>
        <pt x="788" y="175" on="1"/>
        <pt x="788" y="197" on="0"/>
        <pt x="774" y="232" on="0"/>
        <pt x="741" y="257" on="0"/>
        <pt x="687" y="270" on="0"/>
        <pt x="647" y="270" on="1"/>
        <pt x="627" y="270" on="0"/>
        <pt x="576" y="266" on="0"/>
        <pt x="547" y="260" on="1"/>
      </contour>
      <contour>
        <pt x="547" y="336" on="1"/>
        <pt x="584" y="343" on="0"/>
        <pt x="647" y="348" on="0"/>
        <pt x="668" y="348" on="1"/>
        <pt x="730" y="348" on="0"/>
        <pt x="813" y="322" on="0"/>
        <pt x="864" y="277" on="0"/>
        <pt x="886" y="217" on="0"/>
        <pt x="886" y="183" on="1"/>
        <pt x="886" y="84" on="0"/>
        <pt x="763" y="-6" on="0"/>
        <pt x="622" y="-6" on="1"/>
        <pt x="580" y="-6" on="0"/>
        <pt x="496" y="0" on="0"/>
        <pt x="455" y="3" on="1"/>
        <pt x="455" y="230" on="1"/>
        <pt x="180" y="230" on="1"/>
        <pt x="180" y="0" on="1"/>
        <pt x="88" y="0" on="1"/>
        <pt x="88" y="525" on="1"/>
        <pt x="180" y="525" on="1"/>
        <pt x="180" y="312" on="1"/>
        <pt x="455" y="312" on="1"/>
        <pt x="455" y="525" on="1"/>
        <pt x="547" y="525" on="1"/>
      </contour>
    </TTGlyph>
    <TTGlyph name="afii10108" xMin="0" yMin="0" xMax="561" yMax="701">
      <contour>
        <pt x="0" y="600" on="1"/>
        <pt x="94" y="600" on="1"/>
        <pt x="94" y="701" on="1"/>
        <pt x="186" y="701" on="1"/>
        <pt x="186" y="600" on="1"/>
        <pt x="357" y="600" on="1"/>
        <pt x="357" y="534" on="1"/>
        <pt x="186" y="534" on="1"/>
        <pt x="186" y="372" on="1"/>
        <pt x="198" y="372" on="1"/>
        <pt x="230" y="408" on="0"/>
        <pt x="313" y="449" on="0"/>
        <pt x="375" y="449" on="1"/>
        <pt x="423" y="449" on="0"/>
        <pt x="493" y="429" on="0"/>
        <pt x="539" y="377" on="0"/>
        <pt x="561" y="288" on="0"/>
        <pt x="561" y="220" on="1"/>
        <pt x="561" y="0" on="1"/>
        <pt x="469" y="0" on="1"/>
        <pt x="469" y="199" on="1"/>
        <pt x="469" y="242" on="0"/>
        <pt x="458" y="306" on="0"/>
        <pt x="429" y="349" on="0"/>
        <pt x="380" y="371" on="0"/>
        <pt x="342" y="371" on="1"/>
        <pt x="315" y="371" on="0"/>
        <pt x="265" y="352" on="0"/>
        <pt x="223" y="318" on="0"/>
        <pt x="193" y="273" on="0"/>
        <pt x="186" y="246" on="1"/>
        <pt x="186" y="0" on="1"/>
        <pt x="94" y="0" on="1"/>
        <pt x="94" y="534" on="1"/>
        <pt x="0" y="534" on="1"/>
      </contour>
    </TTGlyph>
    <TTGlyph name="afii10109" xMin="88" yMin="0" xMax="541" yMax="720">
      <component glyphName="afii10076" x="0" y="0" flags="0x204"/>
      <component glyphName="acute" x="181" y="0" flags="0x4"/>
    </TTGlyph>
    <TTGlyph name="afii10110" xMin="8" yMin="-205" xMax="523" yMax="712">
      <component glyphName="y" x="0" y="0" flags="0x204"/>
      <component glyphName="uniF6D4" x="51" y="0" flags="0x4"/>
    </TTGlyph>
    <TTGlyph name="afii10145" xMin="89" yMin="-178" xMax="630" yMax="700">
      <contour>
        <pt x="189" y="700" on="1"/>
        <pt x="189" y="88" on="1"/>
        <pt x="530" y="88" on="1"/>
        <pt x="530" y="700" on="1"/>
        <pt x="630" y="700" on="1"/>
        <pt x="630" y="0" on="1"/>
        <pt x="410" y="0" on="1"/>
        <pt x="394" y="-178" on="1"/>
        <pt x="331" y="-178" on="1"/>
        <pt x="309" y="0" on="1"/>
        <pt x="89" y="0" on="1"/>
        <pt x="89" y="700" on="1"/>
      </contour>
    </TTGlyph>
    <TTGlyph name="afii10146" xMin="0" yMin="-9" xMax="648" yMax="720">
      <contour>
        <pt x="0" y="627" on="1"/>
        <pt x="162" y="627" on="1"/>
        <pt x="162" y="720" on="1"/>
        <pt x="262" y="720" on="1"/>
        <pt x="262" y="627" on="1"/>
        <pt x="487" y="627" on="1"/>
        <pt x="487" y="545" on="1"/>
        <pt x="262" y="545" on="1"/>
        <pt x="262" y="431" on="1"/>
        <pt x="268" y="432" on="0"/>
        <pt x="293" y="435" on="0"/>
        <pt x="324" y="438" on="0"/>
        <pt x="356" y="440" on="0"/>
        <pt x="369" y="440" on="1"/>
        <pt x="421" y="440" on="0"/>
        <pt x="521" y="420" on="0"/>
        <pt x="600" y="372" on="0"/>
        <pt x="648" y="290" on="0"/>
        <pt x="648" y="228" on="1"/>
        <pt x="648" y="168" on="0"/>
        <pt x="601" y="78" on="0"/>
        <pt x="520" y="20" on="0"/>
        <pt x="410" y="-9" on="0"/>
        <pt x="346" y="-9" on="1"/>
        <pt x="331" y="-9" on="0"/>
        <pt x="286" y="-8" on="0"/>
        <pt x="235" y="-4" on="0"/>
        <pt x="184" y="2" on="0"/>
        <pt x="162" y="7" on="1"/>
        <pt x="162" y="545" on="1"/>
        <pt x="0" y="545" on="1"/>
      </contour>
      <contour>
        <pt x="358" y="77" on="1"/>
        <pt x="395" y="77" on="0"/>
        <pt x="462" y="94" on="0"/>
        <pt x="512" y="130" on="0"/>
        <pt x="542" y="184" on="0"/>
        <pt x="542" y="221" on="1"/>
        <pt x="542" y="261" on="0"/>
        <pt x="510" y="313" on="0"/>
        <pt x="457" y="343" on="0"/>
        <pt x="390" y="354" on="0"/>
        <pt x="354" y="354" on="1"/>
        <pt x="345" y="354" on="0"/>
        <pt x="317" y="352" on="0"/>
        <pt x="290" y="350" on="0"/>
        <pt x="267" y="346" on="0"/>
        <pt x="262" y="345" on="1"/>
        <pt x="262" y="83" on="1"/>
        <pt x="276" y="79" on="0"/>
        <pt x="331" y="77" on="0"/>
      </contour>
    </TTGlyph>
    <TTGlyph name="afii10147" xMin="58" yMin="-13" xMax="689" yMax="713">
      <contour>
        <pt x="58" y="350" on="1"/>
        <pt x="58" y="436" on="0"/>
        <pt x="101" y="571" on="0"/>
        <pt x="182" y="664" on="0"/>
        <pt x="299" y="713" on="0"/>
        <pt x="373" y="713" on="1"/>
        <pt x="452" y="713" on="0"/>
        <pt x="571" y="660" on="0"/>
        <pt x="650" y="565" on="0"/>
        <pt x="689" y="431" on="0"/>
        <pt x="689" y="350" on="1"/>
        <pt x="689" y="264" on="0"/>
        <pt x="646" y="129" on="0"/>
        <pt x="564" y="36" on="0"/>
        <pt x="447" y="-13" on="0"/>
        <pt x="373" y="-13" on="1"/>
        <pt x="293" y="-13" on="0"/>
        <pt x="175" y="40" on="0"/>
        <pt x="97" y="135" on="0"/>
        <pt x="58" y="269" on="0"/>
      </contour>
      <contour>
        <pt x="164" y="312" on="1"/>
        <pt x="168" y="262" on="0"/>
        <pt x="197" y="174" on="0"/>
        <pt x="249" y="110" on="0"/>
        <pt x="323" y="73" on="0"/>
        <pt x="373" y="73" on="1"/>
        <pt x="463" y="73" on="0"/>
        <pt x="575" y="189" on="0"/>
        <pt x="583" y="312" on="1"/>
      </contour>
      <contour>
        <pt x="583" y="396" on="1"/>
        <pt x="578" y="444" on="0"/>
        <pt x="548" y="528" on="0"/>
        <pt x="496" y="591" on="0"/>
        <pt x="422" y="627" on="0"/>
        <pt x="373" y="627" on="1"/>
        <pt x="285" y="627" on="0"/>
        <pt x="174" y="514" on="0"/>
        <pt x="165" y="396" on="1"/>
      </contour>
    </TTGlyph>
    <TTGlyph name="afii10148" xMin="-5" yMin="-10" xMax="723" yMax="708">
      <contour>
        <pt x="340" y="-10" on="1"/>
        <pt x="289" y="-10" on="1"/>
        <pt x="-5" y="700" on="1"/>
        <pt x="105" y="700" on="1"/>
        <pt x="294" y="234" on="1"/>
        <pt x="321" y="125" on="1"/>
        <pt x="323" y="125" on="1"/>
        <pt x="341" y="236" on="1"/>
        <pt x="423" y="487" on="1"/>
        <pt x="445" y="553" on="0"/>
        <pt x="484" y="639" on="0"/>
        <pt x="528" y="689" on="0"/>
        <pt x="582" y="708" on="0"/>
        <pt x="620" y="708" on="1"/>
        <pt x="658" y="708" on="0"/>
        <pt x="703" y="695" on="0"/>
        <pt x="723" y="684" on="1"/>
        <pt x="696" y="602" on="1"/>
        <pt x="674" y="614" on="0"/>
        <pt x="637" y="620" on="0"/>
        <pt x="620" y="620" on="1"/>
        <pt x="591" y="620" on="0"/>
        <pt x="551" y="577" on="0"/>
        <pt x="531" y="518" on="1"/>
      </contour>
    </TTGlyph>
    <TTGlyph name="afii10193" xMin="88" yMin="-178" xMax="530" yMax="525">
      <contour>
        <pt x="180" y="525" on="1"/>
        <pt x="180" y="78" on="1"/>
        <pt x="438" y="78" on="1"/>
        <pt x="438" y="525" on="1"/>
        <pt x="530" y="525" on="1"/>
        <pt x="530" y="0" on="1"/>
        <pt x="361" y="0" on="1"/>
        <pt x="345" y="-178" on="1"/>
        <pt x="282" y="-178" on="1"/>
        <pt x="260" y="0" on="1"/>
        <pt x="88" y="0" on="1"/>
        <pt x="88" y="525" on="1"/>
      </contour>
    </TTGlyph>
    <TTGlyph name="afii10194" xMin="0" yMin="-6" xMax="546" yMax="700">
      <contour>
        <pt x="0" y="525" on="1"/>
        <pt x="129" y="525" on="1"/>
        <pt x="129" y="700" on="1"/>
        <pt x="221" y="700" on="1"/>
        <pt x="221" y="525" on="1"/>
        <pt x="406" y="525" on="1"/>
        <pt x="406" y="453" on="1"/>
        <pt x="221" y="453" on="1"/>
        <pt x="221" y="324" on="1"/>
        <pt x="255" y="328" on="0"/>
        <pt x="310" y="332" on="0"/>
        <pt x="330" y="332" on="1"/>
        <pt x="389" y="332" on="0"/>
        <pt x="471" y="308" on="0"/>
        <pt x="523" y="266" on="0"/>
        <pt x="546" y="208" on="0"/>
        <pt x="546" y="175" on="1"/>
        <pt x="546" y="81" on="0"/>
        <pt x="420" y="-6" on="0"/>
        <pt x="286" y="-6" on="1"/>
        <pt x="247" y="-6" on="0"/>
        <pt x="167" y="-5" on="0"/>
        <pt x="129" y="-2" on="1"/>
        <pt x="129" y="453" on="1"/>
        <pt x="0" y="453" on="1"/>
      </contour>
      <contour>
        <pt x="221" y="77" on="1"/>
        <pt x="246" y="74" on="0"/>
        <pt x="288" y="72" on="0"/>
        <pt x="306" y="72" on="1"/>
        <pt x="381" y="72" on="0"/>
        <pt x="448" y="120" on="0"/>
        <pt x="448" y="168" on="1"/>
        <pt x="448" y="211" on="0"/>
        <pt x="382" y="262" on="0"/>
        <pt x="311" y="262" on="1"/>
        <pt x="291" y="262" on="0"/>
        <pt x="245" y="259" on="0"/>
        <pt x="221" y="254" on="1"/>
      </contour>
    </TTGlyph>
    <TTGlyph name="afii10195" xMin="60" yMin="-14" xMax="571" yMax="540">
      <contour>
        <pt x="60" y="262" on="1"/>
        <pt x="60" y="394" on="0"/>
        <pt x="192" y="540" on="0"/>
        <pt x="316" y="540" on="1"/>
        <pt x="380" y="540" on="0"/>
        <pt x="476" y="499" on="0"/>
        <pt x="539" y="425" on="0"/>
        <pt x="570" y="323" on="0"/>
        <pt x="571" y="262" on="1"/>
        <pt x="570" y="131" on="0"/>
        <pt x="437" y="-14" on="0"/>
        <pt x="316" y="-14" on="1"/>
        <pt x="250" y="-14" on="0"/>
        <pt x="153" y="27" on="0"/>
        <pt x="90" y="100" on="0"/>
        <pt x="60" y="202" on="0"/>
      </contour>
      <contour>
        <pt x="473" y="295" on="1"/>
        <pt x="460" y="378" on="0"/>
        <pt x="380" y="462" on="0"/>
        <pt x="316" y="462" on="1"/>
        <pt x="286" y="462" on="0"/>
        <pt x="232" y="445" on="0"/>
        <pt x="188" y="405" on="0"/>
        <pt x="160" y="341" on="0"/>
        <pt x="158" y="295" on="1"/>
      </contour>
      <contour>
        <pt x="159" y="229" on="1"/>
        <pt x="166" y="151" on="0"/>
        <pt x="253" y="64" on="0"/>
        <pt x="316" y="64" on="1"/>
        <pt x="344" y="64" on="0"/>
        <pt x="396" y="82" on="0"/>
        <pt x="438" y="121" on="0"/>
        <pt x="466" y="184" on="0"/>
        <pt x="470" y="229" on="1"/>
      </contour>
    </TTGlyph>
    <TTGlyph name="afii10196" xMin="8" yMin="-11" xMax="610" yMax="534">
      <contour>
        <pt x="298" y="-11" on="1"/>
        <pt x="258" y="-11" on="1"/>
        <pt x="8" y="525" on="1"/>
        <pt x="114" y="525" on="1"/>
        <pt x="249" y="224" on="1"/>
        <pt x="281" y="103" on="1"/>
        <pt x="289" y="104" on="1"/>
        <pt x="319" y="225" on="1"/>
        <pt x="366" y="334" on="1"/>
        <pt x="384" y="377" on="0"/>
        <pt x="419" y="450" on="0"/>
        <pt x="460" y="504" on="0"/>
        <pt x="509" y="534" on="0"/>
        <pt x="541" y="534" on="1"/>
        <pt x="561" y="534" on="0"/>
        <pt x="595" y="527" on="0"/>
        <pt x="610" y="522" on="1"/>
        <pt x="595" y="444" on="1"/>
        <pt x="584" y="448" on="0"/>
        <pt x="567" y="452" on="0"/>
        <pt x="558" y="452" on="1"/>
        <pt x="537" y="452" on="0"/>
        <pt x="496" y="417" on="0"/>
        <pt x="474" y="372" on="1"/>
      </contour>
    </TTGlyph>
    <TTGlyph name="afii10846" xMin="64" yMin="-14" xMax="539" yMax="539">
      <contour>
        <pt x="84" y="481" on="1"/>
        <pt x="120" y="507" on="0"/>
        <pt x="223" y="539" on="0"/>
        <pt x="282" y="539" on="1"/>
        <pt x="349" y="539" on="0"/>
        <pt x="446" y="498" on="0"/>
        <pt x="509" y="425" on="0"/>
        <pt x="539" y="323" on="0"/>
        <pt x="539" y="262" on="1"/>
        <pt x="539" y="197" on="0"/>
        <pt x="505" y="95" on="0"/>
        <pt x="442" y="24" on="0"/>
        <pt x="350" y="-14" on="0"/>
        <pt x="292" y="-14" on="1"/>
        <pt x="249" y="-14" on="0"/>
        <pt x="167" y="8" on="0"/>
        <pt x="103" y="61" on="0"/>
        <pt x="64" y="150" on="0"/>
        <pt x="64" y="218" on="1"/>
        <pt x="64" y="232" on="0"/>
        <pt x="66" y="271" on="0"/>
        <pt x="69" y="292" on="1"/>
        <pt x="444" y="292" on="1"/>
        <pt x="439" y="337" on="0"/>
        <pt x="418" y="402" on="0"/>
        <pt x="375" y="442" on="0"/>
        <pt x="307" y="461" on="0"/>
        <pt x="257" y="461" on="1"/>
        <pt x="218" y="461" on="0"/>
        <pt x="140" y="433" on="0"/>
        <pt x="116" y="415" on="1"/>
      </contour>
      <contour>
        <pt x="293" y="64" on="1"/>
        <pt x="358" y="64" on="0"/>
        <pt x="440" y="148" on="0"/>
        <pt x="441" y="226" on="1"/>
        <pt x="158" y="226" on="1"/>
        <pt x="155" y="142" on="0"/>
        <pt x="230" y="64" on="0"/>
      </contour>
    </TTGlyph>
    <TTGlyph name="afii57929" xMin="44" yMin="491" xMax="174" yMax="708">
      <component glyphName="quoteright" x="0" y="0" flags="0x204"/>
    </TTGlyph>
    <TTGlyph name="afii61289" xMin="73" yMin="-12" xMax="406" yMax="712">
      <contour>
        <pt x="406" y="30" on="1"/>
        <pt x="384" y="16" on="0"/>
        <pt x="313" y="-12" on="0"/>
        <pt x="278" y="-12" on="1"/>
        <pt x="215" y="-12" on="0"/>
        <pt x="158" y="49" on="0"/>
        <pt x="158" y="114" on="1"/>
        <pt x="158" y="218" on="1"/>
        <pt x="108" y="174" on="1"/>
        <pt x="73" y="218" on="1"/>
        <pt x="158" y="292" on="1"/>
        <pt x="158" y="546" on="1"/>
        <pt x="158" y="590" on="0"/>
        <pt x="178" y="653" on="0"/>
        <pt x="213" y="693" on="0"/>
        <pt x="260" y="712" on="0"/>
        <pt x="287" y="712" on="1"/>
        <pt x="335" y="712" on="0"/>
        <pt x="397" y="653" on="0"/>
        <pt x="397" y="593" on="1"/>
        <pt x="397" y="519" on="0"/>
        <pt x="317" y="353" on="0"/>
        <pt x="226" y="265" on="1"/>
        <pt x="226" y="125" on="1"/>
        <pt x="226" y="81" on="0"/>
        <pt x="260" y="48" on="0"/>
        <pt x="284" y="48" on="1"/>
        <pt x="309" y="48" on="0"/>
        <pt x="369" y="69" on="0"/>
        <pt x="389" y="80" on="1"/>
      </contour>
      <contour>
        <pt x="333" y="588" on="1"/>
        <pt x="333" y="622" on="0"/>
        <pt x="305" y="652" on="0"/>
        <pt x="287" y="652" on="1"/>
        <pt x="275" y="652" on="0"/>
        <pt x="253" y="645" on="0"/>
        <pt x="236" y="624" on="0"/>
        <pt x="226" y="587" on="0"/>
        <pt x="226" y="557" on="1"/>
        <pt x="226" y="345" on="1"/>
        <pt x="282" y="410" on="0"/>
        <pt x="333" y="531" on="0"/>
      </contour>
    </TTGlyph>
    <TTGlyph name="afii61352" xMin="89" yMin="-10" xMax="1055" yMax="712">
      <contour>
        <pt x="731" y="314" on="1"/>
        <pt x="1040" y="314" on="1"/>
        <pt x="1040" y="230" on="1"/>
        <pt x="731" y="230" on="1"/>
      </contour>
      <contour>
        <pt x="237" y="438" on="1"/>
        <pt x="176" y="538" on="1"/>
        <pt x="172" y="538" on="1"/>
        <pt x="184" y="442" on="1"/>
        <pt x="184" y="0" on="1"/>
        <pt x="89" y="0" on="1"/>
        <pt x="89" y="710" on="1"/>
        <pt x="146" y="710" on="1"/>
        <pt x="482" y="264" on="1"/>
        <pt x="539" y="167" on="1"/>
        <pt x="544" y="167" on="1"/>
        <pt x="532" y="260" on="1"/>
        <pt x="532" y="700" on="1"/>
        <pt x="627" y="700" on="1"/>
        <pt x="627" y="-10" on="1"/>
        <pt x="570" y="-10" on="1"/>
      </contour>
      <contour>
        <pt x="710" y="542" on="1"/>
        <pt x="710" y="586" on="0"/>
        <pt x="736" y="650" on="0"/>
        <pt x="782" y="692" on="0"/>
        <pt x="845" y="712" on="0"/>
        <pt x="882" y="712" on="1"/>
        <pt x="919" y="712" on="0"/>
        <pt x="982" y="693" on="0"/>
        <pt x="1029" y="653" on="0"/>
        <pt x="1055" y="588" on="0"/>
        <pt x="1055" y="542" on="1"/>
        <pt x="1055" y="496" on="0"/>
        <pt x="1029" y="431" on="0"/>
        <pt x="982" y="391" on="0"/>
        <pt x="919" y="372" on="0"/>
        <pt x="882" y="372" on="1"/>
        <pt x="845" y="372" on="0"/>
        <pt x="782" y="391" on="0"/>
        <pt x="736" y="431" on="0"/>
        <pt x="710" y="496" on="0"/>
      </contour>
      <contour>
        <pt x="798" y="542" on="1"/>
        <pt x="798" y="488" on="0"/>
        <pt x="841" y="437" on="0"/>
        <pt x="882" y="437" on="1"/>
        <pt x="922" y="437" on="0"/>
        <pt x="967" y="483" on="0"/>
        <pt x="967" y="542" on="1"/>
        <pt x="967" y="602" on="0"/>
        <pt x="923" y="647" on="0"/>
        <pt x="882" y="647" on="1"/>
        <pt x="842" y="647" on="0"/>
        <pt x="798" y="602" on="0"/>
      </contour>
    </TTGlyph>
    <TTGlyph name="agrave" xMin="45" yMin="-8" xMax="498" yMax="720">
      <component glyphName="a" x="0" y="0" flags="0x204"/>
      <component glyphName="grave" x="101" y="0" flags="0x4"/>
    </TTGlyph>
    <TTGlyph name="amacron" xMin="45" yMin="-8" xMax="498" yMax="666">
      <component glyphName="a" x="0" y="0" flags="0x204"/>
      <component glyphName="macron" x="54" y="0" flags="0x4"/>
    </TTGlyph>
    <TTGlyph name="ampersand" xMin="125" yMin="-13" xMax="807" yMax="713">
      <contour>
        <pt x="125" y="189" on="1"/>
        <pt x="125" y="229" on="0"/>
        <pt x="155" y="300" on="0"/>
        <pt x="206" y="363" on="0"/>
        <pt x="273" y="415" on="0"/>
        <pt x="310" y="435" on="1"/>
        <pt x="284" y="470" on="0"/>
        <pt x="247" y="541" on="0"/>
        <pt x="247" y="582" on="1"/>
        <pt x="247" y="606" on="0"/>
        <pt x="265" y="653" on="0"/>
        <pt x="304" y="690" on="0"/>
        <pt x="366" y="713" on="0"/>
        <pt x="410" y="713" on="1"/>
        <pt x="456" y="713" on="0"/>
        <pt x="519" y="691" on="0"/>
        <pt x="557" y="656" on="0"/>
        <pt x="573" y="612" on="0"/>
        <pt x="573" y="590" on="1"/>
        <pt x="573" y="549" on="0"/>
        <pt x="504" y="459" on="0"/>
        <pt x="427" y="420" on="1"/>
        <pt x="465" y="362" on="0"/>
        <pt x="567" y="246" on="0"/>
        <pt x="620" y="196" on="1"/>
        <pt x="632" y="208" on="0"/>
        <pt x="657" y="244" on="0"/>
        <pt x="679" y="286" on="0"/>
        <pt x="699" y="329" on="0"/>
        <pt x="706" y="349" on="1"/>
        <pt x="778" y="312" on="1"/>
        <pt x="772" y="295" on="0"/>
        <pt x="748" y="249" on="0"/>
        <pt x="719" y="202" on="0"/>
        <pt x="689" y="159" on="0"/>
        <pt x="676" y="144" on="1"/>
        <pt x="698" y="125" on="0"/>
        <pt x="733" y="98" on="0"/>
        <pt x="764" y="78" on="0"/>
        <pt x="792" y="62" on="0"/>
        <pt x="807" y="55" on="1"/>
        <pt x="751" y="-13" on="1"/>
        <pt x="723" y="1" on="0"/>
        <pt x="656" y="47" on="0"/>
        <pt x="621" y="79" on="1"/>
        <pt x="601" y="61" on="0"/>
        <pt x="554" y="28" on="0"/>
        <pt x="495" y="3" on="0"/>
        <pt x="423" y="-13" on="0"/>
        <pt x="380" y="-13" on="1"/>
        <pt x="328" y="-13" on="0"/>
        <pt x="236" y="14" on="0"/>
        <pt x="166" y="66" on="0"/>
        <pt x="125" y="141" on="0"/>
      </contour>
      <contour>
        <pt x="563" y="136" on="1"/>
        <pt x="533" y="164" on="0"/>
        <pt x="472" y="230" on="0"/>
        <pt x="418" y="295" on="0"/>
        <pt x="371" y="355" on="0"/>
        <pt x="354" y="378" on="1"/>
        <pt x="295" y="338" on="0"/>
        <pt x="220" y="251" on="0"/>
        <pt x="220" y="193" on="1"/>
        <pt x="220" y="164" on="0"/>
        <pt x="248" y="117" on="0"/>
        <pt x="295" y="84" on="0"/>
        <pt x="358" y="67" on="0"/>
        <pt x="393" y="67" on="1"/>
        <pt x="419" y="67" on="0"/>
        <pt x="470" y="79" on="0"/>
        <pt x="515" y="98" on="0"/>
        <pt x="551" y="123" on="0"/>
      </contour>
      <contour>
        <pt x="342" y="580" on="1"/>
        <pt x="342" y="552" on="0"/>
        <pt x="367" y="497" on="0"/>
        <pt x="388" y="468" on="1"/>
        <pt x="444" y="500" on="0"/>
        <pt x="489" y="552" on="0"/>
        <pt x="489" y="572" on="1"/>
        <pt x="489" y="604" on="0"/>
        <pt x="456" y="641" on="0"/>
        <pt x="414" y="641" on="1"/>
        <pt x="376" y="641" on="0"/>
        <pt x="342" y="608" on="0"/>
      </contour>
    </TTGlyph>
    <TTGlyph name="aogonek" xMin="45" yMin="-207" xMax="540" yMax="535">
      <contour>
        <pt x="82" y="492" on="1"/>
        <pt x="172" y="535" on="0"/>
        <pt x="305" y="535" on="1"/>
        <pt x="365" y="535" on="0"/>
        <pt x="438" y="504" on="0"/>
        <pt x="478" y="456" on="0"/>
        <pt x="491" y="397" on="0"/>
        <pt x="491" y="368" on="1"/>
        <pt x="491" y="313" on="0"/>
        <pt x="483" y="202" on="0"/>
        <pt x="483" y="137" on="1"/>
        <pt x="483" y="99" on="0"/>
        <pt x="490" y="28" on="0"/>
        <pt x="498" y="-2" on="1"/>
        <pt x="487" y="-2" on="1"/>
        <pt x="456" y="-18" on="0"/>
        <pt x="420" y="-62" on="0"/>
        <pt x="421" y="-91" on="1"/>
        <pt x="422" y="-114" on="0"/>
        <pt x="452" y="-146" on="0"/>
        <pt x="481" y="-146" on="1"/>
        <pt x="491" y="-146" on="0"/>
        <pt x="515" y="-141" on="0"/>
        <pt x="528" y="-136" on="1"/>
        <pt x="540" y="-182" on="1"/>
        <pt x="523" y="-194" on="0"/>
        <pt x="463" y="-207" on="0"/>
        <pt x="436" y="-207" on="1"/>
        <pt x="385" y="-207" on="0"/>
        <pt x="326" y="-158" on="0"/>
        <pt x="326" y="-115" on="1"/>
        <pt x="326" y="-77" on="0"/>
        <pt x="384" y="-19" on="0"/>
        <pt x="433" y="-2" on="1"/>
        <pt x="431" y="-2" on="1"/>
        <pt x="406" y="78" on="1"/>
        <pt x="396" y="78" on="1"/>
        <pt x="385" y="63" on="0"/>
        <pt x="353" y="32" on="0"/>
        <pt x="309" y="8" on="0"/>
        <pt x="252" y="-8" on="0"/>
        <pt x="215" y="-8" on="1"/>
        <pt x="178" y="-8" on="0"/>
        <pt x="116" y="13" on="0"/>
        <pt x="71" y="51" on="0"/>
        <pt x="45" y="106" on="0"/>
        <pt x="45" y="140" on="1"/>
        <pt x="45" y="185" on="0"/>
        <pt x="84" y="251" on="0"/>
        <pt x="146" y="293" on="0"/>
        <pt x="225" y="313" on="0"/>
        <pt x="264" y="313" on="1"/>
        <pt x="295" y="313" on="0"/>
        <pt x="338" y="311" on="0"/>
        <pt x="367" y="308" on="0"/>
        <pt x="387" y="305" on="0"/>
        <pt x="395" y="304" on="1"/>
        <pt x="397" y="319" on="0"/>
        <pt x="399" y="341" on="0"/>
        <pt x="399" y="358" on="1"/>
        <pt x="399" y="386" on="0"/>
        <pt x="387" y="424" on="0"/>
        <pt x="360" y="447" on="0"/>
        <pt x="314" y="457" on="0"/>
        <pt x="281" y="457" on="1"/>
        <pt x="262" y="457" on="0"/>
        <pt x="216" y="451" on="0"/>
        <pt x="170" y="440" on="0"/>
        <pt x="125" y="424" on="0"/>
        <pt x="107" y="415" on="1"/>
      </contour>
      <contour>
        <pt x="395" y="238" on="1"/>
        <pt x="387" y="239" on="0"/>
        <pt x="369" y="243" on="0"/>
        <pt x="342" y="245" on="0"/>
        <pt x="305" y="247" on="0"/>
        <pt x="278" y="247" on="1"/>
        <pt x="216" y="247" on="0"/>
        <pt x="143" y="203" on="0"/>
        <pt x="143" y="150" on="1"/>
        <pt x="143" y="110" on="0"/>
        <pt x="200" y="70" on="0"/>
        <pt x="245" y="70" on="1"/>
        <pt x="278" y="70" on="0"/>
        <pt x="329" y="87" on="0"/>
        <pt x="366" y="112" on="0"/>
        <pt x="389" y="143" on="0"/>
        <pt x="395" y="158" on="1"/>
      </contour>
    </TTGlyph>
    <TTGlyph name="approxequal" xMin="34" yMin="202" xMax="520" yMax="511">
      <component glyphName="asciitilde" x="0" y="86" flags="0x204"/>
      <component glyphName="asciitilde" x="0" y="-86" flags="0x4"/>
    </TTGlyph>
    <TTGlyph name="aring" xMin="45" yMin="-8" xMax="498" yMax="778">
      <component glyphName="a" x="0" y="0" flags="0x204"/>
      <component glyphName="ring" x="112" y="0" flags="0x4"/>
    </TTGlyph>
    <TTGlyph name="asciicircum" xMin="61" yMin="430" xMax="492" yMax="710">
      <contour>
        <pt x="266" y="710" on="1"/>
        <pt x="304" y="710" on="1"/>
        <pt x="492" y="430" on="1"/>
        <pt x="394" y="430" on="1"/>
        <pt x="309" y="562" on="1"/>
        <pt x="283" y="631" on="1"/>
        <pt x="251" y="561" on="1"/>
        <pt x="151" y="430" on="1"/>
        <pt x="61" y="430" on="1"/>
      </contour>
    </TTGlyph>
    <TTGlyph name="asciitilde" xMin="34" yMin="288" xMax="520" yMax="425">
      <contour>
        <pt x="34" y="365" on="1"/>
        <pt x="82" y="399" on="0"/>
        <pt x="158" y="425" on="0"/>
        <pt x="190" y="425" on="1"/>
        <pt x="221" y="425" on="0"/>
        <pt x="273" y="408" on="0"/>
        <pt x="322" y="388" on="0"/>
        <pt x="368" y="371" on="0"/>
        <pt x="393" y="371" on="1"/>
        <pt x="413" y="371" on="0"/>
        <pt x="457" y="386" on="0"/>
        <pt x="483" y="406" on="1"/>
        <pt x="520" y="335" on="1"/>
        <pt x="479" y="309" on="0"/>
        <pt x="415" y="288" on="0"/>
        <pt x="388" y="288" on="1"/>
        <pt x="359" y="288" on="0"/>
        <pt x="310" y="305" on="0"/>
        <pt x="263" y="326" on="0"/>
        <pt x="217" y="344" on="0"/>
        <pt x="190" y="344" on="1"/>
        <pt x="165" y="344" on="0"/>
        <pt x="107" y="322" on="0"/>
        <pt x="70" y="295" on="1"/>
      </contour>
    </TTGlyph>
    <TTGlyph name="asterisk" xMin="45" yMin="441" xMax="341" yMax="724">
      <contour>
        <pt x="144" y="724" on="1"/>
        <pt x="172" y="680" on="1"/>
        <pt x="191" y="621" on="1"/>
        <pt x="212" y="679" on="1"/>
        <pt x="239" y="724" on="1"/>
        <pt x="293" y="694" on="1"/>
        <pt x="264" y="647" on="1"/>
        <pt x="214" y="598" on="1"/>
        <pt x="288" y="612" on="1"/>
        <pt x="341" y="612" on="1"/>
        <pt x="341" y="549" on="1"/>
        <pt x="290" y="549" on="1"/>
        <pt x="221" y="563" on="1"/>
        <pt x="271" y="513" on="1"/>
        <pt x="296" y="472" on="1"/>
        <pt x="243" y="441" on="1"/>
        <pt x="215" y="486" on="1"/>
        <pt x="190" y="549" on="1"/>
        <pt x="171" y="489" on="1"/>
        <pt x="144" y="444" on="1"/>
        <pt x="87" y="475" on="1"/>
        <pt x="117" y="520" on="1"/>
        <pt x="163" y="563" on="1"/>
        <pt x="100" y="549" on="1"/>
        <pt x="45" y="549" on="1"/>
        <pt x="45" y="612" on="1"/>
        <pt x="100" y="612" on="1"/>
        <pt x="168" y="598" on="1"/>
        <pt x="118" y="645" on="1"/>
        <pt x="89" y="693" on="1"/>
      </contour>
    </TTGlyph>
    <TTGlyph name="at" xMin="93" yMin="-218" xMax="1070" yMax="730">
      <contour>
        <pt x="770" y="490" on="1"/>
        <pt x="812" y="490" on="1"/>
        <pt x="756" y="208" on="1"/>
        <pt x="744" y="145" on="0"/>
        <pt x="752" y="85" on="0"/>
        <pt x="788" y="85" on="1"/>
        <pt x="824" y="85" on="0"/>
        <pt x="895" y="119" on="0"/>
        <pt x="950" y="182" on="0"/>
        <pt x="985" y="271" on="0"/>
        <pt x="985" y="326" on="1"/>
        <pt x="985" y="405" on="0"/>
        <pt x="927" y="526" on="0"/>
        <pt x="825" y="608" on="0"/>
        <pt x="684" y="650" on="0"/>
        <pt x="602" y="650" on="1"/>
        <pt x="513" y="650" on="0"/>
        <pt x="359" y="588" on="0"/>
        <pt x="245" y="479" on="0"/>
        <pt x="179" y="330" on="0"/>
        <pt x="179" y="242" on="1"/>
        <pt x="179" y="155" on="0"/>
        <pt x="237" y="14" on="0"/>
        <pt x="346" y="-85" on="0"/>
        <pt x="501" y="-138" on="0"/>
        <pt x="597" y="-138" on="1"/>
        <pt x="629" y="-138" on="0"/>
        <pt x="708" y="-123" on="0"/>
        <pt x="741" y="-109" on="1"/>
        <pt x="764" y="-184" on="1"/>
        <pt x="716" y="-204" on="0"/>
        <pt x="632" y="-218" on="0"/>
        <pt x="582" y="-218" on="1"/>
        <pt x="478" y="-218" on="0"/>
        <pt x="300" y="-157" on="0"/>
        <pt x="168" y="-41" on="0"/>
        <pt x="93" y="128" on="0"/>
        <pt x="93" y="236" on="1"/>
        <pt x="93" y="348" on="0"/>
        <pt x="175" y="530" on="0"/>
        <pt x="316" y="659" on="0"/>
        <pt x="502" y="730" on="0"/>
        <pt x="607" y="730" on="1"/>
        <pt x="705" y="730" on="0"/>
        <pt x="874" y="673" on="0"/>
        <pt x="999" y="568" on="0"/>
        <pt x="1070" y="419" on="0"/>
        <pt x="1070" y="326" on="1"/>
        <pt x="1070" y="264" on="0"/>
        <pt x="1022" y="149" on="0"/>
        <pt x="939" y="60" on="0"/>
        <pt x="829" y="7" on="0"/>
        <pt x="767" y="7" on="1"/>
        <pt x="739" y="7" on="0"/>
        <pt x="696" y="20" on="0"/>
        <pt x="669" y="51" on="0"/>
        <pt x="661" y="103" on="0"/>
        <pt x="668" y="142" on="1"/>
        <pt x="664" y="142" on="1"/>
        <pt x="648" y="118" on="0"/>
        <pt x="606" y="70" on="0"/>
        <pt x="556" y="31" on="0"/>
        <pt x="497" y="7" on="0"/>
        <pt x="464" y="7" on="1"/>
        <pt x="438" y="7" on="0"/>
        <pt x="392" y="29" on="0"/>
        <pt x="357" y="70" on="0"/>
        <pt x="337" y="126" on="0"/>
        <pt x="337" y="160" on="1"/>
        <pt x="337" y="220" on="0"/>
        <pt x="382" y="340" on="0"/>
        <pt x="460" y="436" on="0"/>
        <pt x="563" y="496" on="0"/>
        <pt x="620" y="496" on="1"/>
        <pt x="660" y="496" on="0"/>
        <pt x="710" y="473" on="0"/>
        <pt x="733" y="457" on="1"/>
      </contour>
      <contour>
        <pt x="706" y="383" on="1"/>
        <pt x="688" y="402" on="0"/>
        <pt x="652" y="418" on="0"/>
        <pt x="624" y="418" on="1"/>
        <pt x="582" y="418" on="0"/>
        <pt x="511" y="372" on="0"/>
        <pt x="459" y="301" on="0"/>
        <pt x="429" y="216" on="0"/>
        <pt x="429" y="176" on="1"/>
        <pt x="429" y="140" on="0"/>
        <pt x="462" y="85" on="0"/>
        <pt x="507" y="85" on="1"/>
        <pt x="528" y="85" on="0"/>
        <pt x="574" y="113" on="0"/>
        <pt x="619" y="159" on="0"/>
        <pt x="660" y="217" on="0"/>
        <pt x="676" y="247" on="1"/>
      </contour>
    </TTGlyph>
    <TTGlyph name="atilde" xMin="45" yMin="-8" xMax="498" yMax="756">
      <component glyphName="a" x="0" y="0" flags="0x204"/>
      <component glyphName="tilde" x="62" y="0" flags="0x4"/>
    </TTGlyph>
    <TTGlyph name="b" xMin="88" yMin="-9" xMax="569" yMax="700">
      <contour>
        <pt x="88" y="700" on="1"/>
        <pt x="180" y="700" on="1"/>
        <pt x="180" y="460" on="1"/>
        <pt x="190" y="460" on="1"/>
        <pt x="213" y="500" on="0"/>
        <pt x="299" y="539" on="0"/>
        <pt x="347" y="539" on="1"/>
        <pt x="456" y="539" on="0"/>
        <pt x="569" y="406" on="0"/>
        <pt x="569" y="272" on="1"/>
        <pt x="569" y="135" on="0"/>
        <pt x="421" y="-9" on="0"/>
        <pt x="287" y="-9" on="1"/>
        <pt x="221" y="-9" on="0"/>
        <pt x="114" y="13" on="0"/>
        <pt x="88" y="28" on="1"/>
      </contour>
      <contour>
        <pt x="334" y="461" on="1"/>
        <pt x="302" y="461" on="0"/>
        <pt x="253" y="441" on="0"/>
        <pt x="215" y="406" on="0"/>
        <pt x="188" y="361" on="0"/>
        <pt x="180" y="337" on="1"/>
        <pt x="180" y="88" on="1"/>
        <pt x="229" y="69" on="0"/>
        <pt x="299" y="69" on="1"/>
        <pt x="378" y="69" on="0"/>
        <pt x="471" y="166" on="0"/>
        <pt x="471" y="273" on="1"/>
        <pt x="471" y="313" on="0"/>
        <pt x="455" y="382" on="0"/>
        <pt x="421" y="432" on="0"/>
        <pt x="370" y="461" on="0"/>
      </contour>
    </TTGlyph>
    <TTGlyph name="backslash" xMin="-36" yMin="-140" xMax="442" yMax="712">
      <contour>
        <pt x="442" y="-103" on="1"/>
        <pt x="366" y="-140" on="1"/>
        <pt x="-36" y="676" on="1"/>
        <pt x="40" y="712" on="1"/>
      </contour>
    </TTGlyph>
    <TTGlyph name="bar" xMin="89" yMin="-130" xMax="169" yMax="700">
      <contour>
        <pt x="89" y="700" on="1"/>
        <pt x="169" y="700" on="1"/>
        <pt x="169" y="-130" on="1"/>
        <pt x="89" y="-130" on="1"/>
      </contour>
    </TTGlyph>
    <TTGlyph name="braceleft" xMin="59" yMin="-230" xMax="351" yMax="701">
      <contour>
        <pt x="146" y="108" on="1"/>
        <pt x="146" y="159" on="0"/>
        <pt x="101" y="197" on="0"/>
        <pt x="59" y="197" on="1"/>
        <pt x="59" y="273" on="1"/>
        <pt x="101" y="273" on="0"/>
        <pt x="146" y="314" on="0"/>
        <pt x="146" y="358" on="1"/>
        <pt x="146" y="591" on="1"/>
        <pt x="146" y="639" on="0"/>
        <pt x="198" y="701" on="0"/>
        <pt x="251" y="701" on="1"/>
        <pt x="351" y="701" on="1"/>
        <pt x="351" y="621" on="1"/>
        <pt x="295" y="621" on="1"/>
        <pt x="238" y="621" on="0"/>
        <pt x="238" y="559" on="1"/>
        <pt x="238" y="335" on="1"/>
        <pt x="238" y="291" on="0"/>
        <pt x="191" y="246" on="0"/>
        <pt x="161" y="241" on="1"/>
        <pt x="161" y="233" on="1"/>
        <pt x="190" y="229" on="0"/>
        <pt x="238" y="177" on="0"/>
        <pt x="238" y="135" on="1"/>
        <pt x="238" y="-88" on="1"/>
        <pt x="238" y="-119" on="0"/>
        <pt x="265" y="-150" on="0"/>
        <pt x="296" y="-150" on="1"/>
        <pt x="351" y="-150" on="1"/>
        <pt x="351" y="-230" on="1"/>
        <pt x="251" y="-230" on="1"/>
        <pt x="202" y="-230" on="0"/>
        <pt x="146" y="-174" on="0"/>
        <pt x="146" y="-121" on="1"/>
      </contour>
    </TTGlyph>
    <TTGlyph name="braceright" xMin="59" yMin="-230" xMax="351" yMax="701">
      <contour>
        <pt x="263" y="363" on="1"/>
        <pt x="263" y="312" on="0"/>
        <pt x="309" y="274" on="0"/>
        <pt x="351" y="274" on="1"/>
        <pt x="351" y="198" on="1"/>
        <pt x="309" y="198" on="0"/>
        <pt x="263" y="157" on="0"/>
        <pt x="263" y="113" on="1"/>
        <pt x="263" y="-120" on="1"/>
        <pt x="263" y="-168" on="0"/>
        <pt x="210" y="-230" on="0"/>
        <pt x="156" y="-230" on="1"/>
        <pt x="59" y="-230" on="1"/>
        <pt x="59" y="-150" on="1"/>
        <pt x="114" y="-150" on="1"/>
        <pt x="171" y="-150" on="0"/>
        <pt x="171" y="-88" on="1"/>
        <pt x="171" y="136" on="1"/>
        <pt x="171" y="180" on="0"/>
        <pt x="218" y="225" on="0"/>
        <pt x="247" y="230" on="1"/>
        <pt x="247" y="238" on="1"/>
        <pt x="218" y="242" on="0"/>
        <pt x="171" y="294" on="0"/>
        <pt x="171" y="336" on="1"/>
        <pt x="171" y="559" on="1"/>
        <pt x="171" y="621" on="0"/>
        <pt x="113" y="621" on="1"/>
        <pt x="59" y="621" on="1"/>
        <pt x="59" y="701" on="1"/>
        <pt x="157" y="701" on="1"/>
        <pt x="206" y="701" on="0"/>
        <pt x="263" y="645" on="0"/>
        <pt x="263" y="592" on="1"/>
      </contour>
    </TTGlyph>
    <TTGlyph name="bracketleft" xMin="89" yMin="-230" xMax="295" yMax="700">
      <contour>
        <pt x="89" y="700" on="1"/>
        <pt x="295" y="700" on="1"/>
        <pt x="295" y="620" on="1"/>
        <pt x="181" y="620" on="1"/>
        <pt x="181" y="-150" on="1"/>
        <pt x="295" y="-150" on="1"/>
        <pt x="295" y="-230" on="1"/>
        <pt x="89" y="-230" on="1"/>
      </contour>
    </TTGlyph>
    <TTGlyph name="bracketright" xMin="41" yMin="-230" xMax="247" yMax="700">
      <contour>
        <pt x="247" y="-230" on="1"/>
        <pt x="41" y="-230" on="1"/>
        <pt x="41" y="-150" on="1"/>
        <pt x="155" y="-150" on="1"/>
        <pt x="155" y="620" on="1"/>
        <pt x="41" y="620" on="1"/>
        <pt x="41" y="700" on="1"/>
        <pt x="247" y="700" on="1"/>
      </contour>
    </TTGlyph>
    <TTGlyph name="breve" xMin="67" yMin="610" xMax="420" yMax="759">
      <contour>
        <pt x="117" y="759" on="1"/>
        <pt x="138" y="722" on="0"/>
        <pt x="209" y="684" on="0"/>
        <pt x="249" y="684" on="1"/>
        <pt x="288" y="684" on="0"/>
        <pt x="355" y="721" on="0"/>
        <pt x="375" y="759" on="1"/>
        <pt x="420" y="740" on="1"/>
        <pt x="416" y="716" on="0"/>
        <pt x="387" y="669" on="0"/>
        <pt x="341" y="633" on="0"/>
        <pt x="281" y="610" on="0"/>
        <pt x="248" y="610" on="1"/>
        <pt x="183" y="610" on="0"/>
        <pt x="84" y="678" on="0"/>
        <pt x="67" y="735" on="1"/>
      </contour>
    </TTGlyph>
    <TTGlyph name="brokenbar" xMin="89" yMin="-130" xMax="169" yMax="700">
      <contour>
        <pt x="89" y="208" on="1"/>
        <pt x="169" y="208" on="1"/>
        <pt x="169" y="-130" on="1"/>
        <pt x="89" y="-130" on="1"/>
      </contour>
      <contour>
        <pt x="169" y="362" on="1"/>
        <pt x="89" y="362" on="1"/>
        <pt x="89" y="700" on="1"/>
        <pt x="169" y="700" on="1"/>
      </contour>
    </TTGlyph>
</ttFont>
